<svg id="interactive-overlay" xmlns="http://www.w3.org/2000/svg" width="128" height="128" viewBox="0 0 128 128">
  <defs>
    <style>
      .cls-1 {
        fill: #fff;
      }
    </style>
  </defs>
  <path id="interactive-overlay-path" class="cls-1" d="M64,0a64,64,0,1,0,64,64A64,64,0,0,0,64,0ZM88.63,33.46,68.16,54.15l.48.49,3-3S75.16,49,79.14,53c3.16,3.19.13,7.08.13,7.08l-5.15,5.21.55.55,2.54-2.57s2.4-2.15,6.18,1.66.82,6.94.82,6.94l-4.47,4.51.49.5s.75-.78,1.21-1.22c1-1,3.67-.3,5.29,1.34,3.18,3.21-1.1,7.42-1.1,7.42s-13.84,13-17.29,14.3-13.87,3.63-20.89,2.83C43.88,99.89,34.28,91,32.91,86.86s1.67-21.65,1.67-21.65l13.48-26.1s1.79-4,5.36-2.92,6.31,4.43-2.63,21l30.5-30.87s3.64-3.12,6.73,0C92.13,30.47,88.63,33.46,88.63,33.46Z"/>
</svg>
