<svg id="Capa_1" data-name="Capa 1" xmlns="http://www.w3.org/2000/svg" viewBox="0 0 15 15"><defs><style>.cls-1{fill:#fff;}</style></defs><title>link-icon</title><path class="cls-1" d="M13.83,6.8,11,9.61a4,4,0,0,1-5.63,0,3.86,3.86,0,0,1-.61-.8L6.09,7.5a1,1,0,0,1,.21-.14,2,2,0,0,0,3.31.84l2.82-2.81A2,2,0,0,0,9.61,2.57l-1,1A4.9,4.9,0,0,0,6.07,3.3L8.2,1.17A4,4,0,1,1,13.83,6.8ZM6.39,11.43l-1,1A2,2,0,0,1,2.57,9.61L5.39,6.8a2,2,0,0,1,3.31.84,1,1,0,0,0,.21-.14l1.31-1.31a3.86,3.86,0,0,0-.61-.8A4,4,0,0,0,4,5.39L1.17,8.2A4,4,0,0,0,6.8,13.83L8.93,11.7A5,5,0,0,1,6.39,11.43Z" transform="translate(0 0)"/></svg>