<svg id="slideshow-overlay" xmlns="http://www.w3.org/2000/svg" width="128" height="128" viewBox="0 0 128 128">
  <defs>
    <style>
      .cls-1 {
        fill: #fff;
      }
    </style>
  </defs>
  <path id="slideshow-overlay-path" class="cls-1" d="M64,0a64,64,0,1,0,64,64A64,64,0,0,0,64,0ZM40.14,71.09V85.45h-2c-3.31,0-6.68-2.69-6.68-6v-42a6,6,0,0,1,6-6h42c3.31,0,6.2,3.3,6.2,6.61v2H81.09a6.24,6.24,0,0,0-5.63-4.27H41.8a6.24,6.24,0,0,0-6,6.27v23.4A6.3,6.3,0,0,0,40.14,71.09ZM97.62,93.28a3.25,3.25,0,0,1-3.25,3.25H45.56a3.25,3.25,0,0,1-3.25-3.25h0V45.56a3.25,3.25,0,0,1,3.25-3.25H94.37a3.25,3.25,0,0,1,3.25,3.25ZM90,47.7H49.9A3.25,3.25,0,0,0,46.65,51h0V80.27a3.25,3.25,0,0,0,3.25,3.25H90a3.25,3.25,0,0,0,3.25-3.25V51A3.25,3.25,0,0,0,90,47.7Z"/>
</svg>
