<svg xmlns="http://www.w3.org/2000/svg" viewBox="0 0 32 32">
  <path d="M30.7560394 18.3485965c.1078753.406604-.1342062.8236918-.5407725.9317093l-4.8971572 1.3030527 4.141108 2.3999603c.2980511.1729967.4428744.524516.3531843.8572592-.0896901.3327431-.3915608.5638572-.7361798.5636237-.1339492.0001795-.2655117-.0354494-.3810652-.1031976l-4.2085394-2.439017 1.3320677 5.0039555c.1081239.4065613-.1333935.8238913-.5397723.9326994a.75342566.75342566 0 0 1-.1964636.0257944c-.3451649-.0000719-.6471975-.2320935-.7362358-.5655767l-1.7245048-6.4776073-5.9692705-3.4594214v6.9781929l4.6615069 4.6605168c.1924883.1924883.2676636.4730461.197208.73599-.0704556.262944-.2758382.4683265-.5387822.5387821-.2629439.0704557-.5435017-.0047196-.73599-.1972079l-3.5839427-3.5832026v4.7858182C16.6509175 31.6605032 16.3101885 32 15.890403 32s-.7605144-.3394968-.7620353-.7592795v-4.8632214l-3.6613459 3.6606258c-.2975611.2975611-.7800031.2975611-1.0775642 0-.2975611-.2975612-.2975611-.7800031 0-1.0775642l4.7389101-4.73791V17.321891l-5.96977052 3.4599115-1.72301455 6.4761071c-.08858891.3339251-.39075948.566459-.73623586.5665668a.74075264.74075264 0 0 1-.19547342-.0257944c-.40656223-.1080219-.64863842-.5251083-.54076245-.9317092l1.33157764-5.0048556-4.20805938 2.4388869c-.1155535.0677482-.24711593.1033771-.38106515.1031976-.34461715.0002289-.64648364-.2308866-.73617107-.5636286-.08968743-.3327419.05513611-.6842585.3531856-.8572543l4.14110794-2.4000203-4.89715719-1.3029927c-.40661184-.1079681-.64871048-.5251175-.54074244-.9317293.10796803-.4066118.52511744-.6487105.93172928-.5407424l6.37037904 1.6949797 6.04394323-3.5028888-6.04423328-3.5033889-6.36914883 1.6955998a.75294684.75294684 0 0 1-.19646359.0257944c-.38252233-.000043-.7057328-.2836705-.7554665-.662946-.0497337-.3792755.18942395-.7366454.55900292-.8353101l4.89766727-1.3038729L2.32257854 9.015661c-.36387149-.21098676-.48780905-.67700144-.27682231-1.04087293.21098675-.36387149.67700143-.48780907 1.04087293-.27682234l4.20805938 2.43928697L5.9631109 5.13304725c-.10795422-.40661184.13415561-.82375005.54076745-.93170428.40661184-.10795423.82375005.13415561.93170428.54076745l1.7232946 6.47561708 5.96952047 3.4602915V7.69995607l-4.6605467-4.6615169c-.2975611-.29756114-.2975611-.78000308 0-1.07756422s.7800031-.29756114 1.0775642 0l3.5829525 3.58370265V.75927953C15.1298886.3394968 15.4706175 0 15.890403 0s.7605145.3394968.7620353.75927954V5.622961l3.6613359-3.66208605c.1924883-.19248831.4730461-.26766355.7359901-.19720794.2629439.07045561.4683265.27583819.5387821.53878211.0704556.26294392-.0047197.54350174-.197208.73599005l-4.7389001 4.7399003V14.678019l5.9692705-3.4597315 1.7245048-6.47716725c.0695401-.26376605.274769-.47024065.5381093-.54137565.2633404-.071135.5446182.00392169.7375092.19679835.192891.19287666.2679686.47414878.1968532.73749447l-1.3320677 5.00333538 4.2085494-2.43941707c.2353854-.13648452.5257041-.1370248.7615958-.00141734.2358918.13560747.381519.38676069.3820254.65885266.0005063.27209197-.1441851.52378546-.3795705.66026995l-4.1408379 2.4000803 4.8979173 1.3039229c.369579.0986647.6087366.4560346.5590029.8353101-.0497337.3792755-.3729442.662903-.7554665.662946a.75294703.75294703 0 0 1-.1964636-.0257944L23.453701 12.496386l-6.0444333 3.503519 6.0444333 3.5029488 6.3706291-1.6950397c.1953147-.0532367.4038167-.0259996.5789018.0756232.1750851.1016229.3021551.2691583.3528075.4651592z" fill="#ffffff" fill-rule="nonzero"/>
</svg>
