<?xml version="1.0" encoding="UTF-8"?>
<svg width="32px" height="32px" viewBox="0 0 32 32" version="1.1" xmlns="http://www.w3.org/2000/svg" xmlns:xlink="http://www.w3.org/1999/xlink">
    <!-- Generator: Sketch 54.1 (76490) - https://sketchapp.com -->
    <title>icon/warning</title>
    <desc>Created with Sketch.</desc>
    <g id="icon/warning" stroke="none" stroke-width="1" fill="none" fill-rule="evenodd">
        <path d="M17.7319939,3.00943567 L31.7040501,26.8048842 C32.2863497,27.7965836 31.9828909,29.0898643 31.0262558,29.6935074 C30.7085694,29.8939696 30.3438207,30 29.9719091,30 L2.02779669,30 C0.907875502,30 1.40706661e-16,29.0588474 0,27.8978767 C-5.62826644e-17,27.5123331 0.102281375,27.134215 0.295655686,26.8048842 L14.2677119,3.00943567 C14.8500115,2.01773624 16.0975645,1.70315445 17.0541996,2.30679759 C17.331051,2.4814927 17.5634756,2.72243656 17.7319939,3.00943567 Z M16.7966158,5.98580601 C16.7224134,5.85631301 16.6235194,5.74648745 16.5069157,5.66408282 C16.066924,5.3531379 15.4832598,5.49717828 15.2032651,5.98580601 L3.70318709,26.0549618 C3.6067685,26.223225 3.55555556,26.4185334 3.55555556,26.6179774 C3.55555556,27.1971525 3.97833615,27.6666667 4.49986245,27.6666667 L27.5000184,27.6666667 C27.6796105,27.6666667 27.8554787,27.6097927 28.0069937,27.5027161 C28.4469853,27.1917712 28.5766885,26.5435895 28.2966938,26.0549618 L16.7966158,5.98580601 Z M17,20 L15,20 L15,12 L17,12 L17,20 Z M15,23 C15,22.6705866 15.0857134,22.4215695 15.2571429,22.2529412 C15.4285723,22.0843129 15.6780936,22 16.0057143,22 C16.3219063,22 16.5666658,22.0862736 16.74,22.2588235 C16.9133342,22.4313734 17,22.6784298 17,23 C17,23.3098055 16.9123818,23.5539207 16.7371429,23.7323529 C16.5619039,23.9107852 16.3180968,24 16.0057143,24 C15.6857127,24 15.4380961,23.912746 15.2628571,23.7382353 C15.0876182,23.5637246 15,23.3176486 15,23 Z" id="warning" fill="#000000" fill-rule="nonzero"></path>
    </g>
</svg>