<svg xmlns="http://www.w3.org/2000/svg" viewBox="0 0 32 32">
  <path d="M30.4480412 3.96048c0-.04259-.0181-.08025-.0213-.122a.77147589.77147589 0 0 0-.02-.11419C29.9727112.79669 21.6988312 0 16.7418512 0c-5.09112 0-13.70622004.83362-13.70622004 3.96048.04048085.66106117.39670718 1.26221799.95711 1.61519 1.29035 1.91297 1.8807 3.32133 1.74282 4.18605-.099.61962-.58555.99331-1.37232 1.55119-1.02845.72821-2.43591 1.72578-2.36032 3.953.20867 6.13767 5.979 9.25495 10.98393004 11.28629 2.7816588 1.0322212 5.2252948 2.8106156 7.06285 5.1401.1555804.1942975.3909388.30748.63985.3077a.80054058.80054058 0 0 0 .20548-.02662c.3120871-.0808705.5473549-.337829.60046-.65582.44715-2.67012-1.28716-4.99-2.816-7.03623-.8114607-.9832315-1.497399-2.0636313-2.042-3.21629-.3751414-.7930664-.4422985-1.6972136-.18844-2.537.46418-1.1232 1.86419-1.68 3.21841-2.21872l.56533-.22783c5.43714-2.23363 9.44339-6.94361 10.20568-11.99854.00266-.0183-.004-.03493-.00267-.0531.0011-.02399.01224-.04515.01224-.06937zm-13.70619-2.32519c7.444 0 11.82766 1.5092 12.06 2.30629-.00319.02063-.00878.04065-.012.06121-.30635.80275-4.67112 2.28393-12.048 2.28393-7.51851004 0-11.91762004-1.53947-12.07093004-2.322.15437-.78995 4.55561-2.32943 12.07093004-2.32943zm2.86919 12.93436l-.54723.21932c-1.59271.63346-3.39728 1.3521-4.12656 3.11515-.433065 1.2299719-.3684993 2.5804625.17993 3.76351.595798 1.2876928 1.3524001 2.4946803 2.25172 3.59211.871634 1.0637884 1.6082844 2.2313462 2.19316 3.47606-1.7309517-1.6040484-3.7543496-2.8600899-5.95987-3.69964-4.82923004-1.95894-9.78940004-4.65888-9.96400004-9.82559-.04362-1.28183.60585-1.80883 1.67045-2.56367 1.02520115-.5428847 1.76861001-1.4990752 2.042-2.62647.0917519-1.13909307-.17188166-2.27861823-.7546-3.26167 3.318736.81747104 6.72817474 1.20837088 10.14581004 1.16324 3.43774 0 8.4735-.38387 11.38743-1.59363-1.6729049 3.7410363-4.7239703 6.6929001-8.51824 8.24128z" fill="#667bb3" fill-rule="nonzero"/>
</svg>
