<svg xmlns="http://www.w3.org/2000/svg" viewBox="0 0 32 32">
  <path d="M18.137541 8.7695277c2.1581613-.42952159 4.3868228-.3489232 6.50832.23537 2.1944125.57740766 4.2706549 1.5349246 6.13451 2.8291.3353014.250774.8102435.1833012 1.0624351-.1509353.2521916-.3342365.1867305-.80946-.1464351-1.0630647-.106-.0799-10.39351-7.67871-19.74381-.6184a7.16359434 7.16359434 0 0 0-.69613.5559c-.03812.03187-.0765.05885-.11437.09122-.01486.01256-.0208.03045-.03441.04388-1.37191635 1.2918833-2.17248442 3.0772001-2.22456592 4.9609211-.0520815 1.8837209.64861736 3.7105451 1.94705592 5.0762589-2.25812028-.8181215-4.26607386-2.206725-5.82855998-4.03075-1.49807971-1.7045688-2.68524862-3.6589243-3.50744-5.77406-.08861973-.2568418-.30753121-.4468954-.5742726-.4985693-.2667414-.051674-.54078834.0428821-.71891.24805-.17812167.2051678-.23325713.4897775-.1446374.7466193.03985.11685 3.79062 10.64559 13.83085998 11.5066-2.1669451.4359435-4.4059853.3568913-6.53678998-.23079-2.19441252-.5774077-4.27065487-1.5349246-6.13451-2.8291-.3353014-.250774-.81024346-.1833012-1.06243508.1509353-.25219162.3342365-.18673052.80946.14643508 1.0630647 3.22000024 2.2364585 7.01786947 3.4943894 10.93625998 3.62231 3.1306273.0036838 6.1761404-1.0190536 8.67-2.91154a7.15163824 7.15163824 0 0 0 .84269-.65708c.03491-.02946.07031-.05249.10546-.08238.01585-.01355.02253-.0328.03714-.04735 1.3713131-1.2927006 2.1709499-3.0785793 2.221964-4.9624509.0510142-1.8838715-.6508005-3.7104087-1.950144-5.0754291 2.2599986.8186822 4.2694115 2.2087873 5.83248 4.03489 1.4978508 1.7047314 2.6849849 3.6590462 3.50741 5.77406.0886197.2568418.3075312.4468954.5742726.4985693.2667414.051674.5407884-.0428821.71891-.24805.1781217-.2051678.2332571-.4897775.1446374-.7466193-.04039-.11679-3.79709-10.63791-13.80342-11.51118zm1.6579 11.18087c-.278.23481-.56468.43967-.84987.64916-.6308386.3930889-1.3341937.6554899-2.06835.77164-.37109.04079-.73178.05057-1.094.06511-2.2599376-.0817611-4.2474147-1.5185564-5.0336021-3.638913-.78618748-2.1203567-.2158296-4.505548 1.4445221-6.040877.28172-.23846.57261-.44617.862-.65851.6263398-.3894166 1.3240193-.6500784 2.05226-.76675.37481-.0419.73921-.05174 1.10511-.06678 2.2614985.0820009 4.2498777 1.5208679 5.0347929 3.6433682.7849153 2.1225003.2111355 4.5088714-1.4528729 6.0425518h.00001z" fill="#667bb3" fill-rule="nonzero"/>
</svg>
