<svg xmlns="http://www.w3.org/2000/svg" viewBox="0 0 32 32">
  <path d="M32.0003364 16.1092465c-.0035824 3.0254216-2.455468 5.4770164-5.48089 5.48024h-16.19011v-1.76953h16.19011c1.940442.0001101 3.5533883-1.4946623 3.7006397-3.4295091.1472513-1.9348469-1.2209095-3.6564962-3.1390197-3.9500409-.8262753-.1257594-1.4519472-.8124035-1.50055-1.64678-.2463968-4.21587476-3.5436463-7.61520231-7.7500523-7.98998267-4.206406-.37478036-8.05269077 2.38807598-9.04053772 6.49398269-.20809459.86809468-1.03050022 1.44501678-1.91759 1.34519998a4.48376847 4.48376847 0 0 0-.49971-.02794c-2.54081243.0028546-4.59984675 2.0618576-4.60274 4.60267.00504035.7284325.18511602 1.4449797.52505 2.08925v2.80165C.2329244 18.392411-.5325522 15.568161.38067152 13.0457161c.91322371-2.5224449 3.30928775-4.20209345 5.99195486-4.20037958a6.25180997 6.25180997 0 0 1 .69671.03895C8.26209478 3.92536577 12.9073248.58839362 17.9875509 1.04101989c5.0802261.45262626 9.0623521 4.55825869 9.3596455 9.64993661 2.6745672.4122427 4.6496828 2.7121411 4.65314 5.41829zm-23.14561002 6.62035c1.77436722 1.130234 2.58965132 3.2960704 2.00102392 5.3158045-.5886274 2.0197341-2.43984347 3.408451-4.54360392 3.408451s-3.95497654-1.3887169-4.54360391-3.408451c-.58862737-2.0197341.22665665-4.1855705 2.00102391-5.3158045v-6.94458c0-1.4042281 1.13835184-2.54258 2.54258-2.54258 1.40422816 0 2.54258 1.1383519 2.54258 2.54258v6.94458zm.4205 3.98725c.00431691-1.1425432-.65392181-2.1840421-1.68776-2.67046-.30691372-.1475162-.50215553-.4578453-.50229-.79837v-7.463c0-.4269327-.34609732-.77303-.77303-.77303s-.77303.3460973-.77303.77303v7.463c-.00013447.3405247-.19537629.6508538-.50229.79837-1.32313019.6322986-1.98426427 2.1377132-1.55457604 3.5397984.42968822 1.4020853 1.82078643 2.2785651 3.27099756 2.0609353 1.45021113-.2176298 2.52276459-1.4638241 2.52197848-2.9302737zm7.99294002-2.00689c-.4174442-.2534929-.9613212-.1210017-1.21541.29608l-2.35942 3.87667c-.1642243.2700035-.1719287.6071096-.0202109.8843337.1517177.2772242.439808.4524494.75575.45967.315942.0072207.6117366-.1546602.7759609-.4246637l2.3594-3.87666c.1222866-.2003426.1597961-.441122.1042456-.6691687-.0555506-.2280468-.1995916-.4246017-.4003156-.5462613zm10.92377 0c-.4174025-.2537829-.9615-.1212391-1.21542.29608l-2.3594 3.87666c-.1642243.2700017-.1719296.6071062-.0202134.8843294.1517161.2772233.4398045.4524485.755745.45967.3159404.0072216.6117341-.1546577.7759584-.4246594l2.35941-3.87666c.1222798-.2003436.1597845-.4411206.1042323-.6691643-.0555521-.2280436-.1995915-.424596-.4003123-.5462557zm-5.46188 0c-.417429-.2536117-.9613978-.1210993-1.21542.29608l-2.3594 3.87666c-.1642243.2700017-.1719296.6071062-.0202134.8843294.1517161.2772233.4398045.4524485.755745.45967.3159404.0072216.6117341-.1546577.7759584-.4246594l2.35941-3.87666c.1222771-.2003443.1597802-.4411204.1042283-.6691633-.0555519-.2280429-.1995895-.4245951-.4003083-.5462567zm-18.17133002 2.05808c-1e-8.6263866.33417326 1.2051918.87663999 1.5183851.54246672.3131933 1.21081329.3131933 1.75328002 0 .54246673-.3131933.87664-.8919985.87663999-1.5183851h-3.50656z" fill="#667bb3" fill-rule="nonzero"/>
</svg>
