<svg xmlns="http://www.w3.org/2000/svg" viewBox="0 0 32 32">
  <path d="M27.34694 10.6909259c-.2973043-5.09168533-4.2794538-9.19731137-9.3596903-9.64991101C12.9070132.58841526 8.26179712 3.92542698 7.06908 8.88436589a6.25722821 6.25722821 0 0 0-.697-.039C2.85287739 8.84536589 0 11.6982433 0 15.2174459c0 3.5192026 2.85287739 6.37208 6.37208 6.37208h20.14711c2.8658628-.0000761 5.2478067-2.2080296 5.4648448-5.0656622.2170382-2.8576326-1.8041171-5.4000029-4.6370948-5.8329078v-.00003zm-.82775 9.129H6.37208c-1.64593975.0024261-3.16788988-.8742792-3.99156091-2.2993019-.82367104-1.4250226-.82367104-3.1814236 0-4.6064463.82367103-1.4250226 2.34562116-2.301728 3.99156091-2.2993018a4.48872711 4.48872711 0 0 1 .5.028c.88710433.0998141 1.70951799-.4771278 1.9176-1.34524001.98781186-4.10592929 4.8340946-6.86882169 9.0405156-6.49405503 4.206421.37476666 7.5036862 3.77410598 7.7500744 7.98999504.0485893.834379.6742464 1.5210374 1.50052 1.64682 1.9179998.2936668 3.2860212 2.0152659 3.1387768 3.9500223-.1472445 1.9347565-1.7600454 3.4295004-3.7003968 3.4295277l.00002-.00002zm-9.76365 6.10544l-2.35941 3.87666c-.160655.2642577-.4476396.4254415-.7569.42511-.3194094-.00058-.6137167-.1732496-.7700492-.4517866-.1563325-.278537-.1504241-.6197066.0154592-.8926634l2.3594-3.87665c.1642225-.2700035.4600155-.4318853.7759566-.4246662.3159411.0072191.6040313.1824424.75575.459665.1517186.2772226.1440159.6143277-.0202066.8843312zm8.1934 0l-2.35941 3.87666c-.1606535.2642591-.4476391.4254434-.7569.42511-.3194094-.00058-.6137167-.1732496-.7700492-.4517866-.1563325-.278537-.1504241-.6197066.0154592-.8926634l2.3594-3.87665c.253866-.4173892.7980258-.5499509 1.215415-.296085.4173892.253866.5499509.7980258.296085 1.215415zm-16.3868 0l-2.35941 3.87668c-.16065779.2642547-.44764059.4254375-.7569.42511-.3194094-.00058-.61371674-.1732496-.77004924-.4517866-.15633249-.278537-.15042408-.6197066.01545924-.8926634l2.3594-3.87665c.25386598-.4173892.7980258-.549951 1.21541499-.296085.41738919.253866.54995096.7980258.29608501 1.215415v-.00002z" fill="#667bb3" fill-rule="nonzero"/>
</svg>
