<svg xmlns="http://www.w3.org/2000/svg" viewBox="0 0 32 32">
  <path d="M27.34694 10.6909259c-.2973043-5.09168533-4.2794538-9.19731137-9.3596903-9.64991101C12.9070132.58841526 8.26179712 3.92542698 7.06908 8.88436589a6.25316063 6.25316063 0 0 0-.697-.039C2.85287739 8.84536589 0 11.6982433 0 15.2174459c0 3.5192026 2.85287739 6.37208 6.37208 6.37208h20.1471c2.865999.0001305 5.2481615-2.207866 5.46521-5.0656344.2170484-2.8577685-1.8043164-5.4002143-4.63746-5.8329356l.00001-.00003zm-.82775 9.129H6.37208c-2.53925538-.0037429-4.59574581-2.0632669-4.59574581-4.602525 0-2.5392582 2.05649043-4.5987821 4.59574581-4.602525a4.48899203 4.48899203 0 0 1 .5.028c.88709282.0998159 1.70949965-.4771113 1.91759-1.34521001.98781186-4.10592929 4.8340946-6.86882169 9.0405156-6.49405503 4.206421.37476666 7.5036862 3.77410598 7.7500744 7.98999504.0486058.8343771.674275 1.5210226 1.50055 1.64679 1.9181102.2935447 3.286271 2.015194 3.1390197 3.9500408-.1472514 1.9348468-1.7601977 3.4296193-3.7006397 3.4295092v-.00002zm-12.4943 6.10544l-2.35941 3.87668c-.1606578.2642547-.4476406.4254375-.7569.42511-.3194121-.0005736-.6137244-.1732422-.7700583-.4517815-.15633381-.2785394-.15042191-.6197127.0154683-.8926685l2.3594-3.87665c.253866-.4173892.7980258-.549951 1.215415-.296085.4173892.253866.549951.7980258.296085 1.215415v-.00002zm10.92376 0l-2.3594 3.87666c-.1606578.2642547-.4476406.4254375-.7569.42511-.3194112-.0005764-.6137218-.1732446-.7700568-.4517823-.1563349-.2785376-.1504274-.6197094.0154568-.8926677l2.35941-3.87665c.2544008-.4161499.7976526-.5478403 1.2143749-.2943782.4167224.253462.5496371.7964155.2971151 1.2137082zm-5.46188 0l-2.35941 3.87666c-.1606517.2642561-.4476326.4254399-.75689.42511-.3194112-.0005764-.6137218-.1732446-.7700568-.4517823-.1563349-.2785376-.1504274-.6197094.0154568-.8926677l2.3594-3.87665c.253866-.4173892.7980258-.549951 1.215415-.296085.4173892.253866.549951.7980258.296085 1.215415zm-10.92377 0l-2.3594 3.87666c-.16065779.2642547-.44764059.4254375-.7569.42511-.31941119-.0005764-.61372183-.1732446-.77005677-.4517823-.15633495-.2785376-.15042747-.6197094.01545677-.8926677l2.35941-3.87665c.25440081-.4161499.79765261-.5478403 1.21437493-.2943782.41672232.253462.54963704.7964155.29711507 1.2137082z" fill="#667bb3" fill-rule="nonzero"/>
</svg>
