<svg xmlns="http://www.w3.org/2000/svg" viewBox="0 0 32 32">
  <path d="M21.2550354 13.4439637h-1.6591643a8.70769424 8.70769424 0 0 0-.5839742-1.5405611h2.5533092c-.0188037.0280054-.0426284.0508999-.0601818.0801056-.2635562.438233-.3527847.9595134-.2499889 1.4604555zm-7.7251201-6.10771396c.4757939-.43107743 1.094309-.67078767 1.7363394-.67293155a2.5369061 2.5369061 0 0 1 .2833354.0158631c.7724108.08717674 1.4886226-.41515875 1.6696964-1.17108893.6003607-2.49533658 2.937901-4.17445339 5.4943189-3.94671416 2.5564179.22773923 4.5603343 2.29361597 4.7101459 4.85578187.0423218.72641754.5870793 1.32419537 1.3064554 1.43361025.8994202.13766313 1.5985204.85503715 1.712935 1.7577093.1144145.90267218-.3835975 1.77178128-1.2202287 2.12949058.3543321.3999255.5249354.9299928.470392 1.4615157 1.5189252-.5753221 2.4584078-2.1030484 2.2864988-3.71815725-.1719091-1.61510888-1.4119166-2.91085439-3.0179118-3.15356606-.1940986-3.32465648-2.7942715-6.00546757-6.1114518-6.300984-3.3171803-.29551644-6.3502938 1.88344409-7.1290365 5.12143342a4.07822585 4.07822585 0 0 0-.455089-.02545498c-1.4106381.00208777-2.7238093.71994765-3.4870817 1.90625265a8.72409557 8.72409557 0 0 1 1.7506823.30724006zM4.15415244 22.4977036C1.85883625 22.4941448 0 20.6324242 0 18.3371053c0-2.295319 1.85883625-4.1570396 4.15415244-4.1605984a4.09504042 4.09504042 0 0 1 .45508896.025445c.61509257-2.5653282 2.67569206-4.5325812 5.26676067-5.02817294 2.59106863-.49559174 5.23220993.57236281 6.75058853 2.72962364h.0022505c.3376654.4759008.6118614.9937834.8156594 1.5405611H17.44175c.2316522.6219686.369151 1.2750363.4079497 1.9376088l.0030006.0007501c1.8489459.2840941 3.1670934 1.9443269 3.0245939 3.8095358-.1424994 1.8652089-1.6975558 3.3059328-3.5682001 3.3058552l-13.15494166-.00001zM11.139338 10.5948367c-2.38646458.0181189-4.45744085 1.6507554-5.03215377 3.9670556-.18090005.7557088-.89675548 1.258023-1.66893625 1.1710889a2.56730228 2.56730228 0 0 0-.28405553-.0159131c-1.44500784.0028233-2.61492305 1.1750266-2.61492305 2.6200372s1.16991521 2.6172138 2.61492305 2.6200371H17.3091041c1.0654835-.0000261 1.9511306-.8207533 2.0321131-1.8831548.0809826-1.0624015-.6700335-2.0078849-1.7232028-2.1694074-.7193402-.1094613-1.2640489-.7072308-1.3063653-1.4336202-.1626634-2.7377462-2.4297372-4.8749979-5.1723111-4.8761233zM9.9666187 24.5530354c-.18528577.1414429-.29508051.3603572-.29763818.593446l.00076014 1.196984-1.02379013-.6182709c-.23545265-.143006-.52936966-.1493152-.77074209-.0165446-.24137244.1327705-.39341414.3843859-.39870077.6598142-.00528663.2754282.13698751.5326928.37308718.6746281l1.10176538.6654701-1.10176538.66547c-.36393014.2199076-.48068353.6932016-.26077598 1.0571317.21990755.3639301.69320151.4806835 1.05713166.260776l1.02529043-.6192111.00075014 1.1979242c0 .4254142.3448664.7702806.7702806.7702806.4254142 0 .7702806-.3448664.7702806-.7702806l-.0007702-1.196984 1.0237801.6182709c.3639302.2199075.8372241.1031541 1.0571317-.260776.2199075-.3639301.1031542-.8372241-.260776-1.0571317l-1.1017554-.66547 1.1017554-.6654701c.3628447-.2203796.4788315-.6928794.2592764-1.0562236-.2195551-.3633441-.6917903-.4804035-1.0556321-.2616741l-1.0252804.6192111-.0007601-1.1979242c.0053599-.2964919-.1629526-.5687911-.4305551-.6965606-.2676025-.1277695-.5851731-.08746-.8123679.1031146h.00002zm18.0807745-9.5164603l-1.1022654-.6659702 1.1022654-.6659702c.3628447-.2203796.4788315-.6928794.2592764-1.0562236-.2195551-.3633441-.6917903-.4804035-1.055632-.2616741l-1.0253205.6194411-.0007501-1.1981642c0-.4254142-.3448664-.7702806-.7702806-.7702806-.4254142 0-.7702806.3448664-.7702806.7702806l.0007502 1.1972341-1.0237802-.618511c-.2354526-.143006-.5293696-.1493151-.770742-.0165446-.2413725.1327705-.3934142.384386-.3987008.6598142-.0052866.2754282.1369875.5326928.3730872.6746281l1.1022154.6659702-1.1022154.6659702c-.3639302.2199075-.4806836.6932015-.260776 1.0571316.2199075.3639301.6932015.4806835 1.0571316.260776l1.0252905-.6194611.0007501 1.197174c0 .4254142.3448664.7702806.7702806.7702806.4254142 0 .7702806-.3448664.7702806-.7702806l-.0007502-1.1962338 1.0237802.6185209c.3639301.2199075.8372241.1031541 1.0571316-.260776.2199075-.3639301.1031542-.8372241-.260776-1.0571316h.00003z" fill="#667bb3" fill-rule="nonzero"/>
</svg>
