<svg xmlns="http://www.w3.org/2000/svg" viewBox="0 0 32 32">
  <path d="M27.34694 9.69092432C27.049631 4.59925189 23.0674988.493634 17.9872764.04101808 12.907054-.41159783 8.26183346 2.9253771 7.06908 7.88429432a6.27534839 6.27534839 0 0 0-.697-.039C2.85287739 7.84529432 0 10.6981717 0 14.2173743s2.85287739 6.37208 6.37208 6.37208h20.14711c2.8658628-.0000761 5.2478067-2.2080296 5.4648448-5.0656622.2170382-2.8576325-1.8041171-5.4000028-4.6370948-5.83290778v.00004zm-.82775 9.12899998H6.37208c-1.64827348.0059513-3.17389367-.8699764-3.99975317-2.2964395-.82585949-1.4264631-.82585949-3.1856579 0-4.612121.8258595-1.4264631 2.35147969-2.30239074 3.99975317-2.29643948a4.51842807 4.51842807 0 0 1 .50057.028c.88703418.09982504 1.70932225-.47727619 1.91702-1.34541.98788575-4.10588679 4.8341797-6.86870496 9.0405735-6.49390315 4.2063937.37480181 7.5036228 3.7741285 7.7500165 7.98999315.0485843.83436368.6742621 1.52099428 1.50053 1.64670998 1.9179905.2936987 3.2859913 2.0153005 3.1387485 3.9500527-.1472427 1.9347523-1.7600215 3.4295042-3.7003685 3.4295673l.00002-.00001zm-6.70294 6.905l-2.10566 1.27185 2.10566 1.27187c.2704143.1634008.4331142.4586537.4268122.7745397-.0063021.3158861-.1806487.6044148-.4573651.7569-.2767163.1524853-.6137628.1457611-.8841771-.0176397l-2.01551-1.21744.00172 2.35566c.0004433.2346987-.0924359.4599459-.2581765.6261197-.1657405.1661739-.3907445.2596409-.6254435.2598103h-.00115c-.2345207.000207-.4595124-.0927849-.6254523-.2585074-.16594-.1657224-.259227-.3905918-.2593277-.6251126l-.00173-2.35933-2.01782 1.2188c-.4180243.2525957-.9616693.1184893-1.214265-.299535s-.1184893-.9616693.299535-1.214265l2.10567-1.27187-2.10567-1.27186c-.4180243-.2525957-.5521307-.7962407-.299535-1.214265.2525957-.4180243.7962407-.5521307 1.214265-.299535l2.01552 1.2174-.00173-2.35451c-.000438-.2346988.0924443-.4599444.2581859-.6261174.1657416-.1661729.390745-.2596405.6254441-.2598126h.00115c.2345207-.0002043.4595113.0927902.6254494.2585145.1659381.1657242.2592225.3905948.2593206.6251155l.00173 2.35818 2.01782-1.2188c.2704143-.1634008.6074608-.170125.8841771-.0176397.2767164.1524853.451063.4410139.4573651.7569.006302.3158861-.1563979.6111389-.4268122.7745397v.00004z" fill="#667bb3" fill-rule="nonzero"/>
</svg>
