<svg xmlns="http://www.w3.org/2000/svg" viewBox="0 0 32 32">
  <path d="M27.5500797 19.2633303a.74599988.74599988 0 0 1-.24331.04917H9.73881973c.01488-.02276.036-.039.0501-.0625.26393617-.4384436.35143627-.9607887.24478997-1.46131h17.02306c1.7356043-.0376126 3.1537086-1.397253 3.2643151-3.1297376.1106065-1.7324847-1.1230832-3.2614227-2.8398135-3.5194416-1.7167304-.258019-3.3453518.840723-3.7489016 2.5291792-.0641524.2644051-.2644901.4745006-.5255478.5511456-.2610578.0766449-.5431747.0081951-.74008-.179565-.1969054-.1877602-.2786846-.4663055-.2145322-.7307106.5367149-2.4664903 2.8499783-4.12896166 5.3588654-3.85125198 2.5088871.27770969 4.4025663 2.40584908 4.386864 4.93001048-.0157023 2.5241614-1.9357114 4.6285767-4.4478594 4.8750515v-.00004zm-7.55878 3.815H.75914973C.33943876 23.0798508 0 23.4205216 0 23.8402353c0 .4197137.33943876.7603844.75914973.761905H19.9912997c.419711-.0015206.7591498-.3421913.7591498-.761905 0-.4197137-.3394388-.7603845-.7591498-.761905zm-14.07092997-5.2755l1.73561 1.04836c.23288471.1412626.52348374.147389.76211505.0160668.23863131-.1313222.38895568-.380095.39423554-.652423.00527986-.2723281-.13528881-.5267407-.36865059-.6672138l-1.81325-1.09524 1.81325-1.09524c.23336178-.1404732.37393045-.3948858.36865059-.6672138-.00527986-.272328-.15560423-.5211008-.39423554-.652423-.23863131-.1313223-.52923034-.1251959-.76211505.0160668l-1.7376 1.04952-.00149-2.03069c-.00009012-.2019498-.08042205-.3955879-.22331494-.5382952-.1428929-.1427072-.33663531-.2227873-.53858506-.2226148h-.001c-.20210535.0001456-.39586235.080631-.53858757.2237257-.14272523.1430948-.22270937.3370592-.22233243.5391643l.00149 2.02753-1.7356-1.04834c-.23288471-.1412627-.52348373-.1473891-.76211504-.0160668-.23863131.1313222-.38895569.380095-.39423555.652423-.00527986.272328.13528882.5267406.36865059.6672138l1.81324 1.09524-1.81325 1.09524c-.23336177.1404731-.37393045.3948857-.36865059.6672138.00527986.272328.15560424.5211008.39423555.652423.23863131.1313222.52923033.1251958.76211504-.0160668l1.7376-1.04954.00148 2.03168c.00009013.2019515.08042342.3955912.22331848.5382987.14289507.1427075.33664004.2227864.53859152.2226113h.001c.20210444-.0001456.39586041-.0806314.53858405-.2237264.14272364-.143095.22270555-.3370595.22232595-.5391636l-.00148-2.02852zm5.58580997-4.52109c.1042713.1730684.2731241.2975322.4692958.3459246.1961718.0483924.403537.0167355.5763342-.0879846l1.7376-1.04954.00149 2.03069c.0000902.2019515.0804235.3955912.2233185.5382987.1428951.1427075.33664.2227864.5385915.2226113h.001c.2021037-.0001483.3958581-.0806349.5385811-.2237293.1427231-.1430945.2227059-.3370574.2223289-.5391607l-.00147-2.02753 1.73562 1.04836c.3599079.2166481.827275.1009391 1.0445323-.2586014s.1023398-.8271029-.2568323-1.0449686l-1.81332-1.09524 1.81325-1.09524c.3591721-.21786579.4740896-.68542818.2568323-1.04496867-.2172573-.3595405-.6846244-.47524949-1.0445323-.25860135l-1.73755 1.04954-.0015-2.03069c-.0000901-.20194981-.080422-.39558792-.2233149-.53829515-.1428929-.14270722-.3366353-.22278731-.5385851-.22261485h-.001c-.2021053.00014827-.3958613.0806362-.5385846.22373282-.1427234.14309662-.222705.33706212-.2223254.53916718l.00149 2.02753-1.73562-1.04834c-.3598546-.21592048-.8265697-.10001975-1.0436075.2591621-.2170378.35918184-.1025881.82625489.2559175 1.04440792l1.81324 1.09524-1.81324 1.09519c-.173049.1042937-.2974955.2731493-.3458858.4693164-.0483903.1961671-.0167482.4035265.0879458.5763336z" fill="#667bb3" fill-rule="nonzero"/>
</svg>
