<svg xmlns="http://www.w3.org/2000/svg" viewBox="0 0 32 32">
  <path d="M23.6572001 26.5994058c-.7298166-.0000041-1.3877731.4396237-1.6670646 1.1138852-.2792915.6742615-.1249163 1.4503721.3911405 1.9664318.5160569.5160597 1.2921666.6704392 1.9664296.3911514.674263-.2792878 1.1138945-.9372418 1.1138945-1.6670584-.0000055-.996542-.8078581-1.804399-1.8044-1.80441zm-15.31482001 0c-.99654812 0-1.80441.8078618-1.80441 1.80441 0 .9965481.80786188 1.80441 1.80441 1.80441.99654813 0 1.80441001-.8078619 1.80441001-1.80441-.0000111-.9965436-.80786645-1.804399-1.80441001-1.80441zm7.65741001 0c-.7298166-.0000041-1.3877731.4396237-1.6670646 1.1138852-.2792915.6742615-.1249163 1.4503721.3911405 1.9664318.5160569.5160597 1.2921666.6704392 1.9664296.3911514.674263-.2792878 1.1138945-.9372418 1.1138945-1.6670584-.0000055-.996542-.8078581-1.804399-1.8044-1.80441zm11.34715-14.90857c-.2973522-5.0916573-4.2795014-9.19723522-9.3597136-9.64982268-5.0802123-.45258745-9.72540655 2.88439514-10.91814641 7.84330264a6.25850243 6.25850243 0 0 0-.697-.039c-2.27652494-3e-8-4.38012075 1.21451154-5.51838323 3.18603994-1.13826248 1.9715285-1.13826248 4.4005517 0 6.3720801 1.13826248 1.9715284 3.24185829 3.18604 5.51838323 3.18604H26.5191901c2.8658584-.0001119 5.24778-2.2080735 5.4648165-5.0657018.2170364-2.8576283-1.8040981-5.4000013-4.6370665-5.8329382zm-.82775 9.12908H6.37208009c-1.64754696.004857-3.1720255-.8713108-3.99720428-2.2973243-.82517877-1.4260135-.82517877-3.184338 0-4.6103515.82517878-1.4260135 2.34965732-2.3021813 3.99720428-2.2973242a4.49098115 4.49098115 0 0 1 .5.02793c.88720277.1002127 1.70985328-.476891 1.9176-1.34523.98784815-4.10588142 4.83410081-6.86872683 9.04048471-6.49397326 4.2063839.37475356 7.5036434 3.77402605 7.7500953 7.98987326.0485843.8343636.6742621 1.5209942 1.50053 1.64671 1.9179812.2937306 3.2859613 2.0153351 3.1387203 3.9500831-.1472411 1.934748-1.7599976 3.4295081-3.7003403 3.4296069h.00002z" fill="#667bb3" fill-rule="nonzero"/>
</svg>
