<svg xmlns="http://www.w3.org/2000/svg" viewBox="0 0 32 32">
  <path d="M29.5294381 26.6390139l-1.2661.765 1.2661.765c.2704144.1634008.4331143.4586537.4268122.7745398-.0063021.315886-.1806486.6044147-.457365.7569-.2767164.1524853-.6137628.145761-.8841772-.0176398l-1.176-.71046.00086 1.37519c.0010651.3168083-.1673387.6100079-.4415266.7687203-.2741878.1587124-.6123089.1587124-.8864968 0-.2741878-.1587124-.4425916-.451912-.4415266-.7687203l-.00082-1.37633-1.17768.71154c-.2704143.1634008-.6074607.1701251-.8841771.0176398-.2767164-.1524853-.451063-.441014-.457365-.7569-.0063021-.3158861.1563978-.611139.4268121-.7745398l1.2661-.765-1.2661-.765c-.2728669-.1622372-.4378413-.4582827-.4322601-.775688.0055812-.3174053.1808616-.6074679.4592635-.7600118.2784019-.1525438.6172076-.1441627.8877266.0219598l1.176.71045-.00086-1.37519c-.001065-.3168082.1673388-.6100078.4415266-.7687202.2741879-.1587124.612309-.1587124.8864968 0 .2741879.1587124.4425917.451912.4415266.7687202l.00087 1.37627 1.17763-.71153c.2704402-.1640285.607893-.1711339.884998-.0186346.277105.1524993.4516666.4413819.4578022.7576185.0061356.3162366-.157089.6116728-.4280702.7748061v.00001zm-2.18227-15.94808c-.2973003-5.09168666-4.2794483-9.19731633-9.3596857-9.64991855C12.907245.58841312 8.2620265 3.92542415 7.06930814 8.88436394a6.25190951 6.25190951 0 0 0-.69671-.039C3.68993532 8.84368304 1.29389007 10.5233429.38067141 13.0457851c-.91321867 2.5224421-.14775573 5.3466866 1.91423673 7.0627488v-2.80165c-.33992492-.6442966-.51998355-1.3608682-.525-2.08932.00289325-2.5408123 2.06192757-4.5998153 4.60274-4.60267a4.48389464 4.48389464 0 0 1 .49971.028c.88708097.0997873 1.7094602-.4771442 1.91754-1.34522996C9.77771 5.19173465 13.6239928 2.42884225 17.8304138 2.80360891c4.2064209.37476667 7.5036861 3.77410599 7.7500743 7.98999499.0486021.8343788.6742732 1.5210263 1.50055 1.64679 1.9181009.2935766 3.286241 2.0152287 3.1389914 3.9500713-.1472496 1.9348425-1.7601737 3.4296231-3.7006114 3.4295487h-16.19011v1.76955h16.19011c2.8659693.0000604 5.2480711-2.2079348 5.4651161-5.0656736.217045-2.8577389-1.8042621-5.4001726-4.6373661-5.8329564zm-18.49246996 12.03917c1.77436726 1.130234 2.58965126 3.2960704 2.00102396 5.3158045-.5886274 2.0197342-2.43984351 3.408451-4.54360396 3.408451-2.10376045 0-3.95497654-1.3887168-4.54360391-3.408451-.58862737-2.0197341.22665665-4.1855705 2.00102391-5.3158045v-6.94573c0-1.4042281 1.13835184-2.54258 2.54258-2.54258 1.40422816 0 2.54258 1.1383519 2.54258 2.54258v6.94573zm.4205 3.9861c-.00562059-1.1393755-.66085545-2.1756751-1.68776-2.66931-.30691372-.1475162-.50215553-.4578453-.50229-.79837v-7.46415c-.00538978-.4246635-.34833644-.7676102-.773-.773-.4267128.0004905-.77250955.3462872-.773.773v7.46415c-.00013447.3405247-.19537629.6508538-.50229.79837-1.03377387.4859011-1.69209882 1.5270548-1.68782 2.66932-2e-8 1.0586066.56475984 2.0367994 1.48153999 2.5661026.91678015.5293033 2.04629987.5293033 2.96308002 0 .91678015-.5293032 1.48154-1.507496 1.48153999-2.5661026v-.00001zm7.99293996-2.00572c-.4174397-.2535065-.9613249-.1210178-1.21541.29607l-2.35942 3.87551c-.1642242.2700035-.1719286.6071096-.0202109.8843337.1517178.2772242.439808.4524494.75575.4596701.315942.0072206.6117367-.1546603.7759609-.4246638l2.3594-3.87551c.1222182-.2003567.1596887-.4411111.1041429-.6691347-.0555458-.2280236-.1995422-.4245732-.4002129-.5462753zm4.14855 0c-.4174209-.2536489-.9614155-.1211346-1.21542.29607l-2.3594 3.87551c-.1642243.2700017-.1719296.6071062-.0202134.8843294.1517162.2772233.4398046.4524485.755745.45967.3159405.0072216.6117342-.1546577.7759584-.4246594l2.3594-3.87551c.1222155-.2003574.1596845-.4411109.1041389-.6691337-.0555457-.2280228-.1995403-.4245723-.4002089-.5462763zm-16.85798996 2.05763c-1e-8.6263867.33417326 1.2051918.87663999 1.5183851.54246672.3131933 1.21081329.3131933 1.75328002 0 .54246672-.3131933.87664-.8919984.87663999-1.5183851h-3.50656z" fill="#667bb3" fill-rule="nonzero"/>
</svg>
