<svg xmlns="http://www.w3.org/2000/svg" viewBox="0 0 32 32">
  <path d="M27.0155098 9.96831c-.5143368-.00009694-1.0255425.080019-1.51519.23746-.0705057-4.02650129-2.9483523-7.45475458-6.9017543-8.2217594-3.953402-.76700483-7.9044464 1.33636617-9.47553568 5.0443794-.20559-.01645-.4009-.02468-.59312-.02468C3.81897068 7.0037101 0 10.8226809 0 15.53362c0 4.7109391 3.81897068 8.5299099 8.52990982 8.52991h.01442c1.86313148 4.4093717 6.57538848 6.8950733 11.26661138 5.9431042 4.6912229-.9519691 8.0618131-5.0778872 8.0587986-9.8647242 0-.09252-.001-.185-.00411-.27755 2.5496044-.4413055 4.3375912-2.7601157 4.1161264-5.3381355-.2214647-2.5780199-2.3787315-4.55791312-4.9662464-4.5579145zm.00823 8.39011c-.2237739.0004382-.4368467.0958327-.5862186.262455-.149372.1666223-.2210051.3888131-.1970814.611305.4648906 4.2778981-2.347842 8.2258586-6.542962 9.1837227-4.19512.9578641-8.4426364-1.3780427-9.88054798-5.4337727-.14920947-.3226223-.47519839-.5263683-.83058-.51912-.01954 0-.03907.001-.0586.00206-.13157.00925-.26418.01953-.39781.01953-2.61612417.0198799-5.02184569-1.4308169-6.22513222-3.7538758-1.20328654-2.3230588-1.00032062-5.1249907.52520196-7.2503805C4.35553214 9.35495391 6.94521229 8.2661132 9.53115982 8.66282c.37618805.05202015.73662878-.1693242.86038998-.52836 1.1315661-3.43743968 4.7147221-5.42821361 8.2311595-4.57316889 3.5164373.85504472 5.7854443 4.26881032 5.2123205 7.84203889-.0461598.3121374.0978446.6218064.3662781.7876495.2684335.1658432.6098075.1560498.8682919-.0249095.5691506-.4023039 1.2489203-.6184825 1.9459-.61883 1.8808554-.0022726 3.4074323 1.5206196 3.4097049 3.401475.0022727 1.8808554-1.5206195 3.4074323-3.4014749 3.409705h.00001zm-19.12855998-7.0654c-.6512194-.0000243-1.23832791.3922454-1.48755.993889-.24922208.6016436-.111476 1.2941737.34900566 1.7546553.46048165.4604817 1.15301171.5982278 1.75465534.3490057.60164364-.2492221.99391327-.8363306.993889-1.48755 0-.4269985-.16962451-.8365083-.47155808-1.1384419-.30193357-.3019336-.71144337-.4715581-1.13844192-.4715581zm12.92951998 5.38194c-.8891784 0-1.61.7208216-1.61 1.61 0 .8891784.7208216 1.61 1.61 1.61.8891785 0 1.61-.7208216 1.61-1.61 0-.8891784-.7208215-1.61-1.61-1.61zm-5.81867 4.83007c-.6512194-.0000243-1.2383279.3922454-1.48755.993889-.2492221.6016436-.111476 1.2941737.3490057 1.7546553.4604816.4604817 1.1530117.5982278 1.7546553.3490057.6016437-.2492221.9939133-.8363306.993889-1.48755 0-.8891784-.7208215-1.61-1.61-1.61zm.994-6.1849c0-.8891784-.7208215-1.61-1.61-1.61-.8891784 0-1.61.7208216-1.61 1.61 0 .8891784.7208216 1.61 1.61 1.61.4270083.0000318.8365366-.1695825 1.1384771-.4715229.3019405-.3019405.4715548-.7114688.4715229-1.1384771zm5.61593-3.794c0-.6511842-.3922639-1.2382486-.9938797-1.487446-.6016157-.24919746-1.2941054-.11145269-1.7545622.3490041-.4604568.4604568-.5982015 1.1529465-.3490041 1.7545622.2491974.6016158.8362618.9938797 1.487446.9938797.4270038 0 .8365181-.1696286 1.1384525-.4715687.3019345-.30194.4715555-.7114576.4715475-1.1384613v.00003zm3.302-7.30613c.8891785 0 1.61-.72082155 1.61-1.61 0-.88917845-.7208215-1.61-1.61-1.61-.8891784 0-1.61.72082155-1.61 1.61.000008.42700548.1696456.83651818.4715935 1.13844727.3019478.3019291.711471.4715413 1.1384765.47152273l-.00007.00003zm4.15213 4.3594c.8891785 0 1.61-.72082155 1.61-1.61 0-.88917845-.7208215-1.61-1.61-1.61-.8891784 0-1.61.72082155-1.61 1.61.000008.42699855.1696401.83650519.4715793 1.13843313.3019392.30192794.7114522.47154483 1.1384507.47153687l-.00003.00003zM6.74592982 27.81515c-.88917845 0-1.61.7208216-1.61 1.61 0 .8891784.72082155 1.61 1.61 1.61.88917845 0 1.61-.7208216 1.61-1.61 0-.8891784-.72082155-1.61-1.61-1.61zm-3.81574-21.98516c.88917845 0 1.61-.72082155 1.61-1.61 0-.88917845-.72082155-1.61-1.61-1.61-.88917845 0-1.61.72082155-1.61 1.61 0 .88917845.72082155 1.61 1.61 1.61zm26.13992998 21.341c-.6512112-.0000243-1.238314.3922356-1.4875414.9938682-.2492273.6016326-.1114977 1.2941556.3489653 1.7546443.460463.4604888 1.1529782.5982571 1.7546248.3490633.6016465-.2491937.9939392-.8362746.9939513-1.4874858.0000055-.8891921-.7208079-1.6100369-1.61-1.61007v-.00002z" fill="#667bb3" fill-rule="nonzero"/>
</svg>
