<svg xmlns="http://www.w3.org/2000/svg" viewBox="0 0 32 32">
  <path d="M18.1394802 8.76907809c2.1584238-.42950308 4.3873319-.34892954 6.50911.2353 2.1942479.57765273 4.270381 1.53511511 6.13432 2.82900001.2168602.1636151.5045349.1991082.7546599.0931093.250125-.1059989.4247003-.337386.457965-.607.0332648-.269614-.0798347-.5364942-.2966949-.7001093-.10595-.07983-10.38922-7.67148001-19.733-.62655001a7.15799694 7.15799694 0 0 0-.71344.56968001c-.03564.03-.07154.0552-.10719.08559-.01386.01182-.01955.02859-.03218.04115-1.37332513 1.2914844-2.17507288 3.0772083-2.22767137 4.9616677-.0525985 1.8844594.64829336 3.7121245 1.94744137 5.0782023-2.25827756-.8180243-4.26635107-2.2066878-5.82883001-4.03087-1.49781283-1.7046698-2.68491986-3.658917-3.50733-5.77386-.13809473-.3954904-.57001995-.6048291-.96601694-.4681938-.395997.1366353-.60692708.5677856-.47175306.9642838.03985.11684 3.79174 10.64593 13.83142001 11.5063-2.1672268.4357742-4.40648817.3567031-6.53758001-.23085-2.19424794-.5776527-4.27038102-1.5351151-6.13432-2.829-.33523684-.2529271-.81203791-.1862018-1.064965.149035-.25292708.3352368-.18620184.8120379.149035 1.064965 3.21997545 2.2361521 7.01762242 3.4940126 10.93581001 3.62217 3.1295421.0038284 6.1740953-1.0181321 8.66751-2.90941a7.16760844 7.16760844 0 0 0 .85157-.66442c.03293-.02761.0661-.04908.09878-.077.01485-.01269.021-.03064.03465-.04419 1.3726476-1.2921791 2.173527-3.0782586 2.2252891-4.9627237.0517621-1.8844652-.6498644-3.7118152-1.9495091-5.0773963 2.2592732.8188102 4.2680576 2.2086271 5.83081 4.03416 1.4977895 1.7046571 2.6848762 3.6588873 3.50727 5.77381.1380947.3954904.5700199.6048291.9660169.4681938.395997-.1366353.6069271-.5677856.4717531-.9642838-.04033-.11679-3.7979-10.63729001-13.80293-11.51076001zm1.664 11.17576001c-.28122.23765-.57085.44479-.8595.65657-.6294675.391439-1.3309608.6528367-2.06309.76877-.37157.04084-.73275.05056-1.09541.06516-2.259381-.0814796-4.2466046-1.5174865-5.0331983-3.6370883-.78659373-2.1196019-.2172712-4.5043545 1.4419683-6.0400517.28345-.23975.57556-.44856.86643-.662.6261925-.3887211 1.3234628-.6489792 2.05121-.76562.37455-.04177.73845-.05161 1.10383-.06665 2.2602947.0816744 4.2480523 1.518845 5.0340278 3.6396575.7859756 2.1208125.2148961 4.506291-1.4462678 6.0412625v-.00001z" fill="#667bb3" fill-rule="nonzero"/>
</svg>
