<svg xmlns="http://www.w3.org/2000/svg" viewBox="0 0 32 32">
  <path d="M10.1904714 3.76204601c.0001049-.42081625.3412147-.76193056.762031-.76204099h10.0255333c.2729069-.0009887.5255073.14403792.662247.38021882.1367396.23618089.1367396.52745346 0 .76363435-.1367397.23618089-.3893401.38120751-.662247.38021881H10.9525024c-.4208124-.00011042-.7619206-.34121864-.762031-.76203099zM20.9780357 27.2690867H10.9525024c-.4197831.0015208-.7592803.3422501-.7592803.762036 0 .4197858.3394972.7605151.7592803.762036h10.0255333c.2729069.0009887.5255073-.144038.662247-.3802189.1367396-.2361809.1367396-.5274534 0-.7636343-.1367397-.2361809-.3893401-.3812075-.662247-.3802188zM31.2407198 9.79582317H.75928025C.33949712 9.79734398 0 10.1380733 0 10.5578592c0 .4197858.33949712.7605151.75928025.7620359H31.2407198C31.6605029 11.3183743 32 10.977645 32 10.5578592c0-.4197859-.3394971-.76051522-.7592802-.76203603zm-3.1553124 8.25141833H3.91459262c-.27290689-.0009887-.52550734.1440379-.66224699.3802188-.13673965.2361809-.13673965.5274535 0 .7636344.13673965.2361809.3893401.3812075.66224699.3802188H28.0854074c.2729069.0009887.5255073-.1440379.662247-.3802188.1367396-.2361809.1367396-.5274535 0-.7636344-.1367397-.2361809-.3893401-.3812075-.662247-.3802188z" fill="#667bb3" fill-rule="nonzero"/>
</svg>
