<svg xmlns="http://www.w3.org/2000/svg" viewBox="0 0 32 32">
  <path d="M11.09757 8.80066c.0001159-.44214038.3585096-.80053856.80065-.80066h12.03793c.4410849.00155884.7978304.35956731.7978304.800655 0 .44108769-.3567455.79909616-.7978304.800655H11.89822c-.4421388-.00011592-.8005341-.35851124-.80065-.80065zm7.14332 13.95927H6.204c-.44108493.0015588-.79783041.3595673-.79783041.800655s.35674548.7990962.79783041.800655h12.03689c.4410849-.0015588.7978304-.3595673.7978304-.800655s-.3567455-.7990962-.7978304-.800655zm-4.60167-7.28718c-.0001159-.4421388-.3585112-.8005341-.80065-.80065H.80065c-.44218678 0-.80065.3584632-.80065.80065s.35846322.80065.80065.80065h12.03792c.4421254-.0001104.8005175-.3584846.80065-.80061v-.00004zm17.56013-.80065H19.16143c-.4421868 0-.80065.3584632-.80065.80065s.3584632.80065.80065.80065h12.03792c.4421868 0 .80065-.3584632.80065-.80065s-.3584632-.80065-.80065-.80065z" fill="#667bb3" fill-rule="nonzero"/>
</svg>
