<svg xmlns="http://www.w3.org/2000/svg" viewBox="0 0 32 32">
  <path d="M31.8867672 14.4934118c-.3023329 1.6831414-1.2665068 3.1749486-2.6769607 4.1418973-1.3726701.9120884-2.9888988 1.38814-4.6368148 1.3657492-1.7420819-.0358775-3.4588068-.4245697-5.0464414-1.14259-1.71389-.7319734-3.3137159-1.471875-4.7250847-2.1245164-3.5567105-1.6444558-6.36655099-2.9437501-8.38098253-2.9437501-1.84612865.0638264-3.65160338.5594392-5.27159024 1.4470807-.36207832.2139064-.8290062.0937894-1.04291263-.268289-.21390642-.3620783-.09378938-.8290062.26828893-1.0429126 1.85257188-1.0314515 3.92666856-1.6006732 6.04621394-1.6593423 2.34964524 0 5.29340523 1.3608002 9.02070693 3.0845979 1.4014611.6486624 2.9903795 1.3826154 4.6844239 2.1066606 3.2819731 1.4024508 6.0531524 1.3736873 8.2351858-.0882799 1.0654405-.7428551 1.7944104-1.8764098 2.0282984-3.1540222.2303401-1.1141976-.0012251-2.2741738-.641714-3.2145284-.7777332-.9521142-1.9643515-1.4742481-3.1917536-1.40443038-1.6189644-.12163208-3.1409153.78305618-3.8076434 2.26336488-.1180556.2465569-.359125.4109961-.6317598.4309385-.2726348.0199424-.5350667-.1076672-.6877435-.3344209-.1526768-.2267536-.1722081-.5179121-.0511847-.7630259.9230042-2.00352437 2.9757127-3.2404133 5.1783514-3.12028986 1.7279914-.0956296 3.390708.67292267 4.4374601 2.05111316.877868 1.2749564 1.2003903 2.8517348.8936566 4.3689957zM6.3074088 7.94236274c.17852937-.06545511 4.4305217-1.54229899 6.9031589 1.44411133.1733563.2106852.4461043.31264076.7151538.2673307.2690496-.04531006.4933602-.23097417.5881495-.4868172.0947892-.25584302.0455982-.5428389-.1289805-.75251228-3.1619604-3.81851095-8.3740342-1.98465831-8.59521386-1.90530637-.39407055.1441462-.59742367.5797801-.45486033.97442604.14256334.39464595.57737752.59974596.97259249.45876778zM22.0755601 23.6688535c-1.5117717.4657743-3.1383277.3925092-4.6021026-.2072928a20.56963846 20.56963846 0 0 1-3.115291-1.7228079c-.4929478-.3104493-.9858856-.6208587-1.4877514-.9114925-1.493518-.8280788-3.07729305-1.481693-4.72012572-1.9479667-.40644981-.1095566-.82475569.1311228-.93431233.5375727-.10955664.4064498.13112282.8247557.53757263.9343123 1.51413926.4322317 2.97448562 1.0344693 4.35314922 1.7952114.4869992.2806962.9630709.5812178 1.4401423.8817394a22.08831007 22.08831007 0 0 0 3.3484279 1.8438203c.9883546.4077423 2.047183.6173509 3.1163408.6169196.8370565-.0041428 1.6696244-.1226045 2.4746168-.3520998.2630385-.0726429.4671657-.2803756.5351924-.5446455.0680268-.26427-.0104294-.5447435-.2057009-.7353617-.1952715-.1906182-.4775554-.2622883-.7401081-.1879088h-.00005z" fill="#667bb3" fill-rule="nonzero"/>
</svg>
