<svg xmlns="http://www.w3.org/2000/svg" viewBox="0 0 32 32">
  <path d="M31.8870194 14.4928441c-.3033434 1.6828751-1.267643 3.1743254-2.6777652 4.1416109-1.3724886.9123282-2.988602 1.3886919-4.6365043 1.3666505-1.7418225-.0369479-3.4582086-.4255642-5.0460696-1.1425079-1.712782-.7319228-3.3115031-1.4707838-4.7217925-2.1233669-3.5574602-1.6453393-6.36812148-2.9455468-8.38338612-2.9455468-1.8461994.0604527-3.65199561.5562504-5.27023225 1.44699-.23425637.1394502-.5251807.1430644-.76282904.0094767-.23764836-.1335877-.38577645-.3840036-.38840484-.6566123-.00262838-.2726087.1406438-.5258341.37567221-.6639791 1.85251735-1.0311982 3.92642472-1.6003675 6.04579392-1.6592257 2.35047892 0 5.29502592 1.3617017 9.02307252 3.0863707 1.4013617.6476244 2.9891756 1.3825265 4.6811329 2.1055216 3.2827305 1.4013616 6.0537219 1.3725989 8.2346142-.0892572 1.0656313-.7427206 1.7948868-1.8761754 2.0291311-3.1538035.2295007-1.1142576-.0023685-2.273957-.6426656-3.214308-.7772821-.9519821-1.9634874-1.47410537-3.1905041-1.40434088-1.6187131-.12212538-3.1406861.78218248-3.8074264 2.26225148-.1186979.2448429-.3590015.4077626-.6303907.4273886-.2713891.0196261-.5326335-.1070231-.6853247-.33224-.1526913-.2252169-.173632-.5147857-.0549341-.7596287.9217376-2.00462618 2.9750202-3.24226073 5.1780759-3.12113181 1.7275952-.09562234 3.3899003.67291235 4.4361655 2.05097551.878108 1.2747479 1.2009591 2.8514184.8945712 4.3687128zM6.3084206 7.94224926c.17851435-.06546326 4.4302071-1.54318536 6.9026848 1.44400073.2683887.32425734.7488232.36954783 1.0730806.10115913.3242573-.2683887.3695478-.74882324.1011591-1.07308058-3.1617414-3.81829356-8.37345867-1.9845225-8.59462211-1.90519279-.39454563.14378963-.59835172.57971853-.45567878.97466935.14267294.39495081.57802355.59998927.97337639.45843416v.00001zM22.0754885 23.6676578c-1.5120165.465755-3.1387899.3924972-4.6028229-.207277a20.51124104 20.51124104 0 0 1-3.1131539-1.7226894c-.4938737-.3104206-.9868076-.6208413-1.4886193-.9114369-1.4934138-.8280164-3.07707702-1.4815819-4.71979302-1.9478219-.26325771-.0719102-.54487238.0024235-.73834627.1948905-.19347388.192467-.26927601.47369-.1987404.7373194.07053561.2636293.27664271.4694258.54037812.5395637 1.51404661.4322085 2.97430457 1.034409 4.35288687 1.7951009.4869554.2806683.9630037.5811714 1.4400417.8816746a22.0947778 22.0947778 0 0 0 3.3481938 1.8436885c.9886076.4078017 2.0477086.6173854 3.1171229.6168422.8366793-.0040744 1.6688727-.1225315 2.4734574-.3520799.4039682-.1144842.6392317-.5341538.5261207-.9385085-.1131111-.4043548-.531979-.6410428-.9367157-.5293062l-.00001.00004z" fill="#667bb3" fill-rule="nonzero"/>
</svg>
