<svg xmlns="http://www.w3.org/2000/svg" viewBox="0 0 32 32">
  <path d="M25.0837857 24.1051268c.0013386 3.6265404-2.4692663 6.7871225-5.9888493 7.6613832-3.5195831.8742607-7.1819421-.7628998-8.8777113-3.9685454.2756592.1377625.5792958.2103185.8874572.2120639h.0009998c.3121048-.0021873.6194183-.0769773.897625-.2184525 1.5417903 2.1733902 4.2741828 3.1563912 6.8472002 2.4633373 2.5730175-.6930539 4.4420187-2.9154611 4.6835973-5.5692099.2415785-2.6537487-1.1954017-5.1771091-3.60098-6.3233792-.2642354-.1270031-.4323284-.3941781-.4324461-.6873506V3.84067871c.0024334-.82725935-.4375074-1.59272178-1.1535322-2.0070555-.7160248-.41433372-1.5989068-.41433372-2.3149316 0s-1.1559656 1.17979615-1.1535322 2.0070555V16.3458923a2.00779256 2.00779256 0 0 0-.4899735.2063052l-1.0335055.6242444V3.84067871c-.0022145-1.37140331.728149-2.63958073 1.9154514-3.32592243 1.1873024-.6863417 2.6507588-.6863417 3.8380612 0 1.1873024.6863417 1.9176659 1.95451912 1.9154515 3.32592243V17.2117742c2.4965531 1.3983263 4.0475078 4.0318936 4.0596181 6.8933526zm-7.9060226.4760866c-.5801409.9602081-1.8288026 1.2683764-2.7890741.6883404l-1.2537277-.7572155.0009998 1.4653917c-.0026083.2045058-.0364724.4074105-.1004182.6016793 1.0868138 1.8906176 3.309872 2.8131351 5.4159724 2.2475028 2.1061004-.5656324 3.5678579-2.4777755 3.5612599-4.6584991h-4.6485226a2.01605457 2.01605457 0 0 1-.1864895.4128004zm-6.8373048-2.3213658l.0024795 3.719872c.0005406.4203139.3414302.7607561.7617445.7607447h.0009998c.2020615-.0001482.3957753-.0806187.5384677-.2236842.1426923-.1430656.2226566-.3369889.2222771-.5390501l-.0024795-3.7167626 3.1813089 1.9215226c.2328342.1412319.5233701.147357.7619496.0160633.2385795-.1312937.3888712-.3800125.3941499-.6522813.0052787-.2722689-.1352594-.5266263-.3685705-.6670689l-3.2589621-1.9683225 3.2589621-1.9683224c.2328115-.1406785.3728872-.3948743.3674619-.6668342-.0054254-.27196-.1555276-.520367-.3937645-.6516485-.2382369-.1312815-.5284148-.1254927-.7612264.0151858l-3.1832985 1.9226824-.0025094-3.719902c-.0000901-.2019086-.0804057-.3955072-.2232694-.5381853-.1428637-.1426781-.3365666-.2227418-.5384752-.2225694h-.0009997c-.2020623.0001456-.3957777.0806152-.5384707.2236813-.1426929.1430661-.2226563.336991-.2222741.539053l.0024795 3.7167626-3.18131897-1.9215226c-.35970496-.2148651-.82541843-.0987181-1.04210017.2598955-.21668174.3586136-.10289178.8249086.25462123 1.0434014l3.25896208 1.9683224-3.25896208 1.9683425c-.2337303.1402432-.37465789.3947347-.36950423.6672626.00515366.2725279.15560222.5215094.39446768.6528155.23886546.1313061.52970139.124902.76255548-.0167912l3.18329848-1.9226624z" fill="#667bb3" fill-rule="nonzero"/>
</svg>
