<svg xmlns="http://www.w3.org/2000/svg" viewBox="0 0 32 32">
  <path d="M28.51544 18.0899271h-.89819c-.4746117-.5918005-1.0460007-1.0989685-1.68994-1.5h2.58813c1.0374917.0000386 1.8998883-.79914 1.9786828-1.8336352.0787945-1.0344952-.6526137-1.9550692-1.6781428-2.1121648-.7004323-.1066217-1.2308053-.6886977-1.272-1.396-.1126848-2.06294655-1.4773558-3.84635224-3.4391184-4.49437515-1.9617626-.6480229-4.1202182-.02840063-5.4395416 1.56151512a10.6254514 10.6254514 0 0 0-1.49683-.51611c1.5904167-2.28567327 4.4558751-3.31049528 7.1350859-2.55184062 2.6792108.75865466 4.5819623 3.13365958 4.7379141 5.91384065 1.8011347.2751172 3.0861925 1.8914374 2.9482358 3.7082322-.1379567 1.8167949-1.6523406 3.2205419-3.4743658 3.2205378h.00008zm-5.33447-.42493c2.4015616.3668398 4.1149899 2.5219987 3.931006 4.9444396-.1839839 2.4224408-2.2032484 4.2941025-4.632666 4.2940304H5.40143c-2.98312742 0-5.40143-2.4183026-5.40143-5.40143 0-2.9831275 2.41830258-5.40143 5.40143-5.40143a5.29985456 5.29985456 0 0 1 .59058.033c1.01098923-4.203605 4.9486341-7.03235256 9.2550478-6.64869365 4.3064138.3836589 7.6819864 3.86394185 7.9339522 8.18006365l-.00004.00002zm-1.49756.087c-.208851-3.5736936-3.00385-6.4552231-6.5695173-6.7729035-3.5656673-.3176803-6.82605524 2.0243493-7.6633927 5.5048335-.17636185.7358876-.87349869 1.2249658-1.62548 1.14036a3.80289188 3.80289188 0 0 0-.42359-.02368c-2.15470029 0-3.90143 1.7467297-3.90143 3.90143s1.74672971 3.90143 3.90143 3.90143h17.07788c1.6448405.0000428 3.0120497-1.2670346 3.1368707-2.9071321.124821-1.6400976-1.0348881-3.0994881-2.6607907-3.3483679-.7004134-.1065995-1.2307814-.68865-1.27198-1.39593v-.00004z" fill="#667bb3" fill-rule="nonzero"/>
</svg>
