<svg xmlns="http://www.w3.org/2000/svg" viewBox="0 0 32 32">
  <path d="M31.5356999 14.9660404c-.6140012 1.6665073-1.8118162 3.0536294-3.37109 3.90387a6.74477259 6.74477259 0 0 0-.92676-1.21808c2.8465342-1.4111456 4.0522828-4.8319678 2.71973-7.71613-.9657889-2.09148511-3.0578676-3.43210316-5.36157-3.43573-1.8724353.00161576-3.6324325.89387368-4.74048 2.40326a10.71634226 10.71634226 0 0 0-1.36157-.66c1.3685828-2.02801546 3.6553971-3.24346363 6.102-3.24323 2.4212128-.00079356 4.6895662 1.18332186 6.0731446 3.17027505 1.3835784 1.98695315 1.707238 4.52522055.8665454 6.79579495l.00005-.00003zm-4.41015 7.29147c-.0030257 2.5645813-2.0814185 4.6427548-4.646 4.64551H5.40142989C2.41830251 26.9030203 0 24.4847178 0 21.5015904c0-2.9831274 2.41830251-5.4014299 5.40142989-5.40143a5.30092742 5.30092742 0 0 1 .59082.033c1.01098923-4.203605 4.94863411-7.03235252 9.25504781-6.64869362 4.3064138.3836589 7.6819864 3.86394182 7.9339522 8.18006362 2.2671601.3494635 3.9413978 2.2990464 3.9443 4.59298zm-21.72412001 3.14554H22.4795499c1.6448405.0000428 3.0120497-1.2670345 3.1368707-2.9071321.124821-1.6400975-1.0348882-3.0994881-2.6607907-3.3483679-.7004213-.1065909-1.2307996-.6886436-1.272-1.39593-.208867-3.5736714-3.003849-6.455178-6.5694943-6.7728669-3.5656454-.3176888-6.82602619 2.0243022-7.66339571 5.5047569-.17637879.7358715-.87351083 1.2249293-1.62548 1.14032a3.80733714 3.80733714 0 0 0-.42383-.02368c-2.1547003 0-3.90143 1.7467297-3.90143 3.90143s1.7467297 3.90143 3.90143 3.90143v.00004z" fill="#667bb3" fill-rule="nonzero"/>
</svg>
