<svg xmlns="http://www.w3.org/2000/svg" viewBox="0 0 32 32">
  <path d="M30.6810801 15.99864a7.49779373 7.49779373 0 0 0 1.31889-.12314c-.06164.218-.126.4359-.20563.65077-.7824288 2.1307731-2.3849873 3.8598391-4.45029 4.8016-.12752.05864-.259.10206-.38831.15416-.0455443-.5173961-.155791-1.0270388-.32816-1.517.025-.01117.05116-.01878.07612-.03026 1.1773505-.5370888 2.1820736-1.3911207 2.9018-2.46658-2.4852318-.2970215-4.7349291-1.6144095-6.2099991-3.6364796-1.47507-2.02207-2.0425774-4.56659055-1.5665309-7.0238204a7.10908786 7.10908786 0 0 0-.987.36822c-1.0944187.50278717-2.0399241 1.2805127-2.74438 2.25739a10.01866187 10.01866187 0 0 0-1.41771-.6363c1.5786651-2.37219691 4.2393461-3.79741833 7.08882-3.7972.10007 0 .19714.01816.297.02172-1.2266129 2.31900395-1.1486263 5.1111261.2055173 7.3580471 1.3541436 2.2469209 3.786478 3.6201569 6.4099027 3.6188729h-.00004zm-5.727 6.04275c-.002651 2.3592482-1.9146116 4.271097-4.27386 4.27361h-15.71114c-1.77528132 0-3.41570892-.9471013-4.3033496-2.48454-.88764067-1.5374387-.88764067-3.4316413 0-4.96908.88764068-1.5374387 2.52806828-2.48454 4.3033496-2.48454a4.8781117 4.8781117 0 0 1 .54353.03044c.93001342-3.8671504 4.5524703-6.46950648 8.5141872-6.1165522 3.9617169.3529544 7.067079 3.5547003 7.2988128 7.5253522 2.0856364.321531 3.6258029 2.1150365 3.62847 4.22531zm-1.53326 0c-.0069373-1.3509572-.9915405-2.4979838-2.32585-2.70953-.7159311-.108937-1.258059-.7038738-1.30017-1.42682-.1877084-3.2117304-2.6996165-5.8013989-5.904134-6.0869063-3.2045175-.2855075-6.13468118 1.819298-6.887226 4.9472563-.18032675.7521671-.89289445 1.2520534-1.66153 1.16561a3.34342045 3.34342045 0 0 0-.37283-.02091c-1.22889824-.0020965-2.3653451.6523091-2.98040024 1.7162182-.61505513 1.063909-.61505513 2.3753046 0 3.4392136.61505514 1.0639091 1.751502 1.7183147 2.98040024 1.7162182h15.71114c1.5127973-.0016806 2.7387814-1.2275528 2.7406-2.74035z" fill="#667bb3" fill-rule="nonzero"/>
</svg>
