<svg xmlns="http://www.w3.org/2000/svg" viewBox="0 0 32 32">
  <path d="M31.99979 15.1092059c-.0034446 3.0253785-2.4552213 5.47703-5.4806 5.48032h-8.52116l1.07745-1.76955h7.44371c1.9403432-.0000735 3.553112-1.4948285 3.7003493-3.4295773.1472372-1.9347487-1.2207626-3.6563446-3.1387493-3.9500427-.826275-.1257674-1.4519442-.8124129-1.50055-1.64679001-.2464198-4.21586139-3.5436743-7.61516325-7.7500696-7.98992807C13.6237751 1.428873 9.77750899 4.19172962 8.78967 8.29762589c-.20808625.8681082-1.0304987 1.44504495-1.9176 1.34523a4.49100038 4.49100038 0 0 0-.5-.02793c-1.64593975-.00242614-3.16788988.87427921-3.99156091 2.29930181-.82367104 1.4250227-.82367104 3.1814237 0 4.6064463.82367103 1.4250227 2.34562116 2.301728 3.99156091 2.2993019h7.1796l-1.07717 1.76955H6.37208c-3.51920261 0-6.37208-2.8528774-6.37208-6.37208 0-3.5192026 2.85287739-6.37208001 6.37208-6.37208001a6.25474131 6.25474131 0 0 1 .697.039c1.19271712-4.95893891 5.8379332-8.29595063 10.9181697-7.843351 5.0802365.45259964 9.062386 4.55822568 9.3596903 9.649911 2.6745051.41226841 4.6495198 2.71218841 4.65285 5.41828001zm-23.65309 8.99113c-.20039651-.1220816-.44111233-.1594693-.66909771-.1039234-.22798538.0555459-.42452769.1994663-.54631229.4000434l-2.35941 3.87661c-.25386873.4173892-.1213092.9615513.29608 1.21542.4173892.2538687.96155127.1213092 1.21542-.29608l2.35941-3.87666c.12227851-.2003433.15978133-.4411197.10422723-.6691619-.0555541-.2280421-.19959537-.424592-.40031723-.5462481zm18.44322 0c-.2003932-.1220856-.441107-.1594797-.6690935-.1039415-.2279864.0555382-.4245334.1994504-.5463265.4000215l-2.3594 3.87665c-.2538687.4173864-.1213114.9615463.296075 1.215415.4173864.2538687.9615463.1213114 1.215415-.296075l2.35941-3.87666c.1222794-.2003421.1597837-.4411176.1042316-.6691596-.0555522-.2280421-.1995914-.4245926-.4003116-.5462504zm-8.76713-6.38698c.2538687-.4173892.1213092-.9615513-.29608-1.21542-.4173892-.2538687-.9615513-.1213092-1.21542.29608l-3.84325 6.31325c-.01152.01858-.01152.03982-.02131.0589a1.18432765 1.18432765 0 0 0-.09562.34007c-.00144.02117-.0121.03917-.0121.0607a.84145064.84145064 0 0 0 .01959.09691.86342318.86342318 0 0 0 .03629.17951.82426926.82426926 0 0 0 .06912.14984.8453801.8453801 0 0 0 .093.13832.86456603.86456603 0 0 0 .13364.12327.82907837.82907837 0 0 0 .07344.06789 214.4955251 214.4955251 0 0 0 .15553.06762c.0965763.0382186.1991642.0590105.303.06141l.00057-.00014.00058.00014h4.7983l-3.31676 5.45037c-.2538798.4173837-.1213337.9615502.29605 1.21543.4173837.2538798.9615502.1213337 1.21543-.29605l4.13587-6.79481c.1664396-.2730681.1724685-.6147251.0157666-.8934954-.1567018-.2787702-.4517125-.4512074-.7715066-.4509546h-4.79884l3.02471-4.96884z" fill="#667bb3" fill-rule="nonzero"/>
</svg>
