<svg xmlns="http://www.w3.org/2000/svg" viewBox="0 0 32 32">
  <path d="M31.47456 17.2720504c-.7651867 2.0837101-2.3323089 3.7746191-4.35195 4.69571-.0564.02595-.1153.04367-.17219.06831-.0527602-.520089-.1709854-1.031434-.35187-1.5219 3.3539534-1.6140372 4.7953224-5.6184165 3.23944-8.99974-1.1189269-2.42350908-3.54303-3.97698883-6.21237-3.98118004-2.0922312.00070222-4.0678787.96365791-5.35739 2.61126004a10.04008649 10.04008649 0 0 0-1.419-.66200004c1.565342-2.18532957 4.0882753-3.48191083 6.77639-3.48251 2.7384511-.00080257 5.303978 1.33851279 6.8688196 3.58581911 1.5648416 2.24730633 1.9309198 5.11813913.9801204 7.68623093zm-10.79466 9.66559H4.96906c-2.74433606 0-4.96906-2.224724-4.96906-4.96906 0-2.7443361 2.22472394-4.96906 4.96906-4.96906a4.87902678 4.87902678 0 0 1 .54353.03044c.93007894-3.8670567 4.5524832-6.4693161 8.5141246-6.116369 3.9616413.3529471 7.0669696 3.5545878 7.2987854 7.525159 2.0856481.3215226 3.6258263 2.1150362 3.62849 4.22532-.0027668 2.3592667-1.9148029 4.2710792-4.27409 4.27357zm.41501-6.98311c-.7159301-.1089305-1.2580643-.7038567-1.30019-1.4268-.1877108-3.2117138-2.6996076-5.8013669-5.9041087-6.0868717S7.75596195 14.2601484 7.00342 17.3880904c-.18032663.7521615-.89288989 1.2520434-1.66152 1.1656a3.34705895 3.34705895 0 0 0-.37284-.0209c-1.89754547 0-3.43581 1.5382645-3.43581 3.43581 0 1.8975454 1.53826453 3.43581 3.43581 3.43581H20.6799c1.5128702-.0015814 2.7389736-1.2274701 2.74082-2.74034-.0069123-1.3509701-.9915079-2.4979934-2.32581-2.70954z" fill="#667bb3" fill-rule="nonzero"/>
</svg>
