<svg xmlns="http://www.w3.org/2000/svg" viewBox="0 0 32 32">
  <path d="M14.9184809 6.57419c-.0016854-2.2778875.5556713-4.52138239 1.62317-6.53365-.18642-.00654-.368-.04054-.55544-.04054C10.5377816.00561652 5.46655926 2.78296235 2.52767126 7.37081047-.41121674 11.9586586-.81392165 17.7265676 1.45893088 22.67829 4.07860079 28.3521828 9.75361143 31.9894442 16.0030609 32c6.6883954-.0084141 12.6669213-4.1732341 14.99258-10.44428.14888-.40183.26916-.80922.38434-1.217-4.0797534.7512809-8.2821334-.3538251-11.4645481-3.0148488-3.1824146-2.6610237-5.0140691-6.6013662-4.9969519-10.7496812zm1.08458 23.85681c-7.60588907-.0036512-13.90362566-5.9092602-14.39556195-13.4992247C1.11556265 9.34181087 6.59827838 2.67266303 14.1400609 1.68723c-1.5729813 4.74338627-.771152 9.9536755 2.1552223 14.0046404 2.9263744 4.0509649 7.6208809 6.4492252 12.6182777 6.4462396.04648 0 .093-.00026.13969-.00071-2.3802247 5.0555742-7.4623253 8.2853287-13.05019 8.2936z" fill="#667bb3" fill-rule="nonzero"/>
</svg>
