<svg xmlns="http://www.w3.org/2000/svg" viewBox="0 0 32 32">
  <path d="M23.45161 12.575c-1.3433196-2.90978522-4.2537182-4.77503118-7.45861-4.78015-2.7941078.00283167-5.3947883 1.42712144-6.90191887 3.7799078-1.50713061 2.3527864-1.7135978 5.3107437-.54794113 7.8500922 1.34344816 2.9097184 4.2537356 4.7750076 7.45862 4.78045 2.7944811-.0020616 5.3957807-1.4262451 6.9030833-3.7793639 1.5073027-2.3531188 1.7133416-5.3115992.5467667-7.8509361zM9.94115 18.78258c-1.23154362-2.6865542-.54506682-5.8633877 1.6858656-7.8017411 2.2309324-1.93835337 5.4725052-2.17441943 7.9607294-.5797365 2.4882242 1.594683 3.62772 4.6385408 2.7984002 7.4751765-.8293199 2.8366357-3.4290165 4.7873018-6.3843952 4.7904911-2.6051759-.0007783-4.9717288-1.5174831-6.0606-3.88419zm6.8281 9.07869v3.36948c0 .424845-.344405.76925-.76925.76925s-.76925-.344405-.76925-.76925v-3.36948c0-.424845.344405-.76925.76925-.76925s.76925.344405.76925.76925zm-8.612-4.01853c.14428883.1442252.2253548.3398748.2253548.543885 0 .2040102-.08106597.3996598-.2253548.543885l-2.38287 2.38287c-.19430961.1943096-.47752204.2701962-.74295391.1990739-.26543187-.0711222-.47275776-.2784481-.54388002-.54388-.07112225-.2654319.00476431-.5486443.19907393-.7429539l2.38287-2.38288c.14422521-.1442888.33987476-.2253548.543885-.2253548.20401024 0 .39965979.081066.543885.2253548h-.00001zm-4.01852-7.07349H.76925C.34440496 16.76925 0 16.424845 0 16s.34440496-.76925.76925-.76925h3.36948c.42484504 0 .76925.344405.76925.76925s-.34440496.76925-.76925.76925zm.54789-10.99487c-.19430961-.19430961-.27019616-.47752204-.19907391-.7429539.07112226-.26543187.27844814-.47275775.54388001-.54388001.26543186-.07112225.54864429.0047643.7429539.19907391l2.38288 2.38287c.19466444.19424067.2708192.4776305.19974107.74328362-.07107813.26565312-.27857433.47314932-.54422745.54422745C7.5471205 8.4280792 7.26373067 8.35192444 7.06949 8.15726L4.68662 5.77438zm10.54413-1.63565V.76925C15.23075.34440496 15.575155 0 16 0s.76925.34440496.76925.76925v3.36948c0 .42484504-.344405.76925-.76925.76925s-.76925-.34440496-.76925-.76925zm8.612 4.01853c-.1442888-.14422521-.2253548-.33987476-.2253548-.543885 0-.20401024.081066-.39965979.2253548-.543885l2.38288-2.38287c.1943096-.19430962.477522-.27019617.7429539-.19907392.2654319.07112225.4727578.27844814.54388.54388001.0711223.26543187-.0047643.5486443-.1990739.74295391l-2.38288 2.38288c-.1442252.14428883-.3398748.2253548-.543885.2253548-.2040102 0-.3996598-.08106597-.543885-.2253548h.00001zM32 16c-.0001104.4247993-.3444507.7691396-.76925.76925h-3.37048c-.424845 0-.76925-.344405-.76925-.76925s.344405-.76925.76925-.76925h3.37048c.4247993.0001104.7691396.3444507.76925.76925zm-4.68662 10.22562c.1943096.1943096.2701962.477522.1990739.7429539-.0711222.2654319-.2784481.4727578-.54388.54388-.2654319.0711223-.5486443-.0047643-.7429539-.1990739l-2.38288-2.38287c-.2998209-.300475-.2995558-.7870295.0005923-1.0871777.3001482-.3001481.7867027-.3004132 1.0871777-.0005923l2.38287 2.38288z" fill="#667bb3" fill-rule="nonzero"/>
</svg>
