<svg xmlns="http://www.w3.org/2000/svg" viewBox="0 0 32 32">
  <path d="M30.26379 19.4764a9.86124424 9.86124424 0 0 0 1.736-.16216c-.08105.287-.16579.57375-.27049.85655-1.6196971 4.3777703-5.7748287 7.3003263-10.44241 7.34478.38269-.4680389.6861029-.9956216.89818-1.56178 3.1677091-.3333668 5.9735281-2.1913065 7.517-4.97756-3.4286789-.167612-6.5975229-1.8772125-8.6203287-4.6506921-2.0228057-2.7734797-2.6824484-6.3131376-1.7944513-9.6290679-3.1448381.62291517-5.7804344 2.75613203-7.045 5.70213a8.6266114 8.6266114 0 0 0-1.29209-.10316c-.10716 0-.20989.01928-.31607.02316C12.2740601 7.92085252 16.4721262 5.00352909 21.16569 5c.132 0 .25965.02383.391.02851-1.6143854 3.0522699-1.5117176 6.7272043.2705613 9.6845805 1.782279 2.9573761 4.9836284 4.7648731 8.4365387 4.7633095zm-13.25175 8.045H4.08767C1.8301122 27.5214 0 25.6912878 0 23.43373s1.8301122-4.08767 4.08767-4.08767a4.02144587 4.02144587 0 0 1 .44688.025c.76516404-3.1811619 3.74508934-5.3218412 7.0040715-5.0314922 3.2589822.290349 5.8135436 2.9241065 6.0042885 6.1904322 1.8174304.2776015 3.1141178 1.9085423 2.9749155 3.7417741-.1392024 1.8332318-1.6672863 3.24968-3.5057955 3.2496759l.00001-.00005zM4.08767 20.85964c-.92085123-.001815-1.77253046.4884112-2.23348081 1.2855907-.46095035.7971794-.46095035 1.7798692 0 2.5770486.46095035.7971795 1.31262958 1.2874057 2.23348081 1.2855907h12.92436c1.0468482-.0000465 1.9169777-.8064603 1.9964785-1.8502853.0795009-1.0438251-.6584624-1.9727161-1.6932285-2.1313047-.7067428-.1075276-1.241918-.6948239-1.28349-1.40849-.1472591-2.517201-2.1160396-4.5467839-4.627599-4.7705144-2.51155944-.2237305-4.80808522 1.4258976-5.397961 3.8774344-.1777444.7424553-.88104637 1.2359578-1.63969 1.15056a2.52056211 2.52056211 0 0 0-.27887-.01563z" fill="#667bb3" fill-rule="nonzero"/>
</svg>
