<svg xmlns="http://www.w3.org/2000/svg" viewBox="0 0 32 32">
  <path d="M13.6937164 27.3973707c.0000041.7296403-.4395181 1.3874376-1.113617 1.6666607-.674099.2792231-1.4500219.1248836-1.9659555-.39105-.5159336-.5159336-.67027316-1.2918565-.39105-1.9659555.2792231-.674099.9370204-1.1136211 1.6666607-1.1136171.4784412-.0000026.9372875.1900563 1.2755966.5283653.338309.338309.5283679.7971553.5283652 1.2755966zm12.8713237 0c.000004.7296403-.4395181 1.3874376-1.1136171 1.6666607-.674099.2792231-1.4500218.1248836-1.9659554-.39105-.5159337-.5159336-.6702732-1.2918565-.3910501-1.9659555.2792232-.674099.9370205-1.1136211 1.6666608-1.1136171.4784464-.0000106.9373004.1900448 1.2756159.5283547.3383156.3383099.5283786.7971607.5283759 1.2756072h-.00003zM32 16.1054634c-.0034162 3.0246536-2.4546153 5.475723-5.4792691 5.4789792H6.37851324c-2.27787122.0028536-4.38393296-1.2107377-5.52369312-3.1829578-1.13976016-1.9722201-1.13976016-4.4029196 0-6.3751397 1.13976016-1.9722201 3.2458219-3.1858114 5.52369312-3.18295783a6.25561268 6.25561268 0 0 1 .69683075.03899053C8.26780904 3.92466389 12.9119039.58849998 17.9908936 1.04100857c5.0789897.4525086 9.0601534 4.55713314 9.3573863 9.64757053 2.6738323.4121518 4.648364 2.7114754 4.6517201 5.4168843zm-1.7691203 0c-.0093272-1.8288805-1.3423164-3.3816778-3.1486852-3.6678991-.8260762-.1257333-1.4515954-.812214-1.5001856-1.6463901-.2463647-4.21482479-3.5428012-7.61329305-7.748161-7.98798314-4.2053597-.37469009-8.05069631 2.38745886-9.03833173 6.49233639-.20803148.86790145-1.03024543 1.44470315-1.91713434 1.34491335a4.4875303 4.4875303 0 0 0-.49987859-.0279332c-1.64554006-.0024256-3.1671206.8740669-3.99059163 2.2987435-.82347102 1.4246766-.82347102 3.1806511 0 4.6053277.82347103 1.4246766 2.34505157 2.301169 3.99059163 2.2987435H26.5207309c2.0480251-.0022203 3.7077685-1.661834 3.7101488-3.7098589zm-10.2660465 8.5988514c-.2003275-.1221188-.4410021-.1595406-.6689513-.1040134-.2279492.0555273-.4244509.199443-.5461735.4000115l-2.3588271 3.8745689c-.2538071.4172851-.121282.9613128.2960031 1.2151199.4172851.253807.9613128.1212819 1.2151199-.2960032l2.358847-3.8745689c.1221841-.2003112.1596409-.441008.1041049-.6689757-.0555359-.2279677-.1994998-.424468-.400123-.5461391zm-12.87221341 0c-.20034401-.1220541-.44099757-.1594391-.66892775-.1039165-.22793019.0555226-.42443014.1993959-.5461971.3999146l-2.35882707 3.8745689c-.1641844.2699361-.17188784.6069587-.02020851.8841146.15167934.277156.43969776.4523386.7555615.4595584.31586374.0072198.61158559-.1546201.77576998-.4245563l2.35882706-3.8745689c.12218575-.2003087.15964567-.4410038.10411353-.6689712-.05553214-.2279674-.19949181-.4244692-.40011164-.5461436z" fill="#667bb3" fill-rule="nonzero"/>
</svg>
