<svg xmlns="http://www.w3.org/2000/svg" viewBox="0 0 32 32">
  <path d="M28.16602 18.1996155c-1.9556845 5.2782744-6.9792698 8.7907276-12.6081478 8.8155223-.0080829-.5915098-.1036987-1.1785636-.2837373-1.7420663.0787354.0016197.1549712.0169968.2336766.0169968 4.012052-.0034418 7.7465526-2.0484391 9.9104468-5.4269203 2.1638942-3.3784812 2.4596775-7.6259534.7849363-11.27174758-1.9287506-4.17820261-6.1078291-6.85650183-10.7097205-6.86367493-4.307529-.01383186-8.27733728 2.33039241-10.34534386 6.1090624-2.06800658 3.77867001-1.90267092 8.38599341.43086572 12.00671221v2.6290616c-.0317741.027135-.05932898.0583492-.09054318.086054-3.56698375-3.9437968-4.48691606-9.6139951-2.34975777-14.48323129C5.27585331 3.20614823 10.0720374.04481277 15.389456.00047231c5.3174186-.04434045 10.1656551 3.0365729 12.3837169 7.86949213 1.5054349 3.25252376 1.6468972 6.97218126.3928471 10.32965106zm-13.7560346 8.8855493c.0026068 2.3360285-1.6413607 4.3502951-3.9305263 4.8158665-2.28916554.4655714-4.58931493-.7465393-5.49937728-2.898009-.91006235-2.1514698-.17790455-4.6462332 1.75050021-5.9646757v-6.6269689c.00290285-1.5280943 1.24248327-2.7653222 2.7705803-2.7653222 1.52809707 0 2.76767747 1.2372279 2.77058027 2.7653222v6.6269689c1.3328512.9170055 2.1317345 2.4289459 2.1382428 4.0467682v.00005zm-3.2901088-3.3865708v-7.2872163c0-.8940161-.7247432-1.6187593-1.61875926-1.6187593s-1.61875928.7247432-1.61875928 1.6187593v7.2872163c-1.58394799.7562538-2.43319603 2.5084446-2.04549275 4.2203141.38770328 1.7118695 1.90902808 2.9271742 3.66425203 2.9271742 1.75522396 0 3.27654876-1.2153047 3.66425206-2.9271742.3877033-1.7118695-.4615448-3.4640603-2.0454928-4.2203141zm-.398186.8310256c-.3197945-.1532566-.5232909-.4764046-.5233228-.8310256v-7.2872163c0-.3850808-.31216966-.6972505-.69725046-.6972505s-.69725047.3121697-.69725047.6972505v7.2872163c-.00003192.354621-.20352828.677769-.52332278.8310256-1.1959159.5703311-1.83744435 1.8928177-1.54507158 3.1851066.29237277 1.2922889 1.44069487 2.2098323 2.76564483 2.2098323 1.32494996 0 2.47327206-.9175434 2.76564486-2.2098323.2923727-1.2922889-.3491557-2.6147755-1.5450716-3.1851066z" fill="#667bb3" fill-rule="nonzero"/>
</svg>
