<svg xmlns="http://www.w3.org/2000/svg" viewBox="0 0 32 32">
  <path d="M7.46490995 24.9748414l-4.05248 6.65865c-.13835452.2275697-.38550342.3663693-.65183.36607-.27504433-.0005054-.52847109-.1491937-.66309018-.3890422-.13461908-.2398486-.12953588-.53363.01330018-.7686778l4.05253-6.65866c.14141643-.2325031.39612954-.3719001.66819134-.3656814.27206181.0062187.52013966.1571082.65078502.39583.13064536.2387218.1240101.5290083-.01740636.7615114zm-.05456-24.86380003c-.17258219-.10506714-.3798494-.13722788-.57615571-.08939953-.19630631.04782835-.36555191.17172321-.47046429.34439953l-4.05352 6.65861c-.14141644.23250309-.14805169.52278957-.01740633.76151134.13064536.23872177.3787232.38961132.650785.39583.2720618.00621869.52677489-.13317825.66819133-.36568134l4.05353-6.65866c.10524001-.17253252.13750326-.3798499.0896703-.57620402-.04783295-.19635412-.17183044-.36560551-.3446303-.47040598zM30.5331 22.3835614c-.1725822-.1050672-.3798495-.1372279-.5761558-.0893996-.1963063.0478284-.3655519.1717233-.4704642.3443996l-4.05253 6.65865c-.2186109.3594186-.1044637.8280041.254955 1.046615.3594186.2186108.8280041.1044636 1.046615-.254955l4.05253-6.65866c.105313-.1725196.1376188-.379865.0897829-.5762462-.0478358-.1963812-.1718779-.3656423-.3447329-.4704038zm-7.609-7.93146H10.70148l7.48355-12.29446003c.1414164-.23250845.1480488-.52279988.0173988-.76152433-.13065-.23872446-.3787336-.389614-.6508-.39583-.2720665-.00621601-.5267824.13318588-.6681988.36569433L8.69505995 14.8182114c-.00993.016-.00993.03429-.01836.05072a1.02061934 1.02061934 0 0 0-.08234.29284c-.00124.01823-.01041.03373-.01041.05227a.72709643.72709643 0 0 0 .01686.08346.7434802.7434802 0 0 0 .03125.15457.71041034.71041034 0 0 0 .05952.129.7285946.7285946 0 0 0 .08011.11911.74491294.74491294 0 0 0 .11508.10615.71672547.71672547 0 0 0 .06324.05847 425.7193842 425.7193842 0 0 0 .13393.05822c.08315932.0329159.17149714.0508232.26091.05289l.0005-.00013.00049.00013H21.56792l-8.108 13.32127c-.2186109.3594186-.1044637.8280041.254955 1.046615.3594186.2186108.8280041.1044636 1.046615-.254955l8.81339-14.479c.1433205-.2351442.1485104-.529349.0135726-.7694018-.1349378-.2400527-.3889738-.3885422-.6643526-.3883282v-.00001z" fill="#667bb3" fill-rule="nonzero"/>
</svg>
