<svg xmlns="http://www.w3.org/2000/svg" viewBox="0 0 32 32">
  <path d="M32 15.1054989c-.0034162 3.0246536-2.4546153 5.475723-5.4792691 5.4789792h-8.5190908l1.0766185-1.7691203h7.4424723c1.9398758-.0000631 3.5522629-1.4944521 3.6994699-3.4287345.147207-1.9342824-1.2204615-3.6554661-3.1379863-3.9490935-.8260628-.1256778-1.4515939-.8121258-1.5001856-1.64628012-.2464248-4.21486881-3.5429198-7.6133436-7.7483277-7.98802856-4.2054079-.37468496-8.05079088 2.38747717-9.03847496 6.49239184-.20804828.86787983-1.03025301 1.4446567-1.91712434 1.34486334a4.48268248 4.48268248 0 0 0-.49958866-.02793321c-1.64554006-.00242555-3.16712061.87406691-3.99059163 2.29874351-.82347103 1.4246766-.82347103 3.1806511 0 4.6053277.82347102 1.4246766 2.34505157 2.3011691 3.99059163 2.2987435h7.17785656l-1.0769084 1.7691203H6.37851324c-2.27787122.0028536-4.38393296-1.2107377-5.52369312-3.1829578-1.13976016-1.9722201-1.13976016-4.4029196 0-6.3751397 1.13976016-1.97222012 3.2458219-3.18581138 5.52369312-3.18295781a6.25029188 6.25029188 0 0 1 .69654082.03894055C8.26759616 2.92464445 12.9117232-.41149613 17.9907362.04100807c5.0790131.4525042 9.0602229 4.55710141 9.3575437 9.64755655C30.0220741 10.1008217 31.9965588 12.4001118 32 15.1054989zM8.35265374 24.0947755c-.20036015-.1219881-.44099204-.1593346-.66890173-.1038147-.22790969.05552-.42440537.1993529-.54621313.3998228l-2.35883706 3.8745889c-.16418262.2699379-.17188345.6069612-.02020167.8841164.15168178.2771553.4397021.4523361.75556649.4595534.31586439.0072174.61158554-.1546252.77576814-.4245631l2.35882706-3.8745589c.12219173-.2003132.15965397-.4410155.10411972-.6689895-.05553426-.227974-.19950013-.4244806-.40012782-.5461553zm18.43874136 0c-.2003287-.1221179-.4410042-.1595382-.6689536-.1040091-.2279493.0555292-.4244503.199447-.5461712.4000172l-2.3588271 3.8745689c-.1650388.2699711-.1732609.6075477-.0215609.8852334.1517.2776857.4402028.4531611.7565466.4601525.3163437.0069914.6123173-.1555666.7761373-.4262792l2.358837-3.8745589c.1221827-.2003122.1596398-.4410088.104106-.6689772-.0555338-.2279684-.199494-.4244711-.4001141-.5461476zm-8.765001-6.3865588c.253807-.4172878.1212797-.9613177-.2960081-1.2151248-.4172879-.2538071-.9613178-.1212798-1.2151249.2960081l-3.8423067 6.3129166c-.0115172.0185755-.0115172.0398103-.0213048.0588857a.85015647.85015647 0 0 0-.0601854.1653498.88096151.88096151 0 0 0-.0354114.1746376c-.0014397.0211649-.0120971.0391605-.0120971.0606853a.83846547.83846547 0 0 0 .0195853.0967465.87058711.87058711 0 0 0 .0362811.1804762c.0529949.1642398.1562315.3076891.2951384.4101003a.79537606.79537606 0 0 0 .073982.0682435c.0518243.0225459.1036551.0450771.1554922.0675935.0965509.0382173.1991147.0590076.3029264.0614051l.0005699-.0001499.0005799.0001499h4.7971348l-3.3170943 5.4489865c-.1641844.2699361-.1718879.6069587-.0202086.8841147.1516794.2771559.4396978.4523386.7555616.4595584.3158637.0072198.6115855-.1546202.7757699-.4245563l4.1359954-6.79316c.1663992-.2730018.1724267-.6145759.0157629-.8932784-.1566639-.2787026-.4516029-.4510979-.7713194-.4508451h-4.7979846l3.0242655-4.9687432z" fill="#667bb3" fill-rule="nonzero"/>
</svg>
