<svg xmlns="http://www.w3.org/2000/svg" viewBox="0 0 32 32">
  <path d="M32 10.8624057c-.0022427 1.9748503-1.6026831 3.5751878-3.5775335 3.5773036h-8.8227623a8.70345241 8.70345241 0 0 0-.5838064-1.5401102h9.4065687c1.0651729-.000018 1.9505661-.8205034 2.0315253-1.8825952.0809592-1.06209182-.669842-2.00729816-1.7227054-2.16876603-.7191368-.10945078-1.2636804-.70706348-1.3059758-1.43325096-.1498953-2.5613143-2.1531871-4.62644468-4.7087625-4.85411499-2.5555755-.22767031-4.892377 1.45081119-5.4926814 3.94529192-.1808795.75546746-.8964965 1.25762624-1.6684452 1.17077207a2.56439986 2.56439986 0 0 0-.2840047-.0159169c-.6418809.00215114-1.2602432.241843-1.735882.672869a8.72084278 8.72084278 0 0 0-1.7504093-.3071902c.7631279-1.18601402 2.0760061-1.90368817 3.4863213-1.90576897a4.09420091 4.09420091 0 0 1 .4549614.02544505c.7786464-3.23689088 3.8108083-5.41504036 7.1269005-5.11959937 3.3160922.29544098 5.9154373 2.97531898 6.1095926 6.29887978C30.7086587 7.594773 31.997825 9.0960283 32 10.8624057zM17.8570534 16.377892c1.8492314.2826153 3.1685181 1.9421797 3.026815 3.8075077-.1417031 1.8653279-1.6965472 3.3065536-3.5672498 3.3065772H4.16581892c-1.48753411.0023063-2.8630601-.7899594-3.60749371-2.0778188-.74443361-1.2878593-.74443361-2.8752335 0-4.1630928s2.1199596-2.0801251 3.60749371-2.0778188a4.07636693 4.07636693 0 0 1 .45471147.025445c.77859574-3.2369333 3.81076357-5.41514205 7.12688691-5.119719 3.3161233.2954231 5.915497 2.9753282 6.1096361 6.2989195zm-6.7083739-4.7853184c-2.38573988.0181197-4.45608768 1.6502547-5.03064065 3.9658479-.18096589.7557436-.89699406 1.2579651-1.66919503 1.1707721a2.53199142 2.53199142 0 0 0-.28300491-.0158569c-.93699222-.0018307-1.80359304.4969977-2.27261841 1.308153-.46902537.8111553-.46902537 1.8110687 0 2.622224.46902537.8111554 1.33562619 1.3099837 2.27261841 1.3081531H17.3166186c1.0651887-.0000192 1.9505939-.8205177 2.0315532-1.8826253.0809592-1.0621075-.6698541-2.0073269-1.7227333-2.168796-.719129-.1094317-1.2636779-.7070247-1.3059857-1.4332009-.162581-2.736954-2.428995-4.8736003-5.1707733-4.874711v.00004zm.0744455 14.9513392c-.174406-.1062461-.3838996-.1387872-.5823169-.0904525-.1984173.0483347-.3694745.1735784-.4754772.3481323l-2.05350021 3.3740331c-.22095097.3632664-.10558154.8368681.25768483 1.0578191.36326637.220951.83686809.1055815 1.05781906-.2576848l2.05348022-3.3739932c.1064369-.1743682.1390855-.3839334.0907357-.5824161-.0483497-.1984828-.1737203-.369555-.3484255-.4754379zm5.0775314 0c-.1744196-.1061922-.3838958-.1387027-.5822972-.0903719-.1984015.0483309-.3694571.1735393-.4754968.3480517l-2.0535002 3.3740331c-.1429303.234994-.1496355.5283897-.0175899.7696678.1320456.2412782.3827812.3937829.657757.4000672.2749758.0062842.5324165-.1346068.6753468-.3696007l2.0534702-3.3739932c.1064369-.1743682.1390855-.3839334.0907357-.5824161-.0483497-.1984828-.1737203-.369555-.3484256-.4754379zm6.6369379-6.4315179c.0069987.0045691.010528.0119977.0177966.0164168.1200844.0735976.2582189.1124694.3990623.1122981.2691608.0002858.5189338-.1399971.6587617-.3699879l2.0534702-3.3739932c.1429302-.2349921.1496364-.5283861.0175923-.7696634-.132044-.2412773-.3827776-.393782-.6577519-.4000671-.2749743-.0062851-.532414.1346042-.6753443.3695963l-1.9196262 3.153846-.133854.2201471c-.2153782.3548131-.1090044.816613.2398933 1.0414473v-.00004zm6.7828295-4.6730902c-.3632694-.2208724-.836805-.1055186-1.0577941.2576798l-2.0534802 3.3739932c-.1429302.2349921-.1496364.5283861-.0175923.7696634.132044.2412773.3827777.393782.657752.4000671.2749742.0062852.532414-.1346042.6753442-.3695963l2.0534802-3.3739932c.1064083-.1743605.1390407-.3839041.0906921-.582365-.0483485-.198461-.1737015-.3695166-.3483819-.475399l-.00002-.00005zM6.14559348 26.5439128c-.17440595-.1062461-.3838996-.1387872-.5823169-.0904525-.1984173.0483347-.36947441.1735784-.47547716.3481323l-2.05350021 3.3740331c-.14293022.2349922-.14963638.5283862-.01759232.7696635.13204405.2412773.38277768.393782.65775195.4000671.27497427.0062851.53241405-.1346042.67534426-.3695963l2.05348022-3.3739932c.10643694-.1743682.1390855-.3839334.09073574-.5824161-.04834976-.1984828-.17372035-.369555-.34842558-.4754379z" fill="#667bb3" fill-rule="nonzero"/>
</svg>
