<svg xmlns="http://www.w3.org/2000/svg" viewBox="0 0 32 32">
  <path d="M8.50550347 24.1749081c-.00003867.9967828-.80811922 1.8048052-1.80490204 1.804772-.99678283-.0000331-1.80480964-.8081092-1.80478202-1.804892.00002762-.9967828.80809921-1.8048141 1.80488204-1.804792.99679387.0000331 1.80482964.8081181 1.80480202 1.804912zm18.44820603 5.4662885c.0000041.7299923-.4397301 1.3881069-1.1141543 1.6674647-.6744241.2793578-1.4507213.1249438-1.9669038-.3912387s-.6705964-1.2924796-.3912386-1.9669038c.2793578-.6744241.9374724-1.1141583 1.6674647-1.1141542.9967743.0000165 1.8048154.8080577 1.804832 1.804832zm.3918438-19.947775C27.0482609 4.60044662 23.0651326.49374019 17.9836145.04102499c-5.081518-.4527152-9.72789031 2.88518434-10.92082638 7.84539406a6.2545677 6.2545677 0 0 0-.69716688-.03900933C2.84869649 7.85181549 0 10.7040829 0 14.2210104s2.84869649 6.3691949 6.36562124 6.3736007h6.10474136l1.0774279-1.7699737H6.36562124c-2.53601042-.0091565-4.58701023-2.0675751-4.58701023-4.603602 0-2.5360269 2.05099981-4.59444547 4.58701023-4.60360199a4.48997533 4.48997533 0 0 1 .50011971.02794669c.88731468.09978761 1.70989916-.47729427 1.91804914-1.3456021.98804837-4.10691238 4.83525211-6.87046631 9.04268021-6.49560991 4.2074281.37485639 7.5054828 3.77500962 7.75193 7.99190809.0486128.83458072.674433 1.52139602 1.5009093 1.64719432 1.9185601.2936469 3.2870278 2.0157111 3.1397429 3.951017-.1472849 1.9353058-1.7605952 3.4304442-3.7014974 3.4303699H19.072933l-1.0777179 1.7699737h8.52234c2.8666808.0000946 5.2493914-2.2084386 5.4664901-5.066887.2170987-2.8584483-1.8047293-5.4015056-4.6385419-5.83436251l.00005.00004001zm-9.3255623 8.0243508c.1642636-.2700663.1719708-.6072515.0202183-.8845411-.1517525-.2772896-.4399099-.4525568-.755926-.4597801-.3160161-.0072232-.6118806.1546948-.7761442.4247611l-3.8441702 6.3147516c-.0115228.0185845-.0115228.0398295-.0213151.0589141a1.18461548 1.18461548 0 0 0-.0956429.3401514c-.0014403.0211751-.0121029.0391794-.0121029.0607146a.84434088.84434088 0 0 0 .0195847.0969432.86496366.86496366 0 0 0 .0362987.1795429.82519205.82519205 0 0 0 .0691465.1498759.84620513.84620513 0 0 0 .0930223.1383531.86569459.86569459 0 0 0 .133672.1232996.83241109.83241109 0 0 0 .0734676.0679162c.051847.0225544.1036994.0450965.1555572.0676262.096598.0382339.199211.0590341.3030726.0614347l.0005801-.00015.0005802.00015h4.7982885l-3.3175141 5.451665c-.2539295.4174891-.1213382.9617815.2961509 1.215711.4174891.2539295.9617815.1213383 1.215711-.2961509l4.1368603-6.7964369c.1664804-.273135.1725098-.614876.015768-.8937137-.1567419-.2788376-.4518265-.4513147-.771699-.4510582h-4.7988987l3.0254342-4.9699797z" fill="#667bb3" fill-rule="nonzero"/>
</svg>
