<svg xmlns="http://www.w3.org/2000/svg" viewBox="0 0 32 32">
  <path d="M27.3455434 10.6932669c-.2973767-5.09290037-4.2804667-9.19951095-9.3619138-9.65223849C12.9021824.58830087 8.25584052 3.92607899 7.06279849 8.88619169a6.2714114 6.2714114 0 0 0-.69716791-.03895938C2.84870068 8.8516381 0 11.7039097 0 15.2208423c0 3.5169327 2.84870068 6.3692043 6.36563058 6.3736101H26.517584c2.8666641.0000962 5.249362-2.2084228 5.466461-5.0668544.2170991-2.8584316-1.8047157-5.4014751-4.6385116-5.8343311h.00001zM1.76207185 15.2209874c.00286614-2.5413228 2.06223609-4.6007912 4.60355873-4.6037788a4.49110179 4.49110179 0 0 1 .50039052.0280067 1.78948584 1.78948584 0 0 0 .19820773.0110027c.81771693-.0007323 1.52851365-.5614735 1.71957415-1.35655672.98804983-4.10691841 4.83525912-6.8704764 9.04269352-6.49561945 4.2074343.37485694 7.5054938 3.77501516 7.7519413 7.99191977.0486138.8345798.6744356 1.5213927 1.5009115 1.6471868 1.9185723.2936153 3.2870627 2.0156794 3.1397759 3.9509924-.1472868 1.9353129-1.7606217 3.4304454-3.7015312 3.4303353H6.36563058c-2.54124605-.0028993-4.60062078-2.0622427-4.60355873-4.6034887zM12.4686504 25.9312469l-2.3599783 3.8775939c-.16069652.2643183-.44774846.42554-.75708237.4252124-.31948635-.0005802-.61386459-.1732914-.77023474-.4518955-.15637016-.2786041-.15046032-.6198558.01546296-.8928784l2.35996835-3.8775939c.2539299-.4174897.7982231-.5500812 1.2157128-.2961513.4174897.2539299.5500812.798223.2961513 1.2157128zm10.9263916 0l-2.3599684 3.8775939c-.1606965.2643183-.4477484.42554-.7570823.4252124-.3194882-.0005766-.6138697-.1732864-.7702423-.4518911-.1563726-.2786048-.1504637-.6198587.0154605-.8928828l2.3599784-3.8775939c.2539299-.417487.7982208-.5500762 1.2157078-.2961463.4174869.2539299.5500762.7982208.2961463 1.2157078zm-5.4631958 0l-2.3599984 3.8775939c-.1606904.2643197-.4477404.4255424-.7570723.4252124-.3194881-.0005766-.6138697-.1732864-.7702423-.4518911-.1563726-.2786048-.1504637-.6198587.0154605-.8928828l2.3600584-3.8775939c.1642638-.2700667.4601288-.431985.7761453-.4247617.3160166.0072233.6041744.1824907.7559271.4597808.1517527.27729.1440456.6144756-.0202183.8845424h-.00006zm10.9264016 0l-2.3599784 3.8775939c-.1606965.2643183-.4477485.42554-.7570824.4252124-.3194863-.0005802-.6138646-.1732914-.7702347-.4518955-.1563702-.2786041-.1504603-.6198558.015463-.8928784l2.3599683-3.8775939c.2539299-.4174898.7982231-.5500812 1.2157128-.2961513.4174898.2539299.5500812.798223.2961514 1.2157128zm-21.8539534 0l-2.35996838 3.8775939c-.16069649.2643183-.44774843.42554-.75708234.4252124-.31948813-.0005766-.61386967-.1732864-.77024228-.4518911-.1563726-.2786048-.1504637-.6198587.0154605-.8928828l2.35995838-3.8775939c.25392989-.417487.7982208-.5500762 1.21570778-.2961463.41748697.2539299.5500762.7982208.29614634 1.2157078h.00002z" fill="#667bb3" fill-rule="nonzero"/>
</svg>
