<svg xmlns="http://www.w3.org/2000/svg" viewBox="0 0 32 32">
  <path d="M21.2548129 13.4438595h-1.6588803a8.70673686 8.70673686 0 0 0-.5842264-1.5405668h2.5530684c-.0188137.0280056-.0426285.0508402-.060182.080016-.2636095.4382495-.3527707.9596062-.2497797 1.4605508zm-7.7248583-6.10766622c.4757721-.4311246 1.0942999-.67086116 1.7363458-.67299402a2.56509201 2.56509201 0 0 1 .2840566.01585316c.7722178.08689014 1.4880733-.41548415 1.6689423-1.17123323.6004319-2.49529965 2.9379823-4.17435113 5.4943786-3.94658627 2.5563963.22776487 4.5602901 2.29362198 4.7101235 4.85576731.042311.7264468.5870936 1.32425048 1.3065001 1.43365549.8992884.13770332 1.5982984.85493656 1.7128172 1.75747038.1145187.9025338-.3832103 1.7716163-1.219609 2.1295537.3542697.3999593.5248646.9299968.4703937 1.461511 1.5187015-.575553 2.4578965-2.1032618 2.2858694-3.71822999-.172027-1.61496819-1.4119605-2.91055535-3.0178251-3.15327836-.1941518-3.3246059-2.7942891-6.00535817-6.1114197-6.30089863-3.3171305-.29554047-6.3502359 1.88331683-7.129077 5.12123372a4.09497418 4.09497418 0 0 0-.4550906-.02538506c-1.4106417.00209337-2.7238135.71995944-3.4870844 1.9062696a8.7315483 8.7315483 0 0 1 1.7506786.3072912zm7.3577852 11.58314662c.000363-1.7666321-1.2888066-3.2690566-3.0349944-3.5370444l-.0032606-.0008201c-.0387978-.662576-.1763006-1.3156468-.4079612-1.9376159h.0027605c-.2036043-.546815-.4777175-1.0647127-.8153924-1.5405668h-.0025105c-1.518339-2.15725273-4.1594524-3.22520578-6.75049008-2.72960882-2.59103771.49559697-4.65159547 2.46285532-5.2666329 5.02816662a4.09504633 4.09504633 0 0 0-.45509063-.0254451C1.85884303 14.1799642 0 16.0416916 0 18.3370189c0 2.2953273 1.85884303 4.1570547 4.15416759 4.1606135h5.98850251c-.1027939-.5009621-.0135694-1.0222612.2499798-1.4605208.0175535-.0292058.0413782-.0520104.060182-.0800159H4.15415759c-1.44210361-.0069019-2.60751246-1.1779016-2.60751246-2.6200218 0-1.4421201 1.16540885-2.6131199 2.60751246-2.6200217a2.56491164 2.56491164 0 0 1 .28405657.0159232c.77221784.0868901 1.48807331-.4154842 1.66894234-1.1712333.60041124-2.4952492 2.93791358-4.1742679 5.4942557-3.9465023 2.5563421.2277656 4.5601854 2.2935907 4.7099963 4.8556834.0423068.7264192.5870084 1.324231 1.3063701 1.4337455.8993347.1374821 1.5985028.8546012 1.7131469 1.7571315.1146441.9025302-.3830281 1.7716782-1.2194285 2.1296425.3540804.4001055.5247256.9300431.4706437 1.461581 1.3850006-.5262103 2.3019904-1.8520931 2.3055991-3.3336838zm-3.9516869 5.1708797l-1.1025196-.6659827 1.1025196-.6659726c.362846-.2203804.4788332-.6928819.2592773-1.0562274-.2195559-.3633454-.6917928-.4804053-1.0556359-.261675l-1.0260443.6197734-.0010002-1.1994889c-.0000928-.2041714-.0813092-.3999393-.225774-.5442165s-.340338-.2252391-.5445094-.2250666h-.0010002c-.2043269.0001483-.4002132.0815201-.5445055.2261895-.1442923.1446695-.2251527.3407674-.2247677.545094l.0010002 1.1962383-1.0240339-.6185232c-.2354206-.1422576-.5288517-.1481136-.7697607-.0153621-.2409089.1327514-.3926959.3839422-.3981842.6589512-.0054884.275009.1361557.5320558.3715763.6743133l1.1025196.6659726-1.1025196.6659827c-.2354206.1422575-.3770647.3993043-.3715763.6743133.0054883.275009.1572753.5261998.3981842.6589512.240909.1327515.5343401.1268955.7697607-.0153621l1.0260343-.6197734.0010002 1.1994888c.0000902.2041723.0813057.3999417.225771.5442195.1444654.1442778.3403402.2252389.5445124.2250637h.0010002c.2043279-.0001483.4002151-.0815198.544509-.2261889.144294-.1446692.2251565-.3407671.2247742-.5450947l-.0010002-1.1962382 1.0240439.6185232c.3638431.2187303.83608.1016704 1.0556359-.2616751.2195559-.3633454.1035687-.8358469-.2592773-1.0562273h-.00001zm-11.33785775.4626921c-.18536147.1413547-.2951787.3602917-.29763927.5933882l.00076015 1.1969783-1.02378387-.6182631c-.2354206-.1422575-.5288517-.1481135-.76976064-.0153621-.24090895.1327514-.39269594.3839422-.39818429.6589512-.00548836.275009.13615575.5320558.37157635.6743133l1.10176939.6654726-1.10176939.6654725c-.2354206.1422575-.37706471.3993043-.37157635.6743133.00548835.275009.15727534.5261998.39818429.6589512.24090894.1327515.53434004.1268955.76976064-.0153621l1.02528417-.6192033.00075015 1.1978886c0 .4254157.34486762.7702833.77028339.7702833.42541576 0 .77028339-.3448676.77028339-.7702833l-.00075015-1.1969784 1.02378387.6182631c.2354535.1430065.52937158.1493157.7707449.0165447.24137331-.132771.39341557-.3843873.39870222-.6598166.00528665-.2754292-.13698801-.5326948-.37308854-.6746305l-1.1017594-.6654725 1.1017594-.6654726c.23610053-.1419357.37837519-.3992013.37308854-.6746305-.00528665-.2754292-.15732891-.5270456-.39870222-.6598166-.24137332-.132771-.5352914-.1264618-.7707449.0165447l-1.02528417.6192033-.00076015-1.1979185c.00536718-.2964961-.16295416-.5687992-.43056811-.6965547-.26761394-.1277556-.58518838-.0874131-.8123594.1031965zm22.44979055-9.5165851l-1.1025196-.6659726 1.1025196-.6659726c.3639314-.2199084.4806852-.693204.2607769-1.0571355-.2199084-.3639315-.6932041-.4806853-1.0571355-.2607769l-1.0260443.6197834-.0010002-1.1994989c-.0000928-.2041714-.0813092-.3999393-.225774-.5442165s-.340338-.2252392-.5445094-.2250667h-.0010002c-.2043296.0001483-.4002184.0815212-.5445126.2261925-.1442942.1446713-.2251556.3407718-.2247706.5451011l.0010002 1.1962382-1.0240339-.6185231c-.3639315-.2199084-.8372272-.1031546-1.0571355.2607769-.2199084.3639315-.1031546.8372271.2607769 1.0571355l1.1025195.6659726-1.1025195.6659726c-.2354224.1422558-.3770691.3993019-.3715832.6743115.0054859.2750097.157271.5262024.3981793.6589563.2409083.1327539.5343401.1269004.7697625-.0153553l1.0260443-.6197834.0010002 1.1994988c.0000928.2041715.0813091.3999393.2257739.5442166.1444648.1442772.3403381.2252391.5445095.2250666h.0010002c.2043296-.0001483.4002183-.0815212.5445125-.2261925.1442943-.1446713.2251556-.3407718.2247707-.5451011l-.0010002-1.1962382 1.0240339.6185232c.2354224.1422557.5288542.1481091.7697624.0153552.2409083-.1327538.3926934-.3839465.3981793-.6589562.0054859-.2750096-.1361608-.5320557-.3715831-.6743115z" fill="#667bb3" fill-rule="nonzero"/>
</svg>
