<svg xmlns="http://www.w3.org/2000/svg" viewBox="0 0 32 32">
  <path d="M7.70411541 24.11036c-.10617793.1762331-.278118.3029729-.4778767.3522508-.1997587.0492779-.41091576.0170431-.5868733-.0895908l-1.03143-.62302.001 1.20384c.00038756.2057994-.08105602.4033107-.22638887.5490224-.14533285.1457118-.34263141.2276693-.54843113.2278176h-.001c-.20564157.0001751-.40292563-.081369-.54843091-.2266849-.14550528-.1453158-.22730632-.3424935-.22739909-.5481351l-.001-1.20712-1.03342.62426c-.23711717.1432814-.53266217.1491783-.77530606.0154695-.24264389-.1337088-.39552329-.3867098-.40105-.6637-.00552672-.2769902.13713889-.5358881.37425606-.6791695l1.11046-.67077-1.11046-.67077c-.36655139-.2214938-.4841438-.6981986-.26265-1.06475.2214938-.3665514.69819861-.4841438 1.06475-.26265l1.03141.623-.001-1.20485c-.00038491-.2057986.08105954-.4033083.22639181-.5490195.14533227-.1457112.34262928-.2276696.54842819-.2278205h.001c.20564156-.0001751.40292563.081369.54843091.2266849.14550528.1453158.22730631.3424935.22739909.5481351l.001 1.20814 1.03343-.62424c.36655139-.2214938.8432562-.1039014 1.06475.26265.2214938.3665514.10390139.8432562-.26265 1.06475l-1.11046.67077 1.11046.67077c.17620475.1061983.30292126.2781339.35219672.477879.04927545.1997452.01706112.4108877-.08953672.586851zm5.93899999 2.59419c-.1062427-.1761609-.2781812-.3028386-.4779128-.3521079-.1997316-.0492693-.4108577-.0170851-.5868372.0894579l-1.03343.6241-.001-1.208c-.0000928-.2056416-.0818938-.4028193-.2273991-.5481351-.1455053-.1453159-.3427893-.22686-.5484309-.2266849h-.001c-.2057997.0001483-.4030983.0821058-.5484311.2278176-.1453329.1457117-.22677645.343223-.22638889.5490224l.001 1.2046-1.03147-.62272c-.36655139-.2214938-.8432562-.1039014-1.06475.26265-.2214938.3665514-.10390139.8432562.26265 1.06475l1.11021.67026-1.11021.67027c-.36655139.2214938-.4841438.6981986-.26265 1.06475.2214938.3665514.69819861.4841438 1.06475.26265l1.03343-.62405.001 1.20794c.00009277.2056416.08189379.4028193.22739909.5481351.1455053.1453159.3427893.22686.5484309.2266849h.001c.2057989-.0001509.4030959-.0821093.5484282-.2278205.1453323-.1457112.2267767-.3432209.2263918-.5490195l-.001-1.2046 1.03141.62273c.3665514.2214938.8432562.1039013 1.06475-.26265.2214938-.3665514.1039014-.8432562-.26265-1.06475l-1.11021-.67027 1.11021-.67026c.1762061-.1062021.302923-.2781413.3521983-.4778897.0492754-.1997483.0170605-.4108939-.0895383-.5868603h.00005zm6.88651-16.05c.1061779.1762331.278118.3029729.4778767.3522508.1997587.0492779.4109158.0170431.5868733-.0895908l1.03343-.624.001 1.20794c.0000928.2056416.0818938.4028193.2273991.5481351.1455053.1453159.3427893.22686.5484309.2266849h.001c.2057989-.0001509.4030959-.0821093.5484282-.2278205.1453323-.1457112.2267767-.3432209.2263918-.5490195l-.001-1.2046 1.03141.62273c.3665514.2214938.8432562.1039014 1.06475-.26265.2214938-.3665514.1039014-.84325619-.26265-1.06475l-1.11021-.67027 1.11018-.67032c.2371172-.14328136.3797828-.40217931.3742561-.67916949-.0055267-.27699018-.1584061-.5299912-.40105-.66370001-.2426439-.13370881-.5381889-.12781187-.7753061.0154695l-1.03343.624-.001-1.20795c-.0000928-.20564162-.0818938-.40281929-.2273991-.54813515-.1455053-.14531585-.3427893-.22685996-.5484309-.22668485h-.001c-.2057997.00014827-.4030983.08210583-.5484311.22781757-.1453329.14571174-.2267765.34322302-.2263889.54902243l.001 1.2046-1.03141-.62272c-.3665514-.22149379-.8432562-.10390137-1.06475.26265001-.2214938.36655138-.1039014.84325619.26265 1.06474999l1.11021.67026-1.11021.67027c-.1762229.10619693-.3029533.2781429-.3522315.4779027-.0492781.1997598-.0170545.4109176.0895615.5868873l.00005.00001zm-4.459 1.0991l-1.2976-.7519 1.58854-.423c.4131628-.1111314.658359-.5357776.5480589-.94916313-.1103001-.4133855-.5344524-.65943528-.9480589-.54996687l-3.08666.82186-2.35966-1.36734 2.35956-1.36736 3.08666.82186a.7668206.7668206 0 0 0 .2.02626c.389462-.00003324.7185399-.28880603.7691701-.674963.0506303-.38615696-.1928806-.75000367-.5691701-.850437l-1.58853-.42295 1.2976-.75191c.3692924-.21532987.4946353-.68892864.2802083-1.05874598-.2144271-.36981733-.6877182-.49631689-1.0580583-.28279402l-1.33245.77217.43741-1.643c.0720883-.26800899-.0044843-.55411186-.200806-.75028358-.1963216-.19617172-.4824829-.27252568-.7504368-.20023261-.2679538.07229307-.4768776.28221937-.5478872.55051619l-.83666 3.14323-2.31713999 1.34287V4.50952l2.29921999-2.29921c.1964502-.19587876.2733472-.48175324.2016752-.74975379-.071672-.26800055-.281002-.47732872-.5490032-.54899824-.2680012-.07166952-.553875.00523005-.749752.20168203L9.74471541 2.31537V.77583c0-.42847908-.34735092-.77583-.77583-.77583s-.77583.34735092-.77583.77583V2.275l-1.16173-1.16176c-.30324297-.30121555-.79300228-.3003942-1.09523324.00183676-.30223097.30223096-.30305232.79199027-.00183676 1.09523324l2.2588 2.2588v2.71913l-2.3174-1.34324-.83543-3.14171c-.10990467-.41397332-.53459168-.66046967-.948565-.550565-.41397332.10990467-.66046967.53459168-.550565.948565l.43716 1.64391-1.33219-.7721c-.23964304-.13895131-.53521198-.13949957-.77536886-.00143826-.24015688.13806131-.38841616.39375739-.38893.67077-.00051384.27701261.14679582.53325695.38643886.67220826l1.29735.752-1.58828.42286c-.37628948.10043333-.61980037.46428004-.56917012.850437.05063026.38615697.37970815.67492976.76917012.674963a.76692989.76692989 0 0 0 .2-.02626l3.0864-.8218 2.35906 1.3673-2.35902 1.3673-3.0864-.82179c-.26800899-.0720883-.55411186.0044843-.75028358.20080598-.19617172.19632167-.27252568.48248297-.20023261.75043682.07229306.2679538.28221937.4768776.55051619.5478872l1.58828.42289-1.29735.752c-.30344855.1761285-.45089349.5340139-.35957658.8727815.09131691.3387676.39865734.5740627.74951658.5738185.13635841.0001739.27028571-.0360975.38792-.10506l1.33219-.77211-.4372 1.6439c-.05286887.1988004-.02455411.4104627.0787091.5883768.1032632.1779141.27300658.3074898.4718509.3601932a.75349812.75349812 0 0 0 .199.02627c.35172737-.0001133.65936456-.2368539.74956-.57682l.83543-3.14171 2.31741-1.34331v2.67879l-2.2982 2.29921c-.19744585.1956771-.27509769.4820445-.20355078.7506622.07154692.2686176.28135455.4784195.54997417.5499591.26861962.0715396.55498486-.0061201.75065661-.2035713l1.20113-1.20163v1.539c-1e-8.2771774.14787235.5332998.38791499.6718885s.53578738.1385887.77583002 0c.24004264-.1385887.387915-.3947111.38791499-.6718885v-1.49961l1.16171999 1.16224c.3034182.3001465.7923003.2988238 1.0940898-.0029603.3017895-.301784.3031212-.7906661.0029802-1.0940897l-2.25879999-2.25974V9.87991l2.31713999 1.34287.83669 3.14323c.0906564.3395179.3981572.5757361.74957.57581a.7665175.7665175 0 0 0 .2-.02627c.4137378-.1107718.6596286-.5356599.54954-.94958l-.43741-1.643 1.33245.77217c.1176308.0689621.2515548.1052335.38791.10506.3508592.0002442.6581997-.2350509.7495166-.5738185.0913169-.3387676-.056128-.696653-.3595766-.8727815l.00008.00005zm14.663 12.25772l-3.08817.82136-2.3583-1.36692 2.3583-1.36743 3.08716.822a.76651806.76651806 0 0 0 .2.02627c.389462-.0000332.7185399-.288806.7691701-.674963.0506303-.386157-.1928806-.7500037-.5691701-.850437l-1.58929-.42315 1.29836-.75272c.370456-.2148001.4966401-.689244.28184-1.0597-.2148001-.370456-.689244-.4966401-1.0597-.28184l-1.33194.7723.43691-1.64309c.1099047-.4139733-.1365917-.8386603-.550565-.948565-.4139733-.1099047-.8386603.1365917-.948565.550565l-.83543 3.14127-2.3174 1.3435v-2.6796l2.2982-2.29819c.3006075-.3033522.2994879-.7926218-.0025047-1.0945952-.3019926-.3019733-.7912622-.3030616-1.0945953-.0024348l-1.20113 1.20113v-1.53858c0-.4284791-.3473509-.77583-.77583-.77583s-.77583.3473509-.77583.77583v1.49913l-1.16171-1.16168c-.3036362-.2987664-.7913818-.2968038-1.092604.0043963-.3012221.3012002-.3032202.7889457-.004476 1.0926037l2.2588 2.2588v2.7191l-2.31688-1.34312-.837-3.14279c-.1111314-.4131628-.5357776-.658359-.9491631-.5480589-.4133855.1103002-.6594353.5344524-.5499669.9480589l.43716 1.64208-1.3322-.7723c-.3703401-.2135229-.8436312-.0870233-1.0580582.282794-.214427.3698174-.0890842.8434161.2802082 1.058746l1.29836.75266-1.5893.42321c-.3762895.1004333-.6198004.46428-.5691701.850437.0506302.386157.3797081.6749298.7691701.674963a.76640987.76640987 0 0 0 .2-.02627l3.08742-.82205 2.3592 1.36754-2.35881 1.367-3.08868-.82142c-.4133931-.108341-.8365277.1381573-.9461854.5512031-.1096576.4130457.1354912.8369637.5481854.9479369l1.58829.42239-1.29836.75247c-.3034485.1761285-.4508935.5340139-.3595766.8727815.0913169.3387676.3986574.5740627.7495166.5738185.1363552.0001735.2702792-.0360979.38791-.10506l1.3322-.77205-.43716 1.64183c-.1100886.4139201.1358022.8388082.54954.94958a.7670015.7670015 0 0 0 .2.02627c.3514157-.0000751.6589174-.2362981.74957-.57582l.83669-3.14215 2.31714-1.34293v2.67879l-2.29927 2.29824c-.1964502.1958788-.2733472.4817532-.2016752.7497538.071672.2680005.281002.4773287.5490033.5489982.2680012.0716696.5538749-.00523.7497519-.201682l1.20213-1.20163v1.54005c0 .4284791.3473509.77583.77583.77583s.77583-.3473509.77583-.77583v-1.49964l1.16173 1.16122c.303243.3012156.7930023.3003942 1.0952333-.0018368.3022309-.3022309.3030523-.7919902.0018367-1.0952332l-2.2588-2.25785v-2.71907l2.3174 1.34331.83543 3.14063c.0900062.3396665.3971611.5763589.74855.57683a.75588026.75588026 0 0 0 .2-.02627c.1988443-.0527034.3685877-.1822791.4718509-.3601932s.131578-.3895764.0787091-.5883768l-.43691-1.64284 1.33194.77205c.1176343.0689625.2515616.1052339.38792.10506.3508592.0002442.6581997-.2350509.7495166-.5738185.0913169-.3387676-.056128-.696653-.3595766-.8727815l-1.29811-.75247 1.588-.42239c.4126942-.1109732.6578431-.5348912.5481854-.9479369-.1096577-.4130458-.5327923-.6595441-.9461854-.5512031l.0001.00001z" fill="#667bb3" fill-rule="nonzero"/>
</svg>
