<svg xmlns="http://www.w3.org/2000/svg" viewBox="0 0 32 32">
  <path d="M1.57341 6.23335973l1.81349-1.09524-1.81349-1.09524c-.35917209-.21786576-.47408952-.68542816-.25683226-1.04496865s.6846244-.47524948 1.04453226-.25860135l1.73636 1.04855-.00124-2.02871C4.09775055 1.33943876 4.43842128 1 4.858135 1c.41971372 0 .76038445.33943876.761905.75914973l.00124 2.0297 1.73785-1.04954c.35990786-.21664813.827275-.10093914 1.04453226.25860135s.10233983.82710289-.25683226 1.04496865l-1.8135 1.09524 1.8135 1.09524c.23336178.14047316.37393045.39488576.36865059.66721378-.00527986.27232802-.15560423.52110083-.39423554.65242304-.23863132.13132222-.52923034.12519584-.76211505-.01606682l-1.73636-1.04855.00123 2.0297c.00098853.27285998-.14401316.52541701-.38015346.66213316-.23614029.13671615-.52736279.13671615-.76350308 0-.2361403-.13671615-.38114199-.38927318-.38015346-.66213316l-.00119-2.03069-1.73789 1.04954c-.35990786.21664814-.827275.10093915-1.04453226-.25860134-.21725726-.3595405-.10233983-.82710289.25683226-1.04496866zm9.379-.8998h10.02378c.27286.00098853.525417-.14401316.6621332-.38015345.1367161-.2361403.1367161-.5273628 0-.76350309-.1367162-.23614029-.3892732-.38114199-.6621332-.38015346H10.95238c-.419711.00152055-.7591497.34219128-.7591497.761905 0 .41971373.3394387.76038445.7591497.761905h.00003zM17.693 28.0746297h-6.74062c-.419711.0015206-.7591497.3421913-.7591497.761905 0 .4197138.3394387.7603845.7591497.761905h6.93552c-.2632821-.4623904-.3333281-1.0100395-.1949-1.52381zm8.13839-2.31647c.2333618-.1404731.3739305-.3948857.3686506-.6672137-.0052799-.2723281-.1556042-.5211009-.3942356-.6524231-.2386313-.1313222-.5292303-.1251958-.762115.0160668l-1.73789 1.04954-.00124-2.0297c-.0015205-.4197109-.3421913-.7591497-.761905-.7591497-.4197137 0-.7603845.3394388-.761905.7591497l.00124 2.02871-1.73636-1.04855c-.2329047-.141724-.5238038-.1481295-.7627211-.0167949-.2389174.1313347-.3893986.3803703-.3945534.6529573-.0051548.2725871.1358034.527134.3695845.6674076l1.81349 1.09524-1.81349 1.09524c-.2337811.1402737-.3747393.3948205-.3695845.6674076.0051548.2725871.155636.5216227.3945534.6529573.2389173.1313347.5298164.1249292.7627211-.0167949l1.73785-1.04954.00124 2.0297c.0015205.419711.3421913.7591498.761905.7591498.4197137 0 .7603845-.3394388.761905-.7591498l-.00124-2.02871 1.73636 1.04855c.2328847.1412627.5234837.1473891.762115.0160669.2386314-.1313223.3889557-.3800951.3942356-.6524231.0052799-.272328-.1352888-.5267406-.3686506-.6672138l-1.81349-1.09524 1.81353-1.09524zm1.22817-15.27579c-2.2719142-.0187332-4.2596286 1.5244867-4.80456 3.73016-.0991682.4087349.1517851.8204718.56052.91964.4087349.0991682.8204717-.1517851.91964-.56052.3739007-1.7514332 2.0394841-2.914777 3.8125884-2.6629413 1.7731042.2518356 3.0488905 1.8329448 2.9203267 3.6192234-.1285637 1.7862786-1.617622 3.1683938-3.4085151 3.1637179h-17.0231c.1066463.5005213.0191461 1.0228665-.24479 1.46131-.01414.0235-.03522.03975-.0501.0625h17.567a.74609856.74609856 0 0 0 .24231-.049c2.6092103-.2168229 4.5755376-2.4651046 4.4428751-5.0799452-.1326625-2.6148406-2.3164381-4.6525691-4.9341951-4.6042048v.00006zm-10.87206 14.26091c-.0001049-.4207423-.3411577-.7617951-.7619-.7619H.7619c-.42078575 0-.7619.3411143-.7619.7619 0 .4207858.34111425.7619.7619.7619h14.6637c.42074-.0001104.7617896-.34116.7619-.7619zm-10.26438-6.03726l1.73561 1.04817c.23288471.1412627.52348373.1473891.76211505.0160669.23863131-.1313223.38895568-.3800951.39423554-.6524231.00527986-.272328-.13528881-.5267406-.36865059-.6672138l-1.81349-1.09524 1.81349-1.09524c.23336178-.1404731.37393045-.3948857.36865059-.6672137-.00527986-.2723281-.15560423-.5211009-.39423554-.6524231-.23863132-.1313222-.52923034-.1251958-.76211505.0160668l-1.7376 1.04936-.00149-2.03051c-.00009012-.2019498-.08042205-.3955879-.22331495-.5382951-.14289289-.1427072-.3366353-.2227873-.53858505-.2226149h-.001c-.20210709.0001457-.3958656.0806324-.53859112.2237293-.14272552.1430969-.22270848.3370639-.22232888.5391707l.00149 2.0279-1.7366-1.04874c-.35997092-.2175201-.82811989-.1020409-1.04564.25793-.21752011.3599709-.10204092.8281199.25793 1.04564l1.81349 1.09524-1.81349 1.09524c-.23378108.1402737-.37473928.3948205-.3695845.6674076.00515478.2725871.15563602.5216227.39455337.6529573.23891734.1313347.52981645.1249292.76272113-.0167949l1.7386-1.05.00148 2.03212c.00009278.2019508.08042693.3955888.22332141.5382958.14289449.1427069.33663792.2227867.53858859.2226142h.001c.20210617-.0001456.39586366-.0806327.53858759-.2237299s.22270467-.3370642.22232241-.5391701l-.00147-2.0283zm12.6741-8.80299997c-.1041705-.17318101-.2730278-.29774007-.4692432-.34614136-.1962154-.04840128-.4036283-.0166584-.5763868.08821136L15.814 10.6946097l-.00149-2.03069997c-.0000901-.2019498-.0804221-.39558792-.2233149-.53829514-.1428929-.14270723-.3366353-.22278731-.5385851-.22261486h-.001c-.2021054.00014828-.3958613.08063621-.5385847.22373283-.1427233.14309661-.2227049.33706212-.2223253.53916717l.00149 2.02752997-1.73563-1.04835997c-.2329047-.14172402-.5238038-.14812953-.7627211-.01679488-.2389174.13133464-.3893986.38037025-.3945534.65295725-.0051548.2725871.1358034.527134.3695845.6674076l1.81324 1.09524-1.81324 1.09523c-.2337811.1402737-.3747393.3948205-.3695845.6674076.0051548.2725871.155636.5216227.3945534.6529573.2389173.1313347.5298164.1249292.7627211-.0167949l1.7376-1.04954.00149 2.0307c.0000928.2019508.0804269.3955888.2233214.5382958.1428945.1427069.3366379.2227867.5385886.2226142h.001c.2021054-.0001482.3958613-.0806362.5385847-.2237328.1427233-.1430966.2227049-.3370621.2223253-.5391672l-.00147-2.02753 1.73562 1.04836c.3599079.2166482.827275.1009392 1.0445323-.2586013.2172572-.3595405.1023398-.8271029-.2568323-1.0449687l-1.81332-1.09523 1.81325-1.09524c.1730492-.1042905.2974983-.2731421.345894-.4693063.0483957-.1961643.0167616-.4035231-.087924-.57633367v.00002z" fill="#667bb3" fill-rule="nonzero"/>
</svg>
