<svg xmlns="http://www.w3.org/2000/svg" viewBox="0 0 32 32">
  <path d="M30.9518201 9.73929a5.9547597 5.9547597 0 0 0 1.048-.09786c-.04878.17324-.1.3463-.16333.51708-.6217 1.6930505-1.8950386 3.0669221-3.53606 3.81524a6.8841534 6.8841534 0 0 1-.7388.28669c-.4422728-.4740151-.950337-.8820479-1.50863-1.2116 1.3789924-.1568544 2.6417027-.8475706 3.51759-1.92416-3.8721542-.7271984-6.5097738-4.34208377-6.02072-8.25146-.09854.03836667-.1961767.07977667-.29291.12423-1.1888229.55080579-2.1283805 1.52670136-2.6337 2.73556a10.83936577 10.83936577 0 0 0-1.33-.76479C20.3941523 2.55198116 22.804364 1.00093448 25.4595801 1c.07957 0 .15668.01441.236.01718-.9747373 1.84259383-.9128514 4.06117657.1630863 5.84656814C26.934604 8.64913972 28.8672905 9.74031447 30.9518201 9.73929zm-3.5814 9.0947c-.0029431 2.5876948-2.100035 4.684657-4.68773 4.68744H5.45025011c-1.9471868 0-3.74646163-1.0388117-4.72005505-2.725125-.97359341-1.6863132-.97359341-3.7639368 0-5.45025.97359342-1.6863133 2.77286825-2.725125 4.72005505-2.725125a5.36963159 5.36963159 0 0 1 .59616.03332C7.0666278 8.4127396 11.0398332 5.55853352 15.3851039 5.94567237c4.3452708.38713884 7.7513143 3.89879391 8.0056262 8.25385763 2.2876036.3526244 3.9769022 2.3198399 3.97973 4.63446h-.00004zM5.45025011 22.00787H22.6827301c1.6597111.0000625 3.03929-1.2784657 3.1652369-2.9333911.1259468-1.6549255-1.0442613-3.1275033-2.6848669-3.3786089-.7067405-.1075697-1.2418972-.6948799-1.28347-1.40855-.2107632-3.6059777-3.031024-6.51352465-6.6289051-6.83406749C11.6528439 7.13270966 8.36300234 9.4958947 7.51809011 13.00782c-.17800662.742285-.88111243 1.2356799-1.63969 1.15063a3.86310853 3.86310853 0 0 0-.42815-.024c-2.17417385 0-3.93669 1.7625161-3.93669 3.93669s1.76251615 3.93669 3.93669 3.93669v.00004zm8.62830999 4.1826c-.3570382-.2169462-.8223313-.1035981-1.03959.25325l-2.01807 3.31583c-.1404661.2309418-.1470561.5192787-.0172877.7563968.1297684.2371182.3761804.3869937.646415.39317.2702346.0061763.5232366-.132285.6637027-.3632268l2.01809-3.31583c.1045893-.1713622.1366664-.3773082.0891484-.5723619-.0475181-.1950537-.1707227-.3631707-.3424084-.4672281zm7.00808 0c-.3570534-.2168274-.8222548-.1035006-1.03958.25325l-2.01808 3.31583c-.2171418.3570051-.1037601.8224432.253245 1.039585.3570052.2171418.8224432.1037601 1.039585-.253245l2.01808-3.31583c.1045902-.171361.1366689-.3773061.0891527-.5723597-.0475162-.1950536-.1707187-.3631712-.3424027-.4672303zm-14.01615999 0c-.35701901-.2170701-.82240537-.1036994-1.03959.25325l-2.01807 3.31583c-.14046612.2309418-.14705617.5192787-.01728772.7563968.12976844.2371182.37618045.3869937.64641501.39317.27023456.0061763.52323661-.132285.66370271-.3632268l2.01807-3.31583c.10459102-.1713598.13667126-.377304.08915701-.5723574-.04751425-.1950535-.17071466-.3631719-.34239701-.4672326z" fill="#667bb3" fill-rule="nonzero"/>
</svg>
