<svg xmlns="http://www.w3.org/2000/svg" viewBox="0 0 32 32">
  <path d="M30.8407401 8.70791a5.9347496 5.9347496 0 0 0 1.0442-.09751c-.04885.17263-.09966.34513-.16274.51523-.6194665 1.6869741-1.8882365 3.0559135-3.52337 3.80154a6.87480029 6.87480029 0 0 1-.7359.28566c-.4408276-.4722594-.9471407-.8788193-1.50346-1.20725 1.3740305-.1563517 2.6321967-.8445704 3.505-1.91724-3.8582562-.72462771-6.4863966-4.32654658-5.99911-8.2219-.09794.03822667-.1951433.07948333-.29161.12377-1.1846824.54876463-2.1209794 1.5211897-2.62452 2.72579a10.79852805 10.79852805 0 0 0-1.3255-.762C20.3207783 1.54652694 22.7222646.00108445 25.3679101 0c.07952 0 .15635.01436.23515.01718-.9710326 1.83604127-.9092258 4.04659336.1628808 5.8255086 1.0721066 1.77891525 2.9977939 2.86615442 5.0747992 2.8652214zm-7.534 4.44423c-.2534813-4.33944309-3.6473472-7.83845884-7.9770393-8.22418651-4.329692-.38572767-8.28864696 2.45823306-9.30524069 6.68452651a5.32592144 5.32592144 0 0 0-.59378-.0332c-1.94019512 0-3.73300936 1.0350817-4.70310693 2.71534-.97009757 1.6802582-.97009757 3.7504218 0 5.43068.97009757 1.6802583 2.76291181 2.71534 4.70310693 2.71534h8.49890999c-.1369974-.5084881-.0676592-1.0505038.19293-1.50813H5.43068011c-1.40288574.0022399-2.70016503-.7449046-3.40225532-1.9594673-.70209028-1.2145627-.70209028-2.7116127 0-3.9261754.70209029-1.2145627 1.99936958-1.9617072 3.40225532-1.9594673a3.82225375 3.82225375 0 0 1 .42588.02381c.75604293.0850611 1.45694926-.4066442 1.63429-1.1465.84193219-3.49934448 4.12000849-5.85404504 7.70501149-5.53464692 3.585003.31939812 6.3951796 3.21651845 6.6052285 6.80958692.0414016.7111043.5746538 1.2962991 1.27886 1.40343 1.5030119.2290528 2.6298533 1.4959508 2.682062 3.0154191.0522088 1.5194684-.9850168 2.8607235-2.468762 3.1924009.00663.01061.01571.01884.02234.02964.264032.4381967.3499518.9609672.24006 1.46062 2.2117128-.4614944 3.7759671-2.4399735 3.7147912-4.6984925-.0611759-2.258519-1.730239-4.1494181-3.9636912-4.4905075l-.00001-.00002zm-1.32254 11.58216l-1.79531-1.08445 1.79531-1.08446c.2309837-.1390154.3701279-.3908166.3649097-.6603561-.0052183-.2695395-.1540041-.5157664-.3901953-.6457375-.2361913-.129971-.523816-.1238915-.7543044.0159436l-1.72069 1.03941-.00148-2.01046c-.0000875-.1998722-.0795922-.3915188-.2210151-.5327579s-.3331727-.2204946-.5330449-.2203221h-.001c-.2000174.0001456-.3917726.0797982-.5330261.2214118-.1412535.1416136-.2204175.3335711-.2200539.5335882l.00147 2.00672-1.71774-1.03763c-.2304884-.1398351-.5181131-.1459146-.7543043-.0159436-.2361912.1299711-.3849771.376198-.3901953.6457375-.0052182.2695395.1339259.5213407.3649096.6603561l1.79531 1.08446-1.79529 1.08449c-.2309837.1390154-.3701278.3908166-.3649096.6603561.0052182.2695395.1540041.5157664.3901953.6457375.2361912.129971.5238159.1238915.7543043-.0159436l1.71971-1.03886.00147 2.00991c.0000901.1998714.0795957.3915164.2210181.532755.1414223.1412385.3331705.2204948.5330419.220325h.001c.2000182-.000143.391775-.0797947.5330291-.2214089.1412541-.1416142.2204172-.3335732.2200509-.5335911l-.00147-2.00733 1.71873 1.03824c.3561996.2143755.8187174.0998465 1.0337252-.2559718.2150078-.3558182.1013006-.8185387-.2541352-1.0341782l-.00002-.00004zm-14.05224999-.93177h-.001c-.37180738.0030601-.68426175.2801625-.73173.64894a.73042887.73042887 0 0 0-.02135.1061l.00151 2.00764-1.71777-1.03757c-.23048837-.1398351-.51811313-.1459146-.75430433-.0159436-.23619121.1299711-.38497708.376198-.3901953.6457375-.00521822.2695395.13392594.5213407.36490963.6603561l1.79458 1.084-1.79458 1.084c-.23098369.1390154-.37012785.3908166-.36490963.6603561.00521822.2695395.15400409.5157664.3901953.6457375.2361912.129971.52381596.1238915.75430433-.0159436l1.71971-1.03874.00148 2.00979c.00010604.1998601.07961899.3914887.22103988.5327126.14142088.141224.33316006.2204699.53302012.2202974h.001c.20001738-.0001456.39177265-.0797982.53302615-.2214118.14125351-.1416136.22041751-.3335711.22005385-.5335882l-.00149-2.0067 1.71773999 1.03757c.2304884.1398351.5181131.1459146.7543044.0159436.2361912-.1299711.384977-.376198.3901953-.6457375.0052182-.2695395-.133926-.5213407-.3649097-.6603561l-1.79456999-1.084 1.79456999-1.084c.2309837-.1390154.3701279-.3908166.3649097-.6603561-.0052183-.2695395-.1540041-.5157664-.3901953-.6457375-.2361913-.129971-.523816-.1238915-.7543044.0159436l-1.71970999 1.0388-.00147-2.01077a.70730887.70730887 0 0 0-.02111-.10413c-.04767181-.3691598-.36073397-.6463391-.73295-.64894z" fill="#667bb3" fill-rule="nonzero"/>
</svg>
