<svg xmlns="http://www.w3.org/2000/svg" viewBox="0 0 32 32">
  <path d="M22.6936701 13.4424201h-3.0966a8.7053301 8.7053301 0 0 0-.58392-1.5404h4.6182l-.93768 1.5404zm-9.16195-6.10700003c.4757409-.43108495 1.0942238-.6707951 1.73622-.67292a2.56481237 2.56481237 0 0 1 .28406.01585c.7720931.08692867 1.4878747-.41531258 1.66878-1.17093.6004213-2.49496637 2.9376777-4.17377465 5.4937507-3.94606001 2.556073.22771463 4.5597548 2.29324706 4.7096793 4.85506001.0423432.72628362.5869829 1.32395212 1.30622 1.4334 1.0530841.1615005 1.8040436 1.10690394 1.7230686 2.16921823-.080975 1.0623143-.9665526 1.8829726-2.0319486 1.8829918h-.181c-.038089.278024-.132991.5452337-.2788.785l-.45981.75541h.91963c1.8710668-.0000237 3.4262135-1.4415299 3.5679442-3.307221.1417308-1.86569114-1.1778128-3.52557863-3.0274042-3.80824903-.1941534-3.32424658-2.7940239-6.00469526-6.1107983-6.30019135-3.3167745-.2954961-6.349547 1.88313252-7.1283017 5.12070135a4.09248059 4.09248059 0 0 0-.455-.02539c-1.4105739.00208471-2.7236978.71987055-3.487 1.90608a8.7267794 8.7267794 0 0 1 1.75071.30725zm4.32236 8.04563003c-.1941495-3.324248-2.7940184-6.0047003-6.1107938-6.30019898-3.31677539-.29549868-6.34955023 1.88312928-7.12830621 5.12069898a4.07956358 4.07956358 0 0 0-.4548-.02545c-1.48628919-1e-7-2.85967704.7929258-3.60282164 2.0800899-.7431446 1.2871642-.7431446 2.8730159 0 4.1601801.7431446 1.2871642 2.11653245 2.08009 3.60282164 2.08009h3.78131l.93768-1.54041h-4.71899c-.9359537 0-1.80081058-.4993253-2.26878744-1.309885-.46797685-.8105597-.46797685-1.8092104 0-2.61977.46797686-.8105597 1.33283374-1.3098851 2.26878744-1.309885a2.5301082 2.5301082 0 0 1 .28306.01586c.7723315.0871788 1.48847738-.4150979 1.66954-1.17095.60043487-2.4949499 2.937683-4.1737403 5.49374311-3.9460266 2.5560601.2277137 4.5597365 2.2932274 4.7096769 4.8550266.0423111.7263312.5869615 1.3240606 1.30624 1.43354 1.0530777.1614674 1.8040457 1.1068551 1.723069 2.1691578-.0809767 1.0623028-.9665644 1.8829399-2.031949 1.8829222h-3.62614l-.93764 1.54038h4.5638c1.8710511-.0000225 3.4261857-1.4415157 3.5679164-3.307191.1417307-1.8656754-1.1778007-3.5255498-3.0273764-3.808219l-.00004.00004zm-13.50486001 10.16875c-.3633838-.2206483-.83681273-.105316-1.058.25774l-2.0539 3.37365c-.22099398.3633371-.10560209.837031.257735 1.058025.36333709.220994.83703102.1056021 1.058025-.257735l2.05387-3.37365c.10640037-.1744109.13902376-.3839929.09067038-.5824926s-.17370855-.369599-.34840038-.4755374zm16.05591001 0c-.3633638-.220778-.8368902-.1054219-1.058.25774l-2.05387 3.37365c-.1429581.2350379-.1496655.528489-.0175958.7698133.1320698.2413242.3828522.3938587.65788.400145.2750279.0062863.5325178-.1346304.6754758-.3696683l2.05387-3.37365c.1063977-.1744145.1390165-.3839992.0906574-.5824993-.0483591-.1985001-.1737206-.3695972-.3484174-.4755307zm-6.08741-1.23453h-4.1777l2.63328-4.32637c.1429563-.2350379.1496621-.5284881.0175914-.7698108-.1320706-.2413227-.3828531-.3938552-.65788-.40014-.2750269-.0062848-.5325152.1346329-.6754714.3696708l-3.34556001 5.49671c-.01.01617-.01.03466-.01856.05127a.73969678.73969678 0 0 0-.0524.144.76711875.76711875 0 0 0-.03084.15206c-.00125.01843-.01053.0341-.01053.05284a.73177865.73177865 0 0 0 .01705.08424.75852016.75852016 0 0 0 .03159.15713c.04615424.1430082.13604927.2679133.257.35709a.69237215.69237215 0 0 0 .06443.05942 283.30750878 283.30750878 0 0 0 .13539.05885c.08406367.0332776.17336339.0513813.26375.05347l.00051-.00013.0005.00013h4.17691001l-2.88826 4.74457c-.22099123.3633371-.1055971.8370288.25774 1.05802.3633371.2209912.8370288.1055971 1.05802-.25774l3.6013-5.91491c.1448835-.2377083.1501295-.5351216.0137192-.7777915-.1364102-.2426699-.3932175-.3927771-.6715992-.3925585l.00002-.00002zm12.54788-12.29616c.2209912-.3633371.1055971-.8370288-.25774-1.05802-.3633371-.2209912-.8370288-.1055971-1.05802.25774l-2.70975 4.45173c-.01.01617-.01.03466-.01855.05127a1.03142727 1.03142727 0 0 0-.08324.296c-.00126.01843-.01053.0341-.01053.05284a.73352437.73352437 0 0 0 .01705.08437.75151976.75151976 0 0 0 .03159.15626.7177989.7177989 0 0 0 .06017.13043.73656065.73656065 0 0 0 .081.12041.75292278.75292278 0 0 0 .11633.1073c.0586248.0512468.1261937.0912485.19932.118.0840688.0332706.1733712.0513708.26376.05346l.0005-.00012.0005.00012h3.12293l-2.2043 3.62136c-.220994.3633371-.1056021.837031.257735 1.058025.3633371.220994.837031.1056021 1.058025-.257735l2.91734-4.79171c.1448851-.2377068.1501318-.53512.0137209-.777789-.1364109-.2426691-.3932196-.3927739-.6716009-.392551h-3.12345l1.99721-3.28139z" fill="#667bb3" fill-rule="nonzero"/>
</svg>
