<svg xmlns="http://www.w3.org/2000/svg" viewBox="0 0 32 32">
  <path d="M27.34694 9.69092589c-.2973043-5.09168532-4.2794538-9.19731136-9.3596903-9.649911C12.9070132-.41158474 8.26179712 2.92542698 7.06908 7.8843659a6.25850002 6.25850002 0 0 0-.697-.039C2.85287739 7.84536589 0 10.6982433 0 14.2174459c0 3.5192026 2.85287739 6.37208 6.37208 6.37208h20.14711c2.8658584-.0001119 5.24778-2.2080735 5.4648165-5.0657018.2170364-2.8576283-1.8040981-5.4000013-4.6370665-5.83293821v.00004zM1.76934 14.2175559c.00290434-2.5407948 2.06194508-4.59976848 4.60274-4.60259001a4.48861984 4.48861984 0 0 1 .5.02793c.8871862.10015646 1.70980023-.47692471 1.91759-1.34523.98781186-4.10592929 4.8340946-6.86882169 9.0405156-6.49405503 4.206421.37476666 7.5036862 3.77410598 7.7500744 7.98999503.048601.83437001.6742626 1.52101211 1.50053 1.64678001 1.9179905.2936987 3.2859913 2.0153005 3.1387485 3.9500527-.1472427 1.9347522-1.7600215 3.4295042-3.7003685 3.4295673H6.37208c-2.54075859-.0027774-4.59980252-2.0616916-4.60274-4.60245zm10.40851 10.70769l-2.3594 3.87662c-.16065779.2642547-.44764059.4254375-.7569.42511-.31940897-.0005758-.61371766-.173243-.77005083-.4517791-.15633316-.2785361-.15042413-.6197056.01546083-.8926609l2.3594-3.87667c.1642243-.2700017.4600179-.4318809.7759584-.4246594.3159405.0072216.6040288.1824468.755745.45967.1517162.2772233.1440109.6143277-.0202134.8843294v.00004zm-5.46188 0l-2.3594 3.87662c-.16065779.2642547-.44764059.4254375-.7569.42511-.31940801-.0005786-.61371506-.1732454-.77004933-.4517798s-.15042965-.6197024.01544933-.8926602l2.35941-3.87667c.16422427-.2700017.46001794-.4318809.7759584-.4246594.31594045.0072216.60402882.1824468.755745.45967.15171618.2772233.14401087.6143277-.0202134.8843294v.00004zm13.30506 1.894l-1.26611.76439 1.26611.76439c.2709811.1631333.4342057.4585695.4280701.7748061-.0061356.3162367-.1806971.6051192-.4578022.7576185-.277105.1524994-.6145577.1453939-.8849979-.0186346l-1.17625-.71017.00116 1.37376c.000438.2346979-.0924446.4599425-.2581865.6261138-.1657418.1661714-.3907453.2596367-.6254435.2598062h-.00115c-.2345207.0002069-.4595124-.092785-.6254523-.2585074-.16594-.1657224-.259227-.3905919-.2593277-.6251126l-.00115-1.37757-1.17855.71168c-.4179501.25161-.9607087.1172478-1.2130095-.3002856-.2523008-.4175335-.1188362-.9605136.2982795-1.2135044l1.26611-.76439-1.26611-.76439c-.4180243-.2525957-.5521307-.7962407-.299535-1.214265.2525957-.4180243.7962407-.5521307 1.214265-.299535l1.17625.71017-.00115-1.37375c-.0004407-.2346979.0924394-.4599435.2581794-.6261168.16574-.1661732.3907424-.2596411.6254406-.2598132h.00112c.2345224-.000207.4595156.0927863.6254558.2585109.1659403.1657246.2592261.3905966.2593242.6251191l.00115 1.37756 1.17855-.71168c.4180243-.2525957.9616693-.1184893 1.214265.299535s.1184893.9616693-.299535 1.214265h.00003zm8.8351-2.3594l-1.26553.76438 1.26553.76439c.2704143.1634008.4331142.4586536.4268122.7745397-.0063021.3158861-.1806486.6044147-.457365.7569-.2767164.1524853-.6137629.1457611-.8841772-.0176397l-1.176-.71017.00086 1.3749c.0010651.3168082-.1673388.6100079-.4415266.7687202-.2741878.1587124-.612309.1587124-.8864968 0-.2741878-.1587123-.4425917-.451912-.4415266-.7687202l-.00087-1.376-1.17768.71125c-.2704143.1634008-.6074608.170125-.8841771.0176397-.2767164-.1524853-.451063-.4410139-.4573651-.7569-.006302-.3158861.1563979-.6111389.4268122-.7745397l1.26553-.76439-1.26549-.76434c-.4180243-.2525957-.5521307-.7962407-.299535-1.214265.2525957-.4180243.7962407-.5521307 1.214265-.299535l1.176.71017-.00087-1.37491c0-.4886505.3961295-.88478.88478-.88478s.88478.3961295.88478.88478l.00086 1.376 1.17769-.71125c.2704143-.1634008.6074607-.170125.8841771-.0176397.2767164.1524853.451063.4410139.457365.7569.0063021.315886-.1563978.6111389-.4268121.7745397l-.00004-.00003z" fill="#667bb3" fill-rule="nonzero"/>
</svg>
