<svg xmlns="http://www.w3.org/2000/svg" viewBox="0 0 32 32">
  <path d="M17.7357076 26.6330462l-1.2657885.7641959 1.2657885.7641959c.2709123.1630918.4340954.4584531.4279614.7746094-.0061341.3161563-.1806513.6049655-.4576859.7574261-.2770347.1524606-.6144018.1453569-.8847732-.01863l-1.1759513-.7100196.0011597 1.3734111c.0004378.2346383-.0924212.4598257-.258121.6259549-.1656997.1661292-.390646.2595708-.6252846.2597402h-.0011498c-.2344611.0002069-.4593956-.0927614-.6252934-.2584418-.1658979-.1656803-.2591612-.3904927-.2592619-.6249538l-.0011497-1.3772202-1.1782507.7114993c-.4178439.2515461-.9604648.117218-1.2127015-.3002094-.2522367-.4174275-.118806-.9602697.2982038-1.2131962l1.2657885-.7641859-1.2657885-.7641959c-.4179182-.2525316-.5519905-.7960385-.2994589-1.2139566.2525315-.4179182.7960384-.5519905 1.2139566-.299459l1.1759513.7099897-.0011597-1.3734012c-.0004379-.2346392.0924209-.4598276.2581203-.6259584.1656995-.1661307.3906458-.2595745.6252853-.2597466h.0011497c.2344629-.0002069.4593989.0927628.625297.2584452.1658981.1656825.2591603.3904975.2592583.6249604l.0011497 1.3772102 1.1782508-.7114993c.4179181-.2525315.961425-.1184592 1.2139566.299459.2525315.4179181.1184592.961425-.2994589 1.2139566v.00002zm3.9378697-6.8177683H6.37848238c-2.5412782 0-4.60139122-2.060113-4.60139122-4.6013912 0-2.5412782 2.06011302-4.6013912 4.60139122-4.6013912a4.48760522 4.48760522 0 0 1 .49987303.0279929c.88699231.1001435 1.70942136-.4768392 1.91711304-1.34496837.98759609-4.10486405 4.83290415-6.86701878 9.03824195-6.49233359 4.2053378.37468518 7.50175 3.7731495 7.7480842 7.98795366.025406.3688029.1668126.7201201.4039874 1.0036851 1.021062.0733517 1.9747585.5367471 2.6634435 1.2941513.9834121.6910284 1.5724226 1.8145637 1.5813683 3.0164538-.0035809.6593528-.1848127 1.3055514-.5246268 1.8706048v2.5689275c1.8139183-1.2927349 2.6619953-3.5568263 2.1437557-5.7231344-.5182396-2.166308-2.2991261-3.8014801-4.5016967-4.133362-.2972287-5.09040063-4.2783785-9.19498828-9.3573341-9.64746356C12.9117364.58852736 8.26770111 3.92471236 7.07530538 8.88240496a6.2594113 6.2594113 0 0 0-.696823-.03899009c-2.2778602-.00285355-4.38391175 1.21073183-5.5236664 3.18294243-1.13975464 1.9722106-1.13975464 4.4028983 0 6.3751088 1.13975465 1.9722106 3.2458062 3.185796 5.5236664 3.1829425H21.6735973l-.00002-1.7691307zm8.7476181 6.8949387c.0021027 2.2707832-1.6093265 4.2228406-3.8393869 4.6509666-2.2300603.4281259-4.4497977-.7884259-5.2887401-2.898553-.8389424-2.1101272-.0604792-4.5187009 1.8547645-5.7386611v-6.9427965c-1e-7-.9081457.4844899-1.7473069 1.2709671-2.2013798.7864772-.4540728 1.7554571-.4540728 2.5419344 0 .7864772.4540729 1.2709672 1.2932341 1.2709671 2.2013798v6.9428065c1.3584812.8715819 2.1827219 2.3722114 2.1894939 3.9862375zm-1.7691007 0c.0043158-1.1422531-.6537557-2.1834875-1.6873314-2.6697819-.3068374-.1474769-.5020304-.4577283-.5021624-.7981672v-7.4610949c0-.4268242-.3460095-.7728337-.7728337-.7728337-.4268243 0-.7728337.3460095-.7728337.7728337v7.4611049c-.0001369.3404375-.1953284.6506866-.5021625.7981672-1.3227942.6321381-1.9837603 2.1371703-1.5541812 3.5388995.4295791 1.4017292 1.820324 2.2779865 3.2701669 2.0604119 1.4498429-.2175745 2.5221239-1.4634523 2.521338-2.9295295v-.00001zM5.47752123 24.7038462c-.200343-.1220519-.44099477-.1594349-.66892256-.103911-.22792779.0555239-.42442482.1993977-.5461888.3999158l-2.35880084 3.8756756c-.16418259.2699331-.17188594.606952-.02020829.8841048s.43969287.4523336.7555531.4595533c.31586023.0072197.61157879-.1546184.77576135-.4245516l2.35881085-3.8756755c.12224611-.2002935.15973967-.4410085.10420185-.6689934-.05553783-.227985-.19953885-.4244873-.40020666-.546118zm4.14748651 0c-.20034146-.1220514-.44099171-.1594342-.66891787-.1039102-.22792616.0555239-.42442142.1993976-.54618349.399915l-2.35881084 3.8756756c-.16418259.2699349-.171885.6069554-.0202058.8841091.1516792.2771538.43969633.4523345.75555811.4595533.31586178.0072188.61158129-.154621.77576385-.4245559l2.35880085-3.8756755c.12224885-.2002928.15974395-.4410087.10420585-.6689944-.05553798-.2279858-.19954077-.4244882-.40021066-.546117zm14.31177476 2.0577673c0 .9680639.7847708 1.7528348 1.7528347 1.7528348s1.7528348-.7847709 1.7528348-1.7528348h-3.5056695z" fill="#667bb3" fill-rule="nonzero"/>
</svg>
