<svg xmlns="http://www.w3.org/2000/svg" viewBox="0 0 32 32">
  <path d="M21.5399752 27.8225556c-.7296327-.000004-1.3874234.439513-1.6666446 1.1136047-.2792212.6740916-.1248849 1.4500067.391042 1.9659364.5159268.5159297 1.291841.6702703 1.9659342.3910529.6740932-.2792175 1.1136139-.9370057 1.1136139-1.6666385-.0000055-.9962909-.8076546-1.8039444-1.8039455-1.8039555zm-2.0841048-7.2381762H6.37845539c-2.27785056.0028535-4.3838932-1.2107267-5.52364302-3.182929-1.13974982-1.9722022-1.13974982-4.4028796 0-6.3750818 1.13974982-1.97220227 3.24579246-3.18578252 5.52364302-3.18292897a6.25930097 6.25930097 0 0 1 .69682443.03894019C8.26769649 2.92469006 12.9117425-.41148106 17.9906992.04100456c5.0789568.45248563 9.0601032 4.55707746 9.3573326 9.64748018 2.1357582.31720486 3.8831816 1.86476586 4.4562066 3.94652576.5730249 2.08176-.1362932 4.3055633-1.8088736 5.671051.1780996-.7117483-.0062212-1.4655414-.4926659-2.0147924.4706423-.6317605.7258239-1.3980342.7279166-2.1858292-.0093468-1.8288876-1.3423037-3.3817016-3.1486666-3.6680058-.8260677-.1256755-1.4515982-.8121354-1.500172-1.64629522-.2463578-4.21479942-3.5427817-7.61324499-7.7481174-7.9879154-4.2053357-.37467042-8.05063295 2.38749023-9.0382231 6.49235223-.20772966.86809745-1.03014644 1.44504152-1.91711696 1.34490113a4.4874994 4.4874994 0 0 0-.49987405-.02793296c-1.64552514-.00242553-3.16709188.87405892-3.99055544 2.29872262-.82346355 1.4246637-.82346355 3.1806223 0 4.605286.82346356 1.4246637 2.3450303 2.3011482 3.99055544 2.2987226H18.6294586c.0058483.6816506.3073949 1.3271731.8264118 1.7691043zm8.6986782 1.5104994c.2709129.1630922.4340964.458454.4279623.774611-.0061341.3161569-.1806516.6049667-.4576869.7574276-.2770352.1524609-.6144029.1453573-.884775-.0186299l-2.0150123-1.2171234.0017296 2.3539169c.0004405.2346388-.0924162.4598277-.2581144.6259591-.1656982.1661314-.3906439.2595757-.625283.2597478h-.0011497c-.2344633.0002069-.4593999-.092763-.6252983-.2584458-.1658985-.1656828-.2591608-.3904983-.2592588-.6249617l-.0017296-2.3575759-2.0173117 1.218493c-.4178448.2515466-.9604668.1172183-1.212704-.30021-.2522372-.4174283-.1188062-.9602716.2982044-1.2131987l2.1051296-1.2715496-2.1051296-1.2715497c-.417919-.252532-.5519916-.79604-.2994596-1.2139591.2525321-.417919.7960401-.5519916 1.2139592-.2994595l2.0150123 1.2171333-.0017696-2.3539569c-.0004405-.2346387.0924162-.4598276.2581144-.625959.1656982-.1661314.3906439-.2595758.625283-.2597478h.0011597c.2344599-.0002043.4593923.0927654.6252883.2584458.165896.1656803.2591582.3904917.2592589.6249516l.0017295 2.357586 2.0173117-1.218493c.2703462-.1633596.6073078-.1700822.8839544-.0176353.2766467.1524469.4509494.4409029.4572498.7567094.0063005.3158064-.1563584.6109849-.4267046.7743446l-2.1050896 1.2715496 2.1051296 1.2715796zm-11.6938436 3.623407l-2.1054695 1.2721295 2.1054695 1.2721195c.4179191.252532.5519917.7960401.2994596 1.2139591-.2525321.417919-.7960401.5519916-1.2139591.2994595l-2.0150123-1.2174132.0017295 2.3541968c.0004406.2346405-.0924175.4598309-.2581179.6259626-.1657004.1661317-.3906486.2595748-.6252895.2597442h-.0011497c-.2344616.0002069-.4593966-.0927616-.6252948-.2584422-.1658981-.1656807-.2591616-.3904935-.2592623-.6249552l-.0017196-2.3579459-2.0173117 1.2188429c-.27034621.1633597-.60730773.1700822-.88395441.0176353-.27664669-.1524469-.45094933-.4409028-.4572498-.7567093-.00630047-.3158065.15635842-.610985.42670463-.7743446l2.10546948-1.2721195-2.10546948-1.2721195c-.27091287-.1630922-.43409636-.458454-.42796229-.774611.00613406-.3161569.18065164-.6049667.45768685-.7574276.27703522-.1524609.61440298-.1453573.88477502.0186299l2.0150323 1.2174133-.0017296-2.3542068c-.0004379-.2346397.0924211-.4598286.2581209-.6259597.1656998-.1661311.3906465-.2595751.6252865-.2597472h.0010998c.2344633-.0002069.4593998.092763.6252983.2584458.1658984.1656828.2591607.3904983.2592588.6249617l.0017295 2.3579458 2.0173118-1.2188529c.4178448-.2515466.9604667-.1172183 1.2127039.30021.2522372.4174283.1188063.9602716-.2982044 1.2131987h.00002zM6.10523423 24.1611082l-2.35881566 3.8745237c-.16061123.2641895-.44751985.4253328-.75669934.4250029-.31932755-.0005784-.61356046-.1732017-.76985535-.4516659-.1562949-.2784643-.15039177-.6195463.01544543-.8924354l2.35881567-3.8745337c.25380478-.4172813.79782754-.5498052 1.21510883-.2960005.4172813.2538048.5498052.7978276.29600042 1.2151089z" fill="#667bb3" fill-rule="nonzero"/>
</svg>
