<svg xmlns="http://www.w3.org/2000/svg" viewBox="0 0 32 32">
  <path d="M32.000332 16.1092465c-.0035825 3.0254216-2.4554681 5.4770164-5.48089 5.48024h-16.19011v-1.76953h16.19011c1.940442.0001101 3.5533883-1.4946623 3.7006397-3.4295091.1472513-1.9348469-1.2209095-3.6564962-3.1390197-3.9500409-.8262753-.1257594-1.4519472-.8124035-1.50055-1.64678-.2463969-4.21587476-3.5436463-7.61520231-7.7500523-7.98998267-4.206406-.37478036-8.05269078 2.38807598-9.04053773 6.49398269-.20809458.86809468-1.03050021 1.44501678-1.91759 1.34519998a4.4889138 4.4889138 0 0 0-.5-.02794c-2.54071058.0029869-4.59958455 2.0619593-4.60245 4.60267.00504035.7284325.18511602 1.4449797.52505 2.08925v2.80172C.23296428 18.3925019-.53252432 15.5683204.38062082 13.0458975c.91314514-2.5224229 3.30909136-4.20212973 5.99171115-4.20056098a6.25307073 6.25307073 0 0 1 .697.03895C8.26209037 3.92536577 12.9073204.58839362 17.9875465 1.04101989c5.0802261.45262626 9.0623521 4.55825869 9.3596455 9.64993661 2.6745672.4122427 4.6496828 2.7121411 4.65314 5.41829zm-23.14561003 6.62035c1.77436723 1.130234 2.58965133 3.2960704 2.00102393 5.3158045-.5886274 2.0197341-2.43984348 3.408451-4.54360393 3.408451s-3.95497654-1.3887169-4.54360391-3.408451c-.58862737-2.0197341.22665665-4.1855705 2.00102391-5.3158045v-6.94458c0-1.4042281 1.13835184-2.54258 2.54258-2.54258 1.40422816 0 2.54258 1.1383519 2.54258 2.54258v6.94458zm.4205 3.98725c.00431691-1.1425432-.65392181-2.1840421-1.68776-2.67046-.30691371-.1475162-.50215553-.4578453-.50229-.79837v-7.463c0-.4269327-.34609732-.77303-.77303-.77303s-.77303.3460973-.77303.77303v7.463c-.00013447.3405247-.19537628.6508538-.50229.79837-1.32313019.6322986-1.98426426 2.1377132-1.55457604 3.5397984.42968822 1.4020853 1.82078643 2.2785651 3.27099756 2.0609353 1.45021113-.2176298 2.52276459-1.4638241 2.52197848-2.9302737zm11.51938003-2.13589c-.4886002.0001215-.8846586.3961798-.88478.88478v3.87666c0 .4886505.3961295.88478.88478.88478s.8847799-.3961295.88478-.88478v-3.87668c-.0001325-.4885924-.3961876-.8846385-.88478-.88476zm5.758 0c-.4886002.0001215-.8846586.3961798-.88478.88478v3.87666c0 .4886505.3961295.88478.88478.88478s.8847799-.3961295.88478-.88478v-3.87668c-.0001325-.488608-.396212-.8846606-.88482-.88476h.00004zm-11.51707 0c-.4886002.0001215-.8846586.3961798-.88478.88478v3.87666c-.0010651.3168082.1673387.6100079.4415266.7687203.2741878.1587123.6123089.1587123.8864968 0 .2741878-.1587124.4425916-.4519121.4415266-.7687203v-3.87668c-.0001325-.4886041-.3962059-.8846551-.88481-.88476h.00004zm-10.47681003 2.18708c-1e-8.6263866.33417326 1.2051918.87663999 1.5183851s1.2108133.3131933 1.75328002 0c.54246673-.3131933.87664-.8919985.87663999-1.5183851h-3.50656z" fill="#667bb3" fill-rule="nonzero"/>
</svg>
