<svg xmlns="http://www.w3.org/2000/svg" viewBox="0 0 32 32">
  <path d="M16.88457 25.4657559v3.87665c0 .4886505-.3961295.88478-.88478.88478s-.88478-.3961295-.88478-.88478v-3.87665c0-.4886505.3961295-.88478.88478-.88478s.88478.3961295.88478.88478zm7.30862-.88478c-.4886002.0001214-.8846586.3961798-.88478.88478v3.87665c0 .4886505.3961295.8847799.88478.8847799s.88478-.3961294.88478-.8847799v-3.87665c-.0001214-.4886002-.3961798-.8846586-.88478-.88478zm-16.3868 0c-.48860019.0001214-.88465856.3961798-.88478.88478v3.87665c2e-8.4886505.39612951.88478.88478.88478s.88477998-.3961295.88478-.88478v-3.87665c-.00012144-.4886002-.39617981-.8846586-.88478-.88478zm24.1934-8.4717c-.0034501 3.0253649-2.4552349 5.4769931-5.4806 5.48025H6.37208c-3.51920261 0-6.37208-2.8528774-6.37208-6.37208 0-3.5192026 2.85287739-6.37208001 6.37208-6.37208001a6.26099967 6.26099967 0 0 1 .697.039c1.19271712-4.95893891 5.8379332-8.29595063 10.9181697-7.843351 5.0802365.45259964 9.062386 4.55822568 9.3596903 9.64991101 2.6744745.4123748 4.6494446 2.7122725 4.65285 5.41835zm-1.76955 0c-.0093325-1.8293492-1.3426288-3.3825592-3.14945-3.66892-.8262755-.1257152-1.451961-.8123493-1.50055-1.64672-.2464198-4.2158614-3.5436743-7.61516326-7.7500696-7.98992808C13.6237751 2.428943 9.77750899 5.19179962 8.78967 9.29769589c-.207782.86831621-1.030406 1.44540561-1.9176 1.34524001a4.48872711 4.48872711 0 0 0-.5-.028c-1.64593975-.0024262-3.16788988.8742792-3.99156091 2.2993018-.82367104 1.4250227-.82367104 3.1814237 0 4.6064463.82367103 1.4250227 2.34562116 2.301728 3.99156091 2.2993019h20.14712c2.0485213-.0021768 3.7086856-1.6621889 3.71105-3.71071z" fill="#667bb3" fill-rule="nonzero"/>
</svg>
