<?xml version="1.0" encoding="UTF-8"?>
<svg width="100px" height="30px" viewBox="0 0 100 30" version="1.1" xmlns="http://www.w3.org/2000/svg" xmlns:xlink="http://www.w3.org/1999/xlink">
    <title>logo/no-call-letters/dallas</title>
    <g id="logo/no-call-letters/dallas" stroke="none" stroke-width="1" fill="none" fill-rule="evenodd">
        <path d="M88.5866609,6.12555761 L78.5768687,18.7030791 L88.5866609,18.7030791 L88.5866609,6.12555761 Z M34.9254706,20.8356 L34.9254706,8.96529213 C34.9153742,7.58904499 33.8304783,6.46113557 32.4556631,6.39756283 C31.0897918,6.46198397 30.0211325,7.59803613 30.0402568,8.96529213 L30.0402568,20.8029594 C30.0344597,21.4493439 30.2856887,22.0715543 30.7386708,22.5326983 C31.1916529,22.9938422 31.8092782,23.2561411 32.4556631,23.2618866 C33.8028834,23.2620958 34.901731,22.1826111 34.9254706,20.8356 L34.9254706,20.8356 Z M16.5814384,12.0117506 L8.42128169,12.0117506 L8.42128169,8.12751605 L18.4963551,8.12751605 L17.9088238,0 L0,0 L0,29.7356109 L8.37776085,29.7356109 L8.37776085,20.1175063 L16.6031988,20.1175063 L16.5814384,12.0117506 Z M32.4121423,29.376564 C40.3073144,29.2809581 46.6349903,22.8121263 46.5564139,14.9167664 C46.5564139,7.10510092 40.2238078,0.772494832 32.4121423,0.772494832 C24.6004768,0.772494832 18.2678707,7.10510092 18.2678707,14.9167664 C18.1892944,22.8121263 24.5169703,29.2809581 32.4121423,29.376564 L32.4121423,29.376564 Z M69.2416494,29.7029703 L60.2981177,14.2639539 L68.4256338,0 L59.4603416,0 L55.7393102,6.45196388 L52.0944402,0 L42.813622,0 L51.1369818,14.3618757 L42.3240126,29.7029703 L51.3328256,29.7029703 L55.6849092,22.1956262 L60.0369927,29.6920901 L69.2416494,29.7029703 Z M71.6788162,24.012621 L88.5866609,24.012621 L88.5866609,29.7464911 L95.1147862,29.7464911 L95.1147862,24.0017408 L100,24.0017408 L100,18.7030791 L95.1365466,18.7030791 L95.1365466,0 L86.6173431,0 L71.6788162,18.3984332 L71.6788162,24.012621 Z" id="fts-dallas-c-copy-2" fill="#FFFFFF"></path>
    </g>
</svg>