<svg width="16" height="16" viewBox="0 0 16 16" fill="none" xmlns="http://www.w3.org/2000/svg">
<g clip-path="url(#clip0_60_468)">
<path d="M14.8209 1.17488C13.2599 -0.386102 10.7026 -0.386102 9.14161 1.17488L6.07498 4.24148C7.1267 3.94257 8.26702 4.02006 9.26339 4.48503L10.8575 2.89084C11.4775 2.27088 12.4849 2.27088 13.1049 2.89084C13.7249 3.51081 13.7249 4.51825 13.1049 5.13821L11.1011 7.14202L9.78368 8.45944C9.16372 9.0794 8.15628 9.0794 7.53628 8.45944L5.82031 10.1754C6.21886 10.574 6.68383 10.8729 7.17095 11.0611C8.4884 11.5814 10.0162 11.3821 11.1675 10.4743C11.2782 10.3857 11.4 10.2861 11.4996 10.1754L13.5699 8.10514L14.8209 6.85414C16.393 5.2932 16.393 2.74692 14.8209 1.17488Z" fill="black"/>
<path d="M6.66179 11.5814L5.13403 13.1092C4.51407 13.7292 3.50663 13.7292 2.88666 13.1092C2.2667 12.4892 2.2667 11.4818 2.88666 10.8618L6.20789 7.5406C6.82786 6.92064 7.8353 6.92064 8.45529 7.5406L10.1713 5.82463C9.77272 5.42608 9.30774 5.12717 8.82063 4.93897C7.43678 4.38543 5.80938 4.64006 4.64695 5.68071C4.5916 5.725 4.53624 5.78035 4.49196 5.82463L1.17073 9.14582C-0.390244 10.7068 -0.390244 13.2641 1.17073 14.8252C2.73171 16.3861 5.28906 16.3861 6.85003 14.8252L9.85025 11.7917C8.32241 12.146 7.96814 12.1017 6.66179 11.5814Z" fill="black"/>
</g>
<defs>
<clipPath id="clip0_60_468">
<rect width="16" height="16" fill="white"/>
</clipPath>
</defs>
</svg>
