<svg width="16" height="16" viewBox="0 0 16 16" fill="none" xmlns="http://www.w3.org/2000/svg">
<g clip-path="url(#clip0_47_742)">
<path d="M11.9778 0.00634766H4.00952C1.80174 0.00634766 0 1.80809 0 4.01586V11.9968C0 14.1919 1.80174 15.9937 4.00952 15.9937H11.9905C14.1983 15.9937 16 14.1919 16 11.9841V4.01586C15.9873 1.80809 14.1856 0.00634766 11.9778 0.00634766ZM5.3291 12.9485H3.0452V6.35052H5.3291V12.9485ZM4.17447 5.33545C3.52736 5.33545 3.00714 4.81523 3.00714 4.16812C3.00714 3.52102 3.52736 3.0008 4.17447 3.0008C4.82157 3.0008 5.34179 3.52102 5.34179 4.16812C5.3291 4.81523 4.80888 5.33545 4.17447 5.33545ZM12.9548 12.9485H12.9421H11.0389V9.75099C11.0389 8.97701 10.9374 7.98732 9.88422 7.98732C8.80571 7.98732 8.62807 8.82475 8.62807 9.70024V12.9485H6.72482V6.35052H8.50119V7.2387H8.55194C8.83109 6.73117 9.47819 6.33783 10.4933 6.33783C12.5868 6.33783 12.9548 7.54322 12.9548 9.33228V12.9485Z" fill="black"/>
</g>
<defs>
<clipPath id="clip0_47_742">
<rect width="16" height="16" fill="white"/>
</clipPath>
</defs>
</svg>
