<svg width="1690" height="300" viewBox="0 0 1690 300" fill="none" xmlns="http://www.w3.org/2000/svg">
<g clip-path="url(#clip0_1811_366)">
<path d="M1690 212.312C1690 260.661 1649 300 1598.66 300H91.3432C40.9989 299.7 0 260.661 0 212.312V87.6877C0 39.3393 40.9989 0 91.3432 0H1598.66C1649 0 1690 39.3393 1690 87.6877V212.312Z" fill="white"/>
<path d="M1589.01 24.3251H610.462V276.577H1589.01C1630.31 276.577 1664.07 249.25 1664.07 208.109V92.7935C1663.77 51.9527 1630.01 24.3251 1589.01 24.3251Z" fill="url(#paint0_linear_1811_366)"/>
<path fill-rule="evenodd" clip-rule="evenodd" d="M204.392 101.802H132.643V128.528H191.127V184.384H132.041V250.751H72.0494V45.9458H200.473L204.392 101.802ZM306.889 46.2473C286.443 46.5412 266.539 52.8497 249.681 64.3796C232.824 75.9096 219.763 92.1465 212.143 111.049C204.522 129.952 202.681 150.677 206.851 170.619C211.022 190.561 221.017 208.83 235.58 223.13C250.144 237.429 268.626 247.121 288.703 250.987C308.78 254.853 329.557 252.72 348.421 244.857C367.285 236.994 383.395 223.751 394.725 206.794C406.055 189.836 412.1 169.921 412.1 149.551C412.007 135.884 409.211 122.37 403.872 109.781C398.534 97.1914 390.757 85.7735 380.986 76.1797C371.215 66.5859 359.642 59.0043 346.928 53.8683C334.214 48.7324 320.609 46.1427 306.889 46.2473ZM324.977 191.593C324.783 196.386 322.724 200.917 319.237 204.226C315.75 207.536 311.107 209.364 306.291 209.325C301.475 209.286 296.863 207.383 293.43 204.017C289.998 200.652 288.013 196.089 287.897 191.292V104.506C287.894 99.5899 289.811 94.866 293.244 91.3345C296.676 87.803 301.354 85.7415 306.287 85.5866C311.282 85.7181 316.036 87.7536 319.57 91.2735C323.103 94.7933 325.147 99.5294 325.279 104.506L324.977 191.593ZM566.75 46.2461H500.73L476.01 88.5884L450.386 46.2461H384.365L443.452 144.745L381.954 250.45H446.768L476.311 200L506.759 250.45H573.081L509.171 144.144L566.75 46.2461Z" fill="white"/>
<path d="M1598.66 0H91.3432C40.9989 0 0 39.3393 0 87.6877V212.312C0 260.661 40.9989 300 91.3432 300H1598.66C1649 300 1690 260.661 1690 212.312V87.6877C1690 39.3393 1649 0 1598.66 0ZM1676.43 212.312C1676.43 253.453 1641.46 287.087 1598.66 287.087H91.3432C48.234 286.787 13.2644 253.453 13.2644 212.312V87.6877C13.2644 46.5466 48.234 12.9129 91.3432 12.9129H1598.66C1641.46 12.9129 1676.43 46.2463 1676.43 87.6877V212.312ZM306.889 46.2463C286.442 46.5402 266.539 52.8486 249.681 64.3786C232.823 75.9086 219.763 92.1455 212.142 111.048C204.522 129.951 202.681 150.676 206.851 170.618C211.021 190.56 221.016 208.829 235.58 223.129C250.143 237.428 268.625 247.12 288.703 250.986C308.78 254.852 329.557 252.719 348.421 244.856C367.285 236.993 383.394 223.75 394.724 206.793C406.055 189.835 412.1 169.92 412.1 149.55C412.007 135.883 409.211 122.369 403.872 109.78C398.533 97.1903 390.756 85.7724 380.985 76.1786C371.214 66.5849 359.641 59.0033 346.927 53.8673C334.214 48.7313 320.608 46.1416 306.889 46.2463ZM324.977 191.592C324.782 196.385 322.724 200.916 319.237 204.225C315.75 207.535 311.107 209.363 306.291 209.324C301.475 209.285 296.863 207.382 293.43 204.016C289.997 200.651 288.013 196.088 287.897 191.291V104.505C287.893 99.5889 289.811 94.8649 293.243 91.3334C296.676 87.802 301.354 85.7404 306.286 85.5856C311.282 85.7171 316.036 87.7525 319.569 91.2724C323.103 94.7923 325.146 99.5284 325.278 104.505L324.977 191.592ZM509.171 144.144L573.081 250.45H506.759L476.613 200L447.069 250.45H382.255L443.452 144.745L384.365 45.946H450.385L476.01 88.5886L500.73 45.946H566.75L509.171 144.144ZM132.644 128.529H191.127V184.384H132.041V250.751H72.0496V45.946H200.473L204.392 102.102H132.644V128.529Z" fill="url(#paint1_linear_1811_366)"/>
<path d="M798.574 173.875L814.25 54.3551H863.992L825.706 241.743H776.568L757.575 124.325L742.502 241.743H693.062L651.159 54.3551H701.503L718.084 171.472L735.87 54.3551H779.582L798.574 173.875ZM874.845 242.043H969.202V196.998H925.49V168.169H964.68V125.827H925.49V98.4992H969.202V54.3551H874.845V242.043ZM1086.77 54.3551L1126.57 241.743H1074.11L1070.19 218.019H1035.83L1031.61 241.743H979.151L1024.37 54.3551H1086.77ZM1042.76 178.079H1064.16L1054.52 99.4001L1042.76 178.079ZM1112.1 99.4001H1140.13V242.043H1191.08V99.4001H1220.32V54.3551H1112.4V99.4001H1112.1ZM1308.95 120.721H1284.83V54.3551H1233.89V241.743H1284.83V166.667H1308.95V242.043H1359.6V54.3551H1308.65L1308.95 120.721ZM1373.46 242.043H1467.82V196.998H1424.11V168.169H1463.3V125.827H1424.11V98.4992H1467.82V54.3551H1373.46V242.043ZM1532.03 163.965L1532.33 176.277V241.743H1481.69V54.3551H1533.84C1556.75 54.3551 1573.94 58.8596 1585.39 67.8686C1599.86 79.28 1607.1 95.7966 1607.1 116.818C1607.1 139.34 1597.45 155.256 1577.86 163.664L1615.54 241.743H1560.67L1532.03 163.965ZM1556.45 117.718C1556.45 103.604 1549.22 96.6975 1534.44 96.6975H1532.64V141.442H1535.95C1538.75 141.465 1541.51 140.886 1544.06 139.746C1546.61 138.605 1548.88 136.931 1550.72 134.836C1554.65 130.009 1556.69 123.927 1556.45 117.718V117.718Z" fill="white"/>
</g>
<defs>
<linearGradient id="paint0_linear_1811_366" x1="1137.27" y1="-151.066" x2="1137.27" y2="255.36" gradientUnits="userSpaceOnUse">
<stop offset="0.411" stop-color="#F29040"/>
<stop offset="0.7482" stop-color="#EE693C"/>
<stop offset="1" stop-color="#CD3A27"/>
</linearGradient>
<linearGradient id="paint1_linear_1811_366" x1="845" y1="298.502" x2="845" y2="-73.0372" gradientUnits="userSpaceOnUse">
<stop stop-color="#17A5DF"/>
<stop offset="0.1664" stop-color="#17A5DF"/>
<stop offset="0.9342" stop-color="#244291"/>
<stop offset="1" stop-color="#244291"/>
</linearGradient>
<clipPath id="clip0_1811_366">
<rect width="1690" height="300" fill="white"/>
</clipPath>
</defs>
</svg>
