<svg xmlns="http://www.w3.org/2000/svg" xmlns:xlink="http://www.w3.org/1999/xlink" preserveAspectRatio="xMidYMid" width="18" height="18" viewBox="0 0 18 18">
  <defs>
    <style>
      .cls-1 {
        fill: #fff;
        fill-rule: evenodd;
      }
    </style>
  </defs>
  <path d="M16.678,15.007 L15.986,15.007 L15.986,9.379 C15.986,8.615 15.366,7.996 14.601,7.996 L3.368,7.996 C2.603,7.996 1.983,8.615 1.983,9.379 L1.983,15.007 L1.291,15.007 C0.526,15.007 0.000,14.388 0.000,13.622 L0.000,5.383 C0.000,4.617 0.620,3.997 1.385,3.997 L16.615,3.997 C17.380,3.997 18.000,4.617 18.000,5.383 L18.000,13.622 C18.000,14.388 17.443,15.007 16.678,15.007 ZM13.536,3.000 L4.464,3.000 C3.638,3.000 2.969,2.331 2.969,1.505 L2.969,1.495 C2.969,0.669 3.638,0.000 4.464,0.000 L13.536,0.000 C14.362,0.000 15.031,0.669 15.031,1.495 L15.031,1.505 C15.031,2.331 14.362,3.000 13.536,3.000 ZM5.000,9.000 L13.000,9.000 C14.105,9.000 15.000,9.895 15.000,11.000 L15.000,16.000 C15.000,17.105 14.105,18.000 13.000,18.000 L5.000,18.000 C3.895,18.000 3.000,17.105 3.000,16.000 L3.000,11.000 C3.000,9.895 3.895,9.000 5.000,9.000 Z" class="cls-1"/>
</svg>
