<svg width="16" height="16" viewBox="0 0 16 16" fill="none" xmlns="http://www.w3.org/2000/svg">
<path d="M6.13601 9.60079C6.57828 9.60079 6.93681 9.24226 6.93681 8.79999C6.93681 8.35772 6.57828 7.99919 6.13601 7.99919C5.69374 7.99919 5.33521 8.35772 5.33521 8.79999C5.33521 9.24226 5.69374 9.60079 6.13601 9.60079Z" fill="black"/>
<path d="M9.672 10.7128C9.18638 11.0608 8.59655 11.2327 8 11.2C7.40383 11.2267 6.81643 11.0489 6.3352 10.696C6.29365 10.6628 6.24133 10.6462 6.18826 10.6492C6.13519 10.6522 6.0851 10.6747 6.04756 10.7123C6.01002 10.75 5.98768 10.8001 5.98481 10.8532C5.98194 10.9063 5.99874 10.9585 6.032 11C6.6 11.428 7.2976 11.6472 8.0088 11.616C8.71888 11.6472 9.41753 11.4293 9.984 11V11.032C10.0259 10.9902 10.0498 10.9337 10.0507 10.8746C10.0516 10.8154 10.0294 10.7582 9.9888 10.7152C9.96816 10.6942 9.94359 10.6775 9.9165 10.6661C9.8894 10.6546 9.86032 10.6486 9.8309 10.6484C9.80148 10.6482 9.77231 10.6537 9.74504 10.6648C9.71778 10.6758 9.69296 10.6922 9.672 10.7128ZM9.8392 8.032C9.62703 8.032 9.42354 8.11628 9.27352 8.26631C9.12349 8.41634 9.0392 8.61982 9.0392 8.832C9.0392 9.04417 9.12349 9.24765 9.27352 9.39768C9.42354 9.54771 9.62703 9.632 9.8392 9.632L9.8328 9.6632C9.8456 9.6648 9.8592 9.6632 9.8736 9.6632C10.0853 9.65446 10.2848 9.56213 10.4285 9.40646C10.5722 9.25078 10.6482 9.04448 10.64 8.8328C10.6401 8.72761 10.6195 8.62343 10.5793 8.52622C10.5391 8.42902 10.4801 8.34069 10.4057 8.26631C10.3313 8.19193 10.243 8.13295 10.1458 8.09274C10.0486 8.05253 9.94439 8.03189 9.8392 8.032Z" fill="black"/>
<path d="M8 0C3.5832 0 0 3.5816 0 8C0 12.4168 3.5832 16 8 16C12.4168 16 16 12.4168 16 8C16 3.5816 12.4168 0 8 0ZM12.6872 9.064C12.6968 9.1808 12.6968 9.2984 12.6872 9.4152C12.6872 11.2072 10.6 12.6648 8.0232 12.6648C5.4464 12.6648 3.3592 11.2088 3.3592 9.4152C3.3496 9.29833 3.3496 9.18087 3.3592 9.064C3.19075 8.98672 3.04311 8.87047 2.92847 8.72484C2.81384 8.57922 2.7355 8.40841 2.69994 8.22652C2.66437 8.04463 2.6726 7.85689 2.72394 7.67882C2.77528 7.50074 2.86826 7.33744 2.9952 7.2024C3.10018 7.09059 3.22617 7.00058 3.36598 6.93752C3.50578 6.87446 3.65665 6.83959 3.80995 6.83491C3.96324 6.83023 4.11596 6.85583 4.25935 6.91024C4.40274 6.96465 4.534 7.0468 4.6456 7.152C5.56729 6.52718 6.65142 6.18518 7.7648 6.168L8.3592 3.392V3.3888C8.37392 3.32463 8.41332 3.26884 8.46886 3.23351C8.52441 3.19817 8.59164 3.18613 8.656 3.2L10.6152 3.592C10.7112 3.4275 10.8628 3.30263 11.0426 3.23979C11.2224 3.17696 11.4187 3.18028 11.5963 3.24916C11.7739 3.31804 11.9212 3.44797 12.0116 3.61563C12.102 3.78328 12.1297 3.97767 12.0897 4.16391C12.0497 4.35015 11.9446 4.51603 11.7934 4.63177C11.6421 4.74752 11.4545 4.80555 11.2643 4.79544C11.0741 4.78533 10.8937 4.70776 10.7555 4.57663C10.6173 4.44551 10.5304 4.26943 10.5104 4.08L8.8 3.72L8.2808 6.216C9.38094 6.23974 10.4507 6.5815 11.3608 7.2C11.5234 7.04422 11.7276 6.93877 11.9487 6.89634C12.1699 6.85391 12.3986 6.87631 12.6073 6.96084C12.816 7.04537 12.9958 7.18843 13.1251 7.3728C13.2544 7.55717 13.3276 7.77497 13.336 8C13.344 8.4504 13.0904 8.864 12.6872 9.064Z" fill="black"/>
</svg>
