<svg xmlns="http://www.w3.org/2000/svg" xmlns:xlink="http://www.w3.org/1999/xlink" width="28px" height="15px" viewBox="0 0 28 15" version="1.1">
    <title>6688BBB8-BD82-469F-A223-845F831645AD</title>
    <g id="Symbols" stroke="none" stroke-width="1" fill="none" fill-rule="evenodd">
        <g xmlns="http://www.w3.org/2000/svg" id="Super-6-logo">
            <polygon id="Fill-1" fill="#FEFEFE" points="0.10625 6.738 27.9145 6.738 27.9145 0.106375 0.10625 0.106375"/>
            <polygon id="Stroke-2" stroke="#FEFEFE" stroke-width="0.5" points="0.106375 6.738 27.9145 6.738 27.9145 0.10625 0.106375 0.10625"/>
            <polygon id="Fill-4" fill="#FCDA00" points="12.4690375 3.3883875 14.4735375 6.8443875 27.8951625 6.8443875 27.8951625 0.1473875 14.3226625 0.1473875"/>
            <polygon id="Fill-5" fill="#142F54" points="12.4690375 3.3883875 14.3226625 0.1473875 0.1497875 0.1473875 0.1497875 6.8443875 14.4735375 6.8443875"/>
            <g id="Group-10" transform="translate(0.750000, 0.750000)">
                <path d="M0.0938,5.4004125 L0.0938,0.0914125 L3.28955,0.0914125 L3.388175,1.5421625 L1.5993,1.5421625 L1.5993,2.2361625 L3.056925,2.2361625 L3.056925,3.6841625 L1.58705,3.6841625 L1.591175,5.4004125 L0.0938,5.4004125 Z M12.48405,5.3921625 L10.886925,2.6384125 L12.338925,0.0996625 L10.700675,0.0996625 L10.073925,1.2424125 L9.4608,0.0996625 L7.766425,0.0996625 L9.247175,2.6562875 L7.6788,5.3921625 L9.3253,5.3949125 L10.054675,4.0536625 L10.792425,5.3921625 L12.48405,5.3921625 Z M5.921675,0.1707875 C7.33355,0.1844125 8.46705,1.3401625 8.453425,2.7520375 C8.453425,4.1504125 7.3198,5.2840375 5.921425,5.2840375 C4.52305,5.2840375 3.389425,4.1504125 3.389425,2.7520375 C3.3758,1.3411625 4.5078,0.1857875 5.918675,0.1707875 L5.921675,0.1707875 Z M5.92555,4.24391551 C6.16605,4.2447875 6.36355,4.0545375 6.371675,3.8141625 L6.371675,1.6912875 C6.366925,1.4442875 6.170925,1.2436625 5.924175,1.2329125 C5.6813,1.2452875 5.491925,1.4481625 5.4958,1.6912875 L5.4958,3.8059125 C5.49355,4.0455375 5.68605,4.2417875 5.92555,4.24391551 L5.92555,4.24391551 Z" id="Fill-6" fill="#FEFEFE"/>
                <path d="M15.1798625,2.224075 L15.1798625,1.131325 L15.7784875,1.131325 C16.1981125,1.131325 16.4087375,1.314075 16.4087375,1.6772 C16.4087375,2.041825 16.1984875,2.224075 15.7784875,2.224075 L15.1798625,2.224075 Z M15.1798625,3.17206846 C15.1798625,3.17206846 15.6874875,3.1727 15.8567375,3.17206846 C16.0423625,3.17145 16.2096125,3.215575 16.3442375,3.33195 C16.4548625,3.44845 16.5047375,3.59495 16.5044884,3.7657 C16.5039875,4.166325 16.2893625,4.3667 15.8567375,4.3667 L15.1798625,4.3667 L15.1798625,3.17206846 Z M13.8009875,5.4002 L16.0317375,5.4002 C16.2868625,5.402825 16.5413625,5.37145 16.7879875,5.307075 C16.9983625,5.252325 17.1956125,5.1567 17.3691125,5.026075 C17.5319875,4.900575 17.6619875,4.73695 17.7472375,4.549575 C17.8377375,4.334825 17.8732375,4.1032 17.8733627,3.870325 C17.8734875,3.591575 17.8032375,3.317325 17.6474875,3.0862 C17.5226125,2.8947 17.3418625,2.746575 17.1297375,2.661575 L17.1297375,2.645075 C17.3238625,2.5437 17.4869875,2.3912 17.6009875,2.20395 C17.7242375,1.99245 17.7768625,1.750575 17.7773625,1.5057 C17.7783625,1.11945 17.6378625,0.7467 17.3552375,0.4837 C17.0754875,0.2232 16.6384875,0.092825 16.0444875,0.092825 L13.8009875,0.092825 L13.8009875,5.4002 Z M25.0297375,5.400325 L25.0297375,1.310325 L26.4512375,1.310325 L26.4512375,0.092825 L22.3092375,0.092825 L22.2271125,1.310325 L23.6508625,1.310325 L23.6508625,5.400325 L25.0297375,5.400325 Z M18.2278625,0.09145 L21.8694875,0.09145 L21.8694875,1.30895 L19.6541125,1.30895 L19.6541125,2.156825 L21.4833625,2.156825 L21.4833625,3.292825 L19.6541125,3.292825 L19.6541125,4.1842 L21.8694875,4.1842 L21.8694875,5.399575 L18.2278625,5.399575 L18.2278625,0.09145 Z" id="Fill-8" fill="#142F54"/>
            </g>
            <polygon id="Fill-11" fill="#142F54" points="0.083 14.917 22.274375 14.917 22.274375 6.927375 0.083 6.927375"/>
            <polygon id="Stroke-12" stroke="#FEFEFE" stroke-width="0.5" points="0.083 14.917 22.274625 14.917 22.274625 6.927375 0.083 6.927375"/>
            <polygon id="Fill-14" fill="#FCDA00" points="0.9418875 13.143025 1.1216375 12.12365 2.1895125 12.12365 2.0860125 12.711025 2.2646375 12.96165 3.0021375 12.96165 3.2691375 12.711025 3.4642625 11.6054 3.3301375 11.40665 1.8550125 11.40665 1.3853875 10.75865 1.7463875 8.71115 2.5656375 7.94215 4.4865125 7.94215 5.0286375 8.7024 4.8487625 9.7219 3.7807625 9.7219 3.8845125 9.1344 3.7057625 8.8839 3.0066375 8.8839 2.7396375 9.1344 2.5523875 10.197025 2.6878875 10.38715 4.1628875 10.38715 4.6232625 11.04365 4.2547625 13.1344 3.4353875 13.903275 1.4840125 13.903275"/>
            <polygon id="Fill-15" fill="#FCDA00" points="4.734125 13.11715 5.646625 7.94215 6.7145 7.94215 5.88575 12.642025 6.08925 12.9269 6.742125 12.9269 7.046 12.642025 7.874625 7.94215 8.942625 7.94215 8.03 13.11715 7.184625 13.90315 5.294625 13.90315"/>
            <path d="M9.5264125,7.9421625 L12.1615375,7.9421625 L12.7144125,8.7284125 L12.3167875,10.9832875 L11.4866625,11.7694125 L9.9194125,11.7694125 L9.5431625,13.9031625 L8.4752875,13.9031625 L9.5264125,7.9421625 Z M11.0382875,10.8709125 L11.3157875,10.6031625 L11.5795375,9.1085375 L11.3962875,8.8406625 L10.4357875,8.8406625 L10.0779125,10.8709125 L11.0382875,10.8709125 Z" id="Fill-16" fill="#FCDA00"/>
            <polygon id="Fill-17" fill="#FCDA00" points="13.40605 7.942225 16.2103 7.942225 16.035175 8.935725 14.2988 8.935725 14.044425 10.378475 15.619425 10.378475 15.444175 11.371975 13.869175 11.371975 13.59805 12.90985 15.3498 12.90985 15.174675 13.903225 12.354925 13.903225"/>
            <path d="M16.70195,7.942225 L19.40645,7.942225 L19.946825,8.7111 L19.59495,10.706725 L18.904325,11.354725 L19.115825,13.903225 L18.02495,13.903225 L17.862825,11.510225 L17.140825,11.510225 L16.718825,13.903225 L15.650825,13.903225 L16.70195,7.942225 Z M18.304075,10.62035 L18.5987,10.34385 L18.818075,9.099725 L18.62695,8.831975 L17.61295,8.831975 L17.297825,10.62035 L18.304075,10.62035 Z" id="Fill-18" fill="#FCDA00"/>
            <path d="M26.6237125,8.737325 L23.4214625,8.737325 L23.0325875,9.0587 L22.7777125,10.504575 L23.4095875,9.958325 L26.1940875,9.958325 L27.0498375,10.9972 L26.6003375,13.5462 L25.3405875,14.617325 L21.0887125,14.617325 L20.2065875,13.5462 L21.1317125,8.298075 L22.3918375,7.227075 L27.5648375,7.227075 L27.4117125,8.0947 L26.6237125,8.737325 Z M24.3657125,13.1607 L24.6808375,12.892825 L24.9015875,11.63995 L24.7164625,11.41495 L22.8528375,11.41495 L22.5737125,11.6612 L22.3565875,12.892825 L22.5772125,13.1607 L24.3657125,13.1607 Z" id="Fill-19" fill="#142F54"/>
            <path d="M22.2510375,6.8443125 L20.7789125,8.0958125 L19.7990375,13.6534375 L20.9081625,14.9999375 L25.4812875,14.9999375 L26.9532875,13.7484375 L27.4571625,10.8899375 L26.3747875,9.5755625 L23.3301625,9.5755625 L23.3850375,9.2638125 L23.5589125,9.1198125 L26.7599125,9.1198125 L27.7640375,8.3011875 L28.0206625,6.8443125 L22.2510375,6.8443125 Z M20.6139125,13.4390625 L21.4847875,8.5003125 L22.5324125,7.6098125 L27.1086625,7.6098125 L27.0596625,7.8879375 L26.4871625,8.3546875 L23.2835375,8.3546875 L22.6802875,8.8534375 L21.9491625,13.0001875 L22.3966625,13.5431875 L24.5062875,13.5431875 L25.0336625,13.0953125 L25.3091625,11.5326875 L24.8970375,11.0321875 L22.7524125,11.0321875 L23.5520375,10.3408125 L26.0135375,10.3408125 L26.6424125,11.1043125 L26.2474125,13.3439375 L25.1999125,14.2345625 L21.2694125,14.2345625 L20.6139125,13.4390625 Z M22.9275375,11.8595625 L22.9974125,11.7975625 L24.4851625,11.7975625 L24.3277875,12.6905625 L24.2247875,12.7780625 L22.7655375,12.7780625 L22.9275375,11.8595625 Z" id="Fill-20" fill="#FEFEFE"/>
            <path d="M26.6246875,8.737325 L23.4224375,8.737325 L23.0335625,9.0587 L22.7785625,10.504575 L23.4105625,9.958325 L26.1950625,9.958325 L27.0508125,10.9972 L26.6013125,13.5462 L25.3414375,14.617325 L21.0898125,14.617325 L20.2075625,13.5462 L21.1328125,8.298075 L22.3928125,7.227075 L27.5656875,7.227075 L27.4126875,8.0947 L26.6246875,8.737325 Z M24.3666875,13.1607 L24.6816875,12.892825 L24.9026875,11.63995 L24.7174375,11.41495 L22.8538125,11.41495 L22.5746875,11.6612 L22.3574375,12.892825 L22.5781875,13.1607 L24.3666875,13.1607 Z" id="Fill-21" fill="#142F54"/>
        </g>
    </g>
</svg>