<svg id="icons" xmlns="http://www.w3.org/2000/svg" width="512" height="512" viewBox="0 0 512 512"><defs><style>.cls-1{fill:#99a7cc;}</style></defs><title>fts</title><path id="sunrise" class="cls-1" d="M457.58,358.12H388.84a133.51,133.51,0,0,0-266.27,0H53.92a10.09,10.09,0,0,0,0,20.18H457.58a10.09,10.09,0,1,0,0-20.18Zm-94.79,0H142.86a113.29,113.29,0,0,1,225.73,0ZM265.85,139.8v1.63s0,0,0,.06v44.22s0,0,0,.06V200a10.09,10.09,0,0,1-20.18,0V174s0,0,0-.07V139.81l-14,14a10.09,10.09,0,0,1-14.27-14.27l31.26-31.26a9.79,9.79,0,0,1,3.27-2.17,10,10,0,0,1,7.72,0,9.79,9.79,0,0,1,3.27,2.17l31.26,31.26a10.09,10.09,0,1,1-14.27,14.27Z"/></svg>