<svg id="icons" xmlns="http://www.w3.org/2000/svg" width="512" height="512" viewBox="0 0 512 512"><defs><style>.cls-1{fill:#99a7cc;}</style></defs><title>fts</title><path id="sunset" class="cls-1" d="M457.58,358.12H388.84a133.51,133.51,0,0,0-266.27,0H53.92a10.09,10.09,0,0,0,0,20.18H457.58a10.09,10.09,0,1,0,0-20.18Zm-94.79,0H142.85a113.3,113.3,0,0,1,225.74,0ZM217.35,161.62a10.09,10.09,0,0,1,14.27,0l14,14V115.44a10.09,10.09,0,1,1,20.18,0v26s0,0,0,.06v34.15l14-14a10.09,10.09,0,0,1,14.27,14.27l-31.25,31.26a10.28,10.28,0,0,1-3.28,2.18,9.94,9.94,0,0,1-7.72,0,10.24,10.24,0,0,1-3.27-2.18l-31.26-31.26A10.07,10.07,0,0,1,217.35,161.62Z"/></svg>